<svg xmlns="http://www.w3.org/2000/svg" xmlns:xlink="http://www.w3.org/1999/xlink" width="1273.15" height="588.84" viewBox="0 0 1273.15 588.84"><defs><clipPath id="a" transform="translate(254.93 81.48)"/><linearGradient id="b" x1="71.44" y1="477.36" x2="71.44" y2="824.52" gradientTransform="matrix(0.99, 0.13, 0.14, -1.13, 125.58, 818.4)" gradientUnits="userSpaceOnUse"><stop offset="0.21" stop-color="#39a5ba"/><stop offset="0.25" stop-color="#3aaab2"/><stop offset="0.32" stop-color="#3cb99c"/><stop offset="0.41" stop-color="#40d179"/><stop offset="0.46" stop-color="#43e062"/><stop offset="1" stop-color="#43e062"/></linearGradient><linearGradient id="c" x1="74.87" y1="477.42" x2="74.87" y2="824.5" xlink:href="#b"/><linearGradient id="d" x1="78.3" y1="477.4" x2="78.3" y2="824.49" xlink:href="#b"/><linearGradient id="e" x1="81.72" y1="477.29" x2="81.72" y2="824.47" xlink:href="#b"/><linearGradient id="f" x1="85.14" y1="477.12" x2="85.14" y2="824.44" xlink:href="#b"/><linearGradient id="g" x1="88.57" y1="476.87" x2="88.57" y2="824.42" xlink:href="#b"/><linearGradient id="h" x1="92" y1="476.57" x2="92" y2="824.43" xlink:href="#b"/><linearGradient id="i" x1="95.41" y1="476.2" x2="95.41" y2="824.42" xlink:href="#b"/><linearGradient id="j" x1="98.86" y1="475.77" x2="98.86" y2="824.41" xlink:href="#b"/><linearGradient id="k" x1="102.3" y1="475.29" x2="102.3" y2="824.38" xlink:href="#b"/><linearGradient id="l" x1="105.73" y1="474.75" x2="105.73" y2="824.37" xlink:href="#b"/><linearGradient id="m" x1="109.16" y1="474.17" x2="109.16" y2="824.33" xlink:href="#b"/><linearGradient id="n" x1="112.6" y1="473.54" x2="112.6" y2="824.4" xlink:href="#b"/><linearGradient id="o" x1="116.03" y1="472.87" x2="116.03" y2="824.37" xlink:href="#b"/><linearGradient id="p" x1="119.47" y1="472.15" x2="119.47" y2="824.33" xlink:href="#b"/><linearGradient id="q" x1="122.9" y1="471.39" x2="122.9" y2="824.35" xlink:href="#b"/><linearGradient id="r" x1="126.35" y1="470.6" x2="126.35" y2="824.32" xlink:href="#b"/><linearGradient id="s" x1="129.79" y1="469.77" x2="129.79" y2="824.31" xlink:href="#b"/><linearGradient id="t" x1="133.24" y1="468.91" x2="133.24" y2="824.33" xlink:href="#b"/><linearGradient id="u" x1="136.66" y1="468.01" x2="136.66" y2="824.29" xlink:href="#b"/><linearGradient id="v" x1="140.12" y1="467.08" x2="140.12" y2="824.27" xlink:href="#b"/><linearGradient id="w" x1="143.56" y1="466.12" x2="143.56" y2="824.28" xlink:href="#b"/><linearGradient id="x" x1="147.01" y1="465.13" x2="147.01" y2="824.27" xlink:href="#b"/><linearGradient id="y" x1="150.45" y1="464.12" x2="150.45" y2="824.27" xlink:href="#b"/><linearGradient id="z" x1="153.9" y1="463.08" x2="153.9" y2="824.26" xlink:href="#b"/><linearGradient id="aa" x1="157.35" y1="462.01" x2="157.35" y2="824.25" xlink:href="#b"/><linearGradient id="ab" x1="160.8" y1="460.92" x2="160.8" y2="824.23" xlink:href="#b"/><linearGradient id="ac" x1="164.24" y1="459.81" x2="164.24" y2="824.28" xlink:href="#b"/><linearGradient id="ad" x1="167.7" y1="458.67" x2="167.7" y2="824.24" xlink:href="#b"/><linearGradient id="ae" x1="171.15" y1="457.52" x2="171.15" y2="824.24" xlink:href="#b"/><linearGradient id="af" x1="174.6" y1="456.34" x2="174.6" y2="824.26" xlink:href="#b"/><linearGradient id="ag" x1="178.05" y1="455.14" x2="178.05" y2="824.22" xlink:href="#b"/><linearGradient id="ah" x1="181.5" y1="453.92" x2="181.5" y2="824.21" xlink:href="#b"/><linearGradient id="ai" x1="184.96" y1="452.69" x2="184.96" y2="824.21" xlink:href="#b"/><linearGradient id="aj" x1="188.41" y1="451.44" x2="188.41" y2="824.21" xlink:href="#b"/><linearGradient id="ak" x1="191.87" y1="450.17" x2="191.87" y2="824.17" xlink:href="#b"/><linearGradient id="al" x1="126.28" y1="218.06" x2="126.28" y2="272.1" gradientTransform="matrix(1, 0, 0, -1, 254.91, 627.35)" gradientUnits="userSpaceOnUse"><stop offset="0.21" stop-color="#39a5ba"/><stop offset="0.29" stop-color="#41a3b6"/><stop offset="0.41" stop-color="#579fa9"/><stop offset="0.57" stop-color="#7a9796"/><stop offset="0.75" stop-color="#ac8d7a"/><stop offset="0.94" stop-color="#eb8057"/><stop offset="1" stop-color="#ff7c4c"/></linearGradient><linearGradient id="am" x1="124.56" y1="212.08" x2="124.56" y2="275.4" xlink:href="#al"/><linearGradient id="an" x1="127.64" y1="224.64" x2="127.64" y2="268.82" xlink:href="#al"/><linearGradient id="ao" x1="128.81" y1="222.37" x2="128.81" y2="265.49" xlink:href="#al"/><linearGradient id="ap" x1="129.9" y1="222.85" x2="129.9" y2="262.54" xlink:href="#al"/><linearGradient id="aq" x1="130.68" y1="220.05" x2="130.68" y2="264.27" xlink:href="#al"/><linearGradient id="ar" x1="131.06" y1="215.18" x2="131.06" y2="256.24" xlink:href="#al"/><linearGradient id="as" x1="131.61" y1="207.39" x2="131.61" y2="244.71" xlink:href="#al"/><linearGradient id="at" x1="131.85" y1="201.96" x2="131.85" y2="232.61" xlink:href="#al"/><linearGradient id="au" x1="131.81" y1="196.7" x2="131.81" y2="221.52" xlink:href="#al"/><linearGradient id="av" x1="131.96" y1="192.9" x2="131.96" y2="215.5" xlink:href="#al"/><linearGradient id="aw" x1="135.84" y1="191.14" x2="135.84" y2="204.21" xlink:href="#al"/><linearGradient id="ax" x1="142.86" y1="190.52" x2="142.86" y2="200.89" xlink:href="#al"/><linearGradient id="ay" x1="150.57" y1="185.37" x2="150.57" y2="199.06" xlink:href="#al"/><linearGradient id="az" x1="156.68" y1="178.58" x2="156.68" y2="197.14" xlink:href="#al"/><linearGradient id="ba" x1="159.43" y1="173.7" x2="159.43" y2="194.71" xlink:href="#al"/><linearGradient id="bb" x1="157" y1="170.52" x2="157" y2="191.5" xlink:href="#al"/><linearGradient id="bc" x1="151.13" y1="169.35" x2="151.13" y2="188.57" xlink:href="#al"/><linearGradient id="bd" x1="144.19" y1="168.94" x2="144.19" y2="185.85" xlink:href="#al"/><linearGradient id="be" x1="137.92" y1="168.13" x2="137.92" y2="183.17" xlink:href="#al"/><linearGradient id="bf" x1="133.77" y1="166.79" x2="133.77" y2="180.43" xlink:href="#al"/><linearGradient id="bg" x1="132.74" y1="163.94" x2="132.74" y2="177.71" xlink:href="#al"/><linearGradient id="bh" x1="132.8" y1="161.73" x2="132.8" y2="176.07" xlink:href="#al"/><linearGradient id="bi" x1="132.81" y1="160.19" x2="132.81" y2="175.78" xlink:href="#al"/><linearGradient id="bj" x1="132.77" y1="157.87" x2="132.77" y2="175.1" xlink:href="#al"/><linearGradient id="bk" x1="132.68" y1="154.65" x2="132.68" y2="173.05" xlink:href="#al"/><linearGradient id="bl" x1="132.53" y1="151.44" x2="132.53" y2="167.96" xlink:href="#al"/><linearGradient id="bm" x1="132.27" y1="148.11" x2="132.27" y2="160.08" xlink:href="#al"/><linearGradient id="bn" x1="131.96" y1="145.01" x2="131.96" y2="159.96" xlink:href="#al"/><linearGradient id="bo" x1="131.55" y1="141.12" x2="131.55" y2="162.47" xlink:href="#al"/><linearGradient id="bp" x1="131.06" y1="138.6" x2="131.06" y2="163.04" xlink:href="#al"/><linearGradient id="bq" x1="130.42" y1="135.36" x2="130.42" y2="158.69" xlink:href="#al"/><linearGradient id="br" x1="129.69" y1="132.15" x2="129.69" y2="149.69" xlink:href="#al"/><linearGradient id="bs" x1="128.83" y1="128.93" x2="128.83" y2="139.13" xlink:href="#al"/><linearGradient id="bt" x1="127.85" y1="125.71" x2="127.85" y2="129.55" xlink:href="#al"/><linearGradient id="bu" x1="-374.45" y1="122.73" x2="-374.45" y2="235.6" xlink:href="#al"/><linearGradient id="bv" x1="-363.54" y1="122.72" x2="-363.54" y2="238.2" xlink:href="#al"/><linearGradient id="bw" x1="-351.4" y1="122.67" x2="-351.4" y2="240.99" xlink:href="#al"/><linearGradient id="bx" x1="-338.13" y1="122.7" x2="-338.13" y2="242.09" xlink:href="#al"/><linearGradient id="by" x1="-323.85" y1="122.69" x2="-323.85" y2="245.46" xlink:href="#al"/><linearGradient id="bz" x1="-308.65" y1="122.69" x2="-308.65" y2="249.23" xlink:href="#al"/><linearGradient id="ca" x1="-292.65" y1="122.72" x2="-292.65" y2="252.87" xlink:href="#al"/><linearGradient id="cb" x1="-275.93" y1="122.71" x2="-275.93" y2="256.7" xlink:href="#al"/><linearGradient id="cc" x1="-258.61" y1="122.7" x2="-258.61" y2="258.69" xlink:href="#al"/><linearGradient id="cd" x1="-240.88" y1="122.66" x2="-240.88" y2="262.09" xlink:href="#al"/><linearGradient id="ce" x1="-225.48" y1="122.7" x2="-225.48" y2="264.64" xlink:href="#al"/><linearGradient id="cf" x1="-210.23" y1="122.71" x2="-210.23" y2="265.44" xlink:href="#al"/><linearGradient id="cg" x1="-195.26" y1="122.7" x2="-195.26" y2="263.75" xlink:href="#al"/><linearGradient id="ch" x1="-180.66" y1="122.78" x2="-180.66" y2="259.78" xlink:href="#al"/><linearGradient id="ci" x1="-166.58" y1="122.8" x2="-166.58" y2="258.54" xlink:href="#al"/><linearGradient id="cj" x1="-152.64" y1="122.83" x2="-152.64" y2="251.84" xlink:href="#al"/><linearGradient id="ck" x1="-139.78" y1="122.88" x2="-139.78" y2="249.69" xlink:href="#al"/><linearGradient id="cl" x1="-128.59" y1="122.89" x2="-128.59" y2="246.52" xlink:href="#al"/><linearGradient id="cm" x1="-117.75" y1="122.88" x2="-117.75" y2="244.2" xlink:href="#al"/><linearGradient id="cn" x1="-107.5" y1="122.89" x2="-107.5" y2="241.22" xlink:href="#al"/><linearGradient id="co" x1="-96.63" y1="122.81" x2="-96.63" y2="239.54" xlink:href="#al"/><linearGradient id="cp" x1="-84.8" y1="122.87" x2="-84.8" y2="237.51" xlink:href="#al"/><linearGradient id="cq" x1="-71.82" y1="122.84" x2="-71.82" y2="235.71" xlink:href="#al"/><linearGradient id="cr" x1="-58.22" y1="122.86" x2="-58.22" y2="234.56" xlink:href="#al"/><linearGradient id="cs" x1="-44.05" y1="122.86" x2="-44.05" y2="233.25" xlink:href="#al"/><linearGradient id="ct" x1="-29.87" y1="122.84" x2="-29.87" y2="234.73" xlink:href="#al"/><linearGradient id="cu" x1="-15.44" y1="122.83" x2="-15.44" y2="235.93" xlink:href="#al"/><linearGradient id="cv" x1="-0.96" y1="122.82" x2="-0.96" y2="236.84" xlink:href="#al"/><linearGradient id="cw" x1="14.15" y1="122.82" x2="14.15" y2="237.28" xlink:href="#al"/><linearGradient id="cx" x1="28.43" y1="122.82" x2="28.43" y2="237.45" xlink:href="#al"/><linearGradient id="cy" x1="42.4" y1="122.82" x2="42.4" y2="238.09" xlink:href="#al"/><linearGradient id="cz" x1="54.73" y1="122.86" x2="54.73" y2="239.31" xlink:href="#al"/><linearGradient id="da" x1="67.88" y1="122.87" x2="67.88" y2="241.03" xlink:href="#al"/><linearGradient id="db" x1="80.54" y1="122.84" x2="80.54" y2="243.17" xlink:href="#al"/><linearGradient id="dc" x1="93.72" y1="122.9" x2="93.72" y2="245.71" xlink:href="#al"/><linearGradient id="dd" x1="105.12" y1="122.91" x2="105.12" y2="248.48" xlink:href="#al"/><linearGradient id="de" x1="114.68" y1="122.89" x2="114.68" y2="251.39" xlink:href="#al"/><linearGradient id="df" x1="124.5" y1="122.96" x2="124.5" y2="254.5" xlink:href="#al"/><linearGradient id="dg" x1="134.07" y1="122.92" x2="134.07" y2="257.59" xlink:href="#al"/><linearGradient id="dh" x1="143.6" y1="122.91" x2="143.6" y2="260.68" xlink:href="#al"/><linearGradient id="di" x1="153.49" y1="122.9" x2="153.49" y2="263.67" xlink:href="#al"/><linearGradient id="dj" x1="165.82" y1="122.86" x2="165.82" y2="266.49" xlink:href="#al"/><linearGradient id="dk" x1="178.64" y1="122.88" x2="178.64" y2="269.07" xlink:href="#al"/><linearGradient id="dl" x1="191.89" y1="122.87" x2="191.89" y2="271.29" xlink:href="#al"/><linearGradient id="dm" x1="205.48" y1="122.84" x2="205.48" y2="273.11" xlink:href="#al"/><linearGradient id="dn" x1="219.3" y1="122.82" x2="219.3" y2="274.45" xlink:href="#al"/><linearGradient id="do" x1="234.16" y1="122.83" x2="234.16" y2="275.23" xlink:href="#al"/><linearGradient id="dp" x1="249.91" y1="122.76" x2="249.91" y2="275.38" xlink:href="#al"/><linearGradient id="dq" x1="264.67" y1="122.74" x2="264.67" y2="274.75" xlink:href="#al"/><linearGradient id="dr" x1="278.4" y1="122.73" x2="278.4" y2="273.4" xlink:href="#al"/><linearGradient id="ds" x1="289.9" y1="122.76" x2="289.9" y2="271.46" xlink:href="#al"/><linearGradient id="dt" x1="301.86" y1="122.75" x2="301.86" y2="268.94" xlink:href="#al"/><linearGradient id="du" x1="313.58" y1="122.75" x2="313.58" y2="266" xlink:href="#al"/><linearGradient id="dv" x1="325.47" y1="122.8" x2="325.47" y2="262.71" xlink:href="#al"/><linearGradient id="dw" x1="336.74" y1="122.77" x2="336.74" y2="259.15" xlink:href="#al"/><linearGradient id="dx" x1="347.35" y1="122.74" x2="347.35" y2="255.42" xlink:href="#al"/><linearGradient id="dy" x1="357.18" y1="122.75" x2="357.18" y2="251.63" xlink:href="#al"/><linearGradient id="dz" x1="366.94" y1="122.75" x2="366.94" y2="247.85" xlink:href="#al"/><linearGradient id="ea" x1="378.01" y1="122.83" x2="378.01" y2="244.17" xlink:href="#al"/><linearGradient id="eb" x1="390.23" y1="122.75" x2="390.23" y2="240.7" xlink:href="#al"/><linearGradient id="ec" x1="403.47" y1="122.74" x2="403.47" y2="237.53" xlink:href="#al"/><linearGradient id="ed" x1="417.62" y1="122.73" x2="417.62" y2="234.77" xlink:href="#al"/><linearGradient id="ee" x1="432.56" y1="122.69" x2="432.56" y2="232.44" xlink:href="#al"/><linearGradient id="ef" x1="448.1" y1="122.72" x2="448.1" y2="230.74" xlink:href="#al"/><linearGradient id="eg" x1="464.16" y1="122.73" x2="464.16" y2="229.69" xlink:href="#al"/><linearGradient id="eh" x1="480.64" y1="122.71" x2="480.64" y2="229.37" xlink:href="#al"/><linearGradient id="ei" x1="497.32" y1="122.71" x2="497.32" y2="229.46" xlink:href="#al"/><linearGradient id="ej" x1="514.08" y1="122.69" x2="514.08" y2="229.68" xlink:href="#al"/><linearGradient id="ek" x1="530.75" y1="122.66" x2="530.75" y2="230.01" xlink:href="#al"/><linearGradient id="el" x1="547.17" y1="122.69" x2="547.17" y2="230.42" xlink:href="#al"/><linearGradient id="em" x1="563.18" y1="122.69" x2="563.18" y2="230.92" xlink:href="#al"/><linearGradient id="en" x1="578.62" y1="122.69" x2="578.62" y2="231.49" xlink:href="#al"/><linearGradient id="eo" x1="593.3" y1="122.69" x2="593.3" y2="232.1" xlink:href="#al"/><linearGradient id="ep" x1="607.08" y1="122.69" x2="607.08" y2="232.73" xlink:href="#al"/><linearGradient id="eq" x1="619.79" y1="122.69" x2="619.79" y2="233.39" xlink:href="#al"/><linearGradient id="er" x1="270.43" y1="484.56" x2="417.27" y2="484.56" gradientTransform="matrix(0.71, 0.71, 0.71, -0.71, 13.05, 242.25)" gradientUnits="userSpaceOnUse"><stop offset="0" stop-color="#b0ffdf"/><stop offset="0.2" stop-color="#b5ffe1"/><stop offset="0.44" stop-color="#c4ffe7"/><stop offset="0.7" stop-color="#dcfff1"/><stop offset="0.97" stop-color="#feffff"/><stop offset="0.98" stop-color="#fff"/></linearGradient><linearGradient id="es" x1="528.21" y1="403.13" x2="669.33" y2="403.13" gradientTransform="matrix(1, 0, 0, -1, 254.93, 627.35)" xlink:href="#er"/><linearGradient id="et" x1="531.08" y1="403.13" x2="666.46" y2="403.13" gradientTransform="matrix(1, 0, 0, -1, 254.93, 627.35)" xlink:href="#er"/><linearGradient id="eu" x1="533.93" y1="403.13" x2="663.61" y2="403.13" gradientTransform="matrix(1, 0, 0, -1, 254.93, 627.35)" xlink:href="#er"/><linearGradient id="ev" x1="536.79" y1="403.13" x2="660.75" y2="403.13" gradientTransform="matrix(1, 0, 0, -1, 254.93, 627.35)" xlink:href="#er"/><linearGradient id="ew" x1="539.64" y1="403.13" x2="657.89" y2="403.13" gradientTransform="matrix(1, 0, 0, -1, 254.93, 627.35)" xlink:href="#er"/><linearGradient id="ex" x1="542.51" y1="403.13" x2="655.03" y2="403.13" gradientTransform="matrix(1, 0, 0, -1, 254.93, 627.35)" xlink:href="#er"/><linearGradient id="ey" x1="545.36" y1="403.13" x2="652.18" y2="403.13" gradientTransform="matrix(1, 0, 0, -1, 254.93, 627.35)" xlink:href="#er"/><linearGradient id="ez" x1="548.21" y1="403.13" x2="649.33" y2="403.13" gradientTransform="matrix(1, 0, 0, -1, 254.93, 627.35)" xlink:href="#er"/><linearGradient id="fa" x1="551.08" y1="403.13" x2="646.46" y2="403.13" gradientTransform="matrix(1, 0, 0, -1, 254.93, 627.35)" xlink:href="#er"/><linearGradient id="fb" x1="553.93" y1="403.13" x2="643.61" y2="403.13" gradientTransform="matrix(1, 0, 0, -1, 254.93, 627.35)" xlink:href="#er"/><linearGradient id="fc" x1="556.79" y1="403.13" x2="640.75" y2="403.13" gradientTransform="matrix(1, 0, 0, -1, 254.93, 627.35)" xlink:href="#er"/><linearGradient id="fd" x1="559.65" y1="403.13" x2="637.89" y2="403.13" gradientTransform="matrix(1, 0, 0, -1, 254.93, 627.35)" xlink:href="#er"/><linearGradient id="fe" x1="562.51" y1="403.13" x2="635.03" y2="403.13" gradientTransform="matrix(1, 0, 0, -1, 254.93, 627.35)" xlink:href="#er"/><linearGradient id="ff" x1="565.36" y1="403.13" x2="632.18" y2="403.13" gradientTransform="matrix(1, 0, 0, -1, 254.93, 627.35)" xlink:href="#er"/><linearGradient id="fg" x1="568.21" y1="403.13" x2="629.32" y2="403.13" gradientTransform="matrix(1, 0, 0, -1, 254.93, 627.35)" xlink:href="#er"/><linearGradient id="fh" x1="571.08" y1="403.13" x2="626.46" y2="403.13" gradientTransform="matrix(1, 0, 0, -1, 254.93, 627.35)" xlink:href="#er"/><linearGradient id="fi" x1="573.93" y1="403.13" x2="623.61" y2="403.13" gradientTransform="matrix(1, 0, 0, -1, 254.93, 627.35)" xlink:href="#er"/><linearGradient id="fj" x1="576.79" y1="403.13" x2="620.75" y2="403.13" gradientTransform="matrix(1, 0, 0, -1, 254.93, 627.35)" xlink:href="#er"/><linearGradient id="fk" x1="579.65" y1="403.13" x2="617.89" y2="403.13" gradientTransform="matrix(1, 0, 0, -1, 254.93, 627.35)" xlink:href="#er"/><linearGradient id="fl" x1="582.51" y1="403.13" x2="615.03" y2="403.13" gradientTransform="matrix(1, 0, 0, -1, 254.93, 627.35)" xlink:href="#er"/><linearGradient id="fm" x1="585.36" y1="403.13" x2="612.18" y2="403.13" gradientTransform="matrix(1, 0, 0, -1, 254.93, 627.35)" xlink:href="#er"/><linearGradient id="fn" x1="588.22" y1="403.13" x2="609.32" y2="403.13" gradientTransform="matrix(1, 0, 0, -1, 254.93, 627.35)" xlink:href="#er"/><linearGradient id="fo" x1="591.08" y1="403.13" x2="606.46" y2="403.13" gradientTransform="matrix(1, 0, 0, -1, 254.93, 627.35)" xlink:href="#er"/><linearGradient id="fp" x1="339.02" y1="484.61" x2="348.7" y2="484.61" gradientTransform="matrix(1, 0, 0, -1, 254.91, 627.35)" xlink:href="#er"/><linearGradient id="fq" x1="341.88" y1="484.61" x2="345.84" y2="484.61" gradientTransform="matrix(1, 0, 0, -1, 254.91, 627.35)" xlink:href="#er"/><linearGradient id="fr" x1="-162.7" y1="280.97" x2="-157.48" y2="280.97" gradientTransform="matrix(1, 0, 0, -1, 254.91, 627.35)" gradientUnits="userSpaceOnUse"><stop offset="0" stop-color="#4effa7"/><stop offset="0.76" stop-color="#5cffc8"/><stop offset="0.84" stop-color="#5effcc"/></linearGradient><linearGradient id="fs" x1="-147.94" y1="280.97" x2="-142.73" y2="280.97" xlink:href="#fr"/><linearGradient id="ft" x1="-133.19" y1="280.97" x2="-127.97" y2="280.97" xlink:href="#fr"/><linearGradient id="fu" x1="-118.43" y1="280.97" x2="-113.22" y2="280.97" xlink:href="#fr"/><linearGradient id="fv" x1="-103.68" y1="280.97" x2="-98.46" y2="280.97" xlink:href="#fr"/><linearGradient id="fw" x1="-88.93" y1="280.97" x2="-83.71" y2="280.97" xlink:href="#fr"/><linearGradient id="fx" x1="-74.17" y1="280.97" x2="-68.95" y2="280.97" xlink:href="#fr"/><linearGradient id="fy" x1="-59.42" y1="280.97" x2="-54.2" y2="280.97" xlink:href="#fr"/><linearGradient id="fz" x1="-44.66" y1="280.97" x2="-39.44" y2="280.97" xlink:href="#fr"/><linearGradient id="ga" x1="-29.91" y1="280.97" x2="-24.69" y2="280.97" xlink:href="#fr"/><linearGradient id="gb" x1="-15.15" y1="280.97" x2="-9.93" y2="280.97" xlink:href="#fr"/><linearGradient id="gc" x1="-0.4" y1="280.97" x2="4.82" y2="280.97" xlink:href="#fr"/><linearGradient id="gd" x1="14.36" y1="280.97" x2="19.58" y2="280.97" xlink:href="#fr"/><linearGradient id="ge" x1="29.11" y1="280.97" x2="34.33" y2="280.97" xlink:href="#fr"/><linearGradient id="gf" x1="43.87" y1="280.96" x2="49.09" y2="280.96" xlink:href="#fr"/><linearGradient id="gg" x1="-162.7" y1="268.4" x2="-157.48" y2="268.4" xlink:href="#fr"/><linearGradient id="gh" x1="-147.94" y1="268.4" x2="-142.73" y2="268.4" xlink:href="#fr"/><linearGradient id="gi" x1="-133.19" y1="268.4" x2="-127.97" y2="268.4" xlink:href="#fr"/><linearGradient id="gj" x1="-118.43" y1="268.4" x2="-113.22" y2="268.4" xlink:href="#fr"/><linearGradient id="gk" x1="-103.68" y1="268.4" x2="-98.46" y2="268.4" xlink:href="#fr"/><linearGradient id="gl" x1="-88.93" y1="268.4" x2="-83.71" y2="268.4" xlink:href="#fr"/><linearGradient id="gm" x1="-74.17" y1="268.4" x2="-68.95" y2="268.4" xlink:href="#fr"/><linearGradient id="gn" x1="-59.42" y1="268.4" x2="-54.2" y2="268.4" xlink:href="#fr"/><linearGradient id="go" x1="-44.66" y1="268.4" x2="-39.44" y2="268.4" xlink:href="#fr"/><linearGradient id="gp" x1="-29.91" y1="268.4" x2="-24.69" y2="268.4" xlink:href="#fr"/><linearGradient id="gq" x1="-15.15" y1="268.4" x2="-9.93" y2="268.4" xlink:href="#fr"/><linearGradient id="gr" x1="-0.4" y1="268.4" x2="4.82" y2="268.4" xlink:href="#fr"/><linearGradient id="gs" x1="14.36" y1="268.4" x2="19.58" y2="268.4" xlink:href="#fr"/><linearGradient id="gt" x1="29.11" y1="268.4" x2="34.33" y2="268.4" xlink:href="#fr"/><linearGradient id="gu" x1="43.87" y1="268.4" x2="49.09" y2="268.4" xlink:href="#fr"/><linearGradient id="gv" x1="-162.7" y1="255.83" x2="-157.48" y2="255.83" xlink:href="#fr"/><linearGradient id="gw" x1="-147.94" y1="255.83" x2="-142.73" y2="255.83" xlink:href="#fr"/><linearGradient id="gx" x1="-133.19" y1="255.83" x2="-127.97" y2="255.83" xlink:href="#fr"/><linearGradient id="gy" x1="-118.43" y1="255.83" x2="-113.22" y2="255.83" xlink:href="#fr"/><linearGradient id="gz" x1="-103.68" y1="255.83" x2="-98.46" y2="255.83" xlink:href="#fr"/><linearGradient id="ha" x1="-88.93" y1="255.83" x2="-83.71" y2="255.83" xlink:href="#fr"/><linearGradient id="hb" x1="-74.17" y1="255.83" x2="-68.95" y2="255.83" xlink:href="#fr"/><linearGradient id="hc" x1="-59.42" y1="255.83" x2="-54.2" y2="255.83" xlink:href="#fr"/><linearGradient id="hd" x1="-44.66" y1="255.83" x2="-39.44" y2="255.83" xlink:href="#fr"/><linearGradient id="he" x1="-29.91" y1="255.83" x2="-24.69" y2="255.83" xlink:href="#fr"/><linearGradient id="hf" x1="-15.15" y1="255.83" x2="-9.93" y2="255.83" xlink:href="#fr"/><linearGradient id="hg" x1="-0.4" y1="255.83" x2="4.82" y2="255.83" xlink:href="#fr"/><linearGradient id="hh" x1="14.36" y1="255.83" x2="19.58" y2="255.83" xlink:href="#fr"/><linearGradient id="hi" x1="29.11" y1="255.83" x2="34.33" y2="255.83" xlink:href="#fr"/><linearGradient id="hj" x1="43.87" y1="255.83" x2="49.09" y2="255.83" xlink:href="#fr"/><clipPath id="hk" transform="translate(254.93 81.48)"><rect x="291.35" y="141.56" width="167.29" height="167.29" style="fill:none"/></clipPath></defs><g style="clip-path:url(#a)"><path d="M-86.36,222.64c859.35,231.26,733.3-284,733.3-284" transform="translate(254.93 81.48)" style="fill:none;stroke-miterlimit:10;stroke-width:0.25px;stroke:url(#b)"/><path d="M-85.86,220.24C779,461,653.69-60.49,653.69-60.49" transform="translate(254.93 81.48)" style="fill:none;stroke-miterlimit:10;stroke-width:0.25px;stroke:url(#c)"/><path d="M-85.36,217.84C785.05,468.13,660.44-59.62,660.44-59.62" transform="translate(254.93 81.48)" style="fill:none;stroke-miterlimit:10;stroke-width:0.25px;stroke:url(#d)"/><path d="M-84.86,215.44C791.08,475.24,667.19-58.75,667.19-58.75" transform="translate(254.93 81.48)" style="fill:none;stroke-miterlimit:10;stroke-width:0.25px;stroke:url(#e)"/><path d="M-84.36,213C797.1,482.35,673.93-57.89,673.93-57.89" transform="translate(254.93 81.48)" style="fill:none;stroke-miterlimit:10;stroke-width:0.25px;stroke:url(#f)"/><path d="M-83.87,210.63C803.13,489.47,680.68-57,680.68-57" transform="translate(254.93 81.48)" style="fill:none;stroke-miterlimit:10;stroke-width:0.25px;stroke:url(#g)"/><path d="M-83.37,208.23C809.16,496.58,687.43-56.15,687.43-56.15" transform="translate(254.93 81.48)" style="fill:none;stroke-miterlimit:10;stroke-width:0.25px;stroke:url(#h)"/><path d="M-82.87,205.83c898.06,297.87,777-261.12,777-261.12" transform="translate(254.93 81.48)" style="fill:none;stroke-miterlimit:10;stroke-width:0.25px;stroke:url(#i)"/><path d="M-82.37,203.43C821.22,510.81,700.92-54.42,700.92-54.42" transform="translate(254.93 81.48)" style="fill:none;stroke-miterlimit:10;stroke-width:0.25px;stroke:url(#j)"/><path d="M-81.87,201C827.25,517.92,707.67-53.55,707.67-53.55" transform="translate(254.93 81.48)" style="fill:none;stroke-miterlimit:10;stroke-width:0.25px;stroke:url(#k)"/><path d="M-81.37,198.63C833.27,525,714.41-52.69,714.41-52.69" transform="translate(254.93 81.48)" style="fill:none;stroke-miterlimit:10;stroke-width:0.25px;stroke:url(#l)"/><path d="M-80.87,196.22c920.17,335.93,802-248,802-248" transform="translate(254.93 81.48)" style="fill:none;stroke-miterlimit:10;stroke-width:0.25px;stroke:url(#m)"/><path d="M-80.38,193.82C845.33,539.26,727.91-51,727.91-51" transform="translate(254.93 81.48)" style="fill:none;stroke-miterlimit:10;stroke-width:0.25px;stroke:url(#n)"/><path d="M-79.88,191.42c931.24,355,814.53-241.51,814.53-241.51" transform="translate(254.93 81.48)" style="fill:none;stroke-miterlimit:10;stroke-width:0.25px;stroke:url(#o)"/><path d="M-79.38,189C857.39,553.49,741.4-49.22,741.4-49.22" transform="translate(254.93 81.48)" style="fill:none;stroke-miterlimit:10;stroke-width:0.25px;stroke:url(#p)"/><path d="M-78.88,186.62c942.29,374,827-235,827-235" transform="translate(254.93 81.48)" style="fill:none;stroke-miterlimit:10;stroke-width:0.25px;stroke:url(#q)"/><path d="M-78.38,184.22C869.44,567.72,754.89-47.49,754.89-47.49" transform="translate(254.93 81.48)" style="fill:none;stroke-miterlimit:10;stroke-width:0.25px;stroke:url(#r)"/><path d="M-77.88,181.82c953.35,393,839.52-228.44,839.52-228.44" transform="translate(254.93 81.48)" style="fill:none;stroke-miterlimit:10;stroke-width:0.25px;stroke:url(#s)"/><path d="M-77.38,179.42C881.5,582,768.39-45.76,768.39-45.76" transform="translate(254.93 81.48)" style="fill:none;stroke-miterlimit:10;stroke-width:0.25px;stroke:url(#t)"/><path d="M-76.89,177c964.42,412.05,852-221.9,852-221.9" transform="translate(254.93 81.48)" style="fill:none;stroke-miterlimit:10;stroke-width:0.25px;stroke:url(#u)"/><path d="M-76.39,174.61C893.56,596.17,781.88-44,781.88-44" transform="translate(254.93 81.48)" style="fill:none;stroke-miterlimit:10;stroke-width:0.25px;stroke:url(#v)"/><path d="M-75.89,172.21C899.58,603.29,788.63-43.16,788.63-43.16" transform="translate(254.93 81.48)" style="fill:none;stroke-miterlimit:10;stroke-width:0.25px;stroke:url(#w)"/><path d="M-75.39,169.81c981,440.59,870.77-212.1,870.77-212.1" transform="translate(254.93 81.48)" style="fill:none;stroke-miterlimit:10;stroke-width:0.25px;stroke:url(#x)"/><path d="M-74.89,167.41c986.53,450.11,877-208.84,877-208.84" transform="translate(254.93 81.48)" style="fill:none;stroke-miterlimit:10;stroke-width:0.25px;stroke:url(#y)"/><path d="M-74.39,165C917.67,624.63,808.87-40.56,808.87-40.56" transform="translate(254.93 81.48)" style="fill:none;stroke-miterlimit:10;stroke-width:0.25px;stroke:url(#z)"/><path d="M-73.9,162.61C923.7,631.74,815.62-39.69,815.62-39.69" transform="translate(254.93 81.48)" style="fill:none;stroke-miterlimit:10;stroke-width:0.25px;stroke:url(#aa)"/><path d="M-73.4,160.2c1003.13,478.66,895.76-199,895.76-199" transform="translate(254.93 81.48)" style="fill:none;stroke-miterlimit:10;stroke-width:0.25px;stroke:url(#ab)"/><path d="M-72.9,157.8C935.75,646,829.11-38,829.11-38" transform="translate(254.93 81.48)" style="fill:none;stroke-miterlimit:10;stroke-width:0.25px;stroke:url(#ac)"/><path d="M-72.4,155.4C941.78,653.09,835.86-37.1,835.86-37.1" transform="translate(254.93 81.48)" style="fill:none;stroke-miterlimit:10;stroke-width:0.25px;stroke:url(#ad)"/><path d="M-71.9,153C947.81,660.2,842.6-36.23,842.6-36.23" transform="translate(254.93 81.48)" style="fill:none;stroke-miterlimit:10;stroke-width:0.25px;stroke:url(#ae)"/><path d="M-71.4,150.6c1025.24,516.71,920.75-186,920.75-186" transform="translate(254.93 81.48)" style="fill:none;stroke-miterlimit:10;stroke-width:0.25px;stroke:url(#af)"/><path d="M-70.9,148.2c1030.77,526.23,927-182.7,927-182.7" transform="translate(254.93 81.48)" style="fill:none;stroke-miterlimit:10;stroke-width:0.25px;stroke:url(#ag)"/><path d="M-70.41,145.8C965.89,681.54,862.84-33.63,862.84-33.63" transform="translate(254.93 81.48)" style="fill:none;stroke-miterlimit:10;stroke-width:0.25px;stroke:url(#ah)"/><path d="M-69.91,143.4C971.92,688.65,869.59-32.76,869.59-32.76" transform="translate(254.93 81.48)" style="fill:none;stroke-miterlimit:10;stroke-width:0.25px;stroke:url(#ai)"/><path d="M-69.41,141C978,695.77,876.34-31.9,876.34-31.9" transform="translate(254.93 81.48)" style="fill:none;stroke-miterlimit:10;stroke-width:0.25px;stroke:url(#aj)"/><path d="M-68.91,138.59C984,702.88,883.09-31,883.09-31" transform="translate(254.93 81.48)" style="fill:none;stroke-miterlimit:10;stroke-width:0.25px;stroke:url(#ak)"/><path d="M5.4,402.35c70.57,10.13,136.28,7.93,206.72-1.08,27.91-3.56,55.73-6.38,83.82-7.85,33.23-1.74,63.86-11.8,95.3-21.76,28.72-9.1,58.29-17.82,88.74-15.89,28.44,1.8,54,13.43,79.76,24.55C623.88,408,688.7,399.3,757,396" transform="translate(254.93 81.48)" style="fill:none;stroke-miterlimit:10;stroke-width:0.5px;stroke:url(#al)"/><path d="M10,405.42c71.18,16.66,135.22,9.49,205.59-5.3a514.56,514.56,0,0,1,81-10.06c32.68-1.66,63.6-12.38,94.59-21.95,28.4-8.77,57.69-17.35,87.72-15.71,28.15,1.55,53.57,12.85,79,24,28.51,12.47,55.15,21.87,86.64,21.77,34.84-.12,69.68-2.66,104.44-4.66" transform="translate(254.93 81.48)" style="fill:none;stroke-miterlimit:10;stroke-width:0.5px;stroke:url(#am)"/><path d="M.33,396.07c68.64-1.74,137.31-.13,206,.68,33.45.4,67.44,1.88,100.84-.19,29.73-1.83,57.69-12.06,85.74-21.25S449.76,357.26,479.6,359c30,1.7,56.72,14.68,83.93,26,63.39,26.46,134.17,15.57,201.23,13.38" transform="translate(254.93 81.48)" style="fill:none;stroke-miterlimit:10;stroke-width:0.5px;stroke:url(#an)"/><path d="M-5.27,391.87c32.7-6.48,65.43-12.61,98.82-14,35.72-1.46,71.5,5.06,106.7,10.45,34.55,5.28,70.14,12,105.25,11.78,31.31-.22,60.42-11.12,89.56-21.27s59.34-19.19,90.77-16.11c28.76,2.83,54.44,15.95,80.93,26.42,63.07,24.92,139.64,12.76,206,11.65" transform="translate(254.93 81.48)" style="fill:none;stroke-miterlimit:10;stroke-width:0.5px;stroke:url(#ao)"/><path d="M-11.51,392.6c32-10.08,63.93-21.94,97.4-26.29,36.4-4.73,72.09,4.8,107.13,13.75,35.86,9.16,72.32,20.69,109.48,23,33.26,2,63.63-9.58,94.33-20.64,28.83-10.38,57.57-19,88.58-16.19,28.38,2.6,53.2,15,79.41,25.07,30.07,11.52,58.09,13,90,13,42.13,0,84.25-.36,126.38-.54" transform="translate(254.93 81.48)" style="fill:none;stroke-miterlimit:10;stroke-width:0.5px;stroke:url(#ap)"/><path d="M-19,398.21c36.3-11.72,72.2-28.74,110.32-33.75,35.67-4.68,71.17,6,105,16.12,35.34,10.55,71.74,24.29,109,25.94,32.42,1.44,62-9.74,91.88-20.68,30.13-11,60.49-20,93-15.85,27.14,3.5,51.46,15.84,76.82,25.26C596.9,406.36,625.1,407,656.56,407q66.86.09,133.7,0" transform="translate(254.93 81.48)" style="fill:none;stroke-miterlimit:10;stroke-width:0.5px;stroke:url(#aq)"/><path d="M-27.53,404.72C9.43,395,45.36,380,83.13,373.52c35.16-6,69.12,1.49,103.13,10.39,39.84,10.43,81.12,26,122.81,26,29.78,0,58.54-9.62,86.66-18.28,28.4-8.75,57.86-16.92,87.88-14.43,32.28,2.67,61.55,16.36,92.17,25.6,30.94,9.34,61.26,9.26,93.37,9.07,43.46-.25,86.92-1.07,130.38-1.43" transform="translate(254.93 81.48)" style="fill:none;stroke-miterlimit:10;stroke-width:0.5px;stroke:url(#ar)"/><path d="M-35.88,411c37.32-7,73.51-19.11,111-25.33,34.13-5.66,67.08-2,100.73,4.92,39.78,8.2,79.53,20.68,120.36,22.37,32.84,1.35,64.94-6.2,96.81-13s64.41-13,97.3-9.74c31.36,3.08,61.1,13.67,91.64,20.7,73,16.78,152.75,4.67,227,3.1" transform="translate(254.93 81.48)" style="fill:none;stroke-miterlimit:10;stroke-width:0.5px;stroke:url(#as)"/><path d="M-44.07,416.21C-6.65,412,29.88,403,67.15,397.86c38.19-5.26,75.48-2.8,113.39,3.37,33.9,5.53,67.73,13.1,102.13,14.78,36,1.76,71.62-2.76,107.23-7.13s71.63-7.89,107.56-4.66c30.78,2.76,60.82,10.35,91.24,15.4,75.34,12.5,153.12.19,228.9-2.24" transform="translate(254.93 81.48)" style="fill:none;stroke-miterlimit:10;stroke-width:0.5px;stroke:url(#at)"/><path d="M-52.12,420.2c75.37-4.62,147.39-20,223.29-11.72,73.13,8,142.63,11.9,216.24,8.28,34.48-1.69,69.08-3.09,103.6-1.55,37,1.65,73.4,8.66,110.14,12.59,74.91,8,149.54-4.79,224.41-7.24" transform="translate(254.93 81.48)" style="fill:none;stroke-miterlimit:10;stroke-width:0.5px;stroke:url(#au)"/><path d="M-59.46,423.51c74.65-2.58,147.85-15.67,222.75-10s147.93,9.27,223.11,8.4c75.77-.88,148.87,4.73,224.27,10.76,74.59,6,148.08-7.47,222.53-8.94" transform="translate(254.93 81.48)" style="fill:none;stroke-miterlimit:10;stroke-width:0.5px;stroke:url(#av)"/><path d="M-59.44,426.74c71.8.7,143.5-4.23,215.32-3.22,77,1.07,153.61,2.6,230.6,1.24,75.76-1.34,149,4.2,224.46,9.74,76.88,5.66,153.19-7,230-7.49" transform="translate(254.93 81.48)" style="fill:none;stroke-miterlimit:10;stroke-width:0.5px;stroke:url(#aw)"/><path d="M-53.2,429.63c68.44,1.77,136.74,5.26,205.2,3.17,78.26-2.39,156.53-3.42,234.79-5.62,76.82-2.16,151.32,3.45,227.87,8.11,78,4.75,156.06-5.18,234.09-5" transform="translate(254.93 81.48)" style="fill:none;stroke-miterlimit:10;stroke-width:0.5px;stroke:url(#ax)"/><path d="M-45.53,432.62c65,.5,128.53,12.25,193.67,8.29,79.74-4.84,159.23-8.29,239.05-11.47,77.85-3.09,153.51,2.44,231.14,6.18,79.22,3.82,158.88-2.29,238.17-2" transform="translate(254.93 81.48)" style="fill:none;stroke-miterlimit:10;stroke-width:0.5px;stroke:url(#ay)"/><path d="M-41.08,435.59c62.65-.17,122.56,16.85,185.43,12.08,39.23-3,78.24-8.37,117.49-11,41.85-2.81,84-2.75,125.85-4.84,78.86-3.94,155.68,1.58,234.37,4.62,80.57,3.11,161.58.12,242.2.41" transform="translate(254.93 81.48)" style="fill:none;stroke-miterlimit:10;stroke-width:0.5px;stroke:url(#az)"/><path d="M-43.34,438.55c63.73-.12,123.9,19.14,187.66,14,39.31-3.19,78.22-10.21,117.57-12.91,42-2.87,84.26-2.65,126.32-5,78.71-4.44,155.52,1,234.08,4,83.08,3.22,166.6,1.2,249.73,1.54" transform="translate(254.93 81.48)" style="fill:none;stroke-miterlimit:10;stroke-width:0.5px;stroke:url(#ba)"/><path d="M-56,441.51c35,0,68,.43,102.23,7.83A321.41,321.41,0,0,0,137,455.8c41.81-2.8,83.12-10.8,125-13.59s84.43-2.53,126.54-4.7c80.7-4.16,159.39,1.93,239.93,4.52,83.67,2.68,167.65,1,251.35,1.34" transform="translate(254.93 81.48)" style="fill:none;stroke-miterlimit:10;stroke-width:0.5px;stroke:url(#bb)"/><path d="M-75.46,444.46c37.05,0,73.37,0,110,5.91,33.05,5.35,65.27,8.77,98.82,6.83,41.26-2.38,82-9.78,123.24-12.86,43.7-3.27,87.95-2.56,131.76-4.36,80.93-3.33,160.16,3,240.9,5.31,86,2.42,172.25.93,258.27,1.33" transform="translate(254.93 81.48)" style="fill:none;stroke-miterlimit:10;stroke-width:0.5px;stroke:url(#bc)"/><path d="M-97.09,447.43c40.73,0,80.84.11,121.36,4.63,35.17,3.92,70,7.27,105.48,5.7,43.11-1.91,85.71-9.56,128.75-12.39s86.43-1.91,129.52-3.14c81-2.3,160.58,4.35,241.41,6.33,88.54,2.18,177.29.84,265.86,1.31" transform="translate(254.93 81.48)" style="fill:none;stroke-miterlimit:10;stroke-width:0.5px;stroke:url(#bd)"/><path d="M-117.39,450.4c81.09.12,162.61,11,243.52,8.06,42.55-1.53,84.65-8.52,127.09-11.48,44.61-3.12,89.7-1.68,134.41-2.39,81.25-1.29,161.36,5.61,242.42,7.21,91,1.79,182,.8,273,1.31" transform="translate(254.93 81.48)" style="fill:none;stroke-miterlimit:10;stroke-width:0.5px;stroke:url(#be)"/><path d="M-133.47,453.39c85.25.22,170.81,8.73,256,6.56,44.36-1.14,88.27-8.24,132.51-11.05,44-2.8,88.38-1.29,132.43-1.59,82-.56,163,6.49,244.82,7.76,92.82,1.45,185.71.73,278.54,1.27" transform="translate(254.93 81.48)" style="fill:none;stroke-miterlimit:10;stroke-width:0.5px;stroke:url(#bf)"/><path d="M-143.23,456.41c88.37.31,177.21,8.6,265.47,6.37,44.42-1.12,88.37-8.41,132.67-11.19,44-2.77,88.47-1.4,132.58-1.1,82.43.56,164.41,5.85,246.74,7.43,94.72,1.82,189.55,1.07,284.29,1.65" transform="translate(254.93 81.48)" style="fill:none;stroke-miterlimit:10;stroke-width:0.5px;stroke:url(#bg)"/><path d="M-150.84,459.45c88.08.4,176.25,6.64,264.27,5.85,42-.38,83.44-7.17,125.13-11.13,46.32-4.41,92.65-2.52,139,0,182.28,10,366,7.51,548.7,8.61" transform="translate(254.93 81.48)" style="fill:none;stroke-miterlimit:10;stroke-width:0.5px;stroke:url(#bh)"/><path d="M-158.54,462.54c89.33.47,178.83,5.15,268.12,4.25,43.9-.44,87-8,130.58-12.51,46.1-4.76,91.48-1.91,137.43,2.55,90.73,8.8,181.65,6.17,272.78,6.16,94.52,0,189.07,2.44,283.6,3" transform="translate(254.93 81.48)" style="fill:none;stroke-miterlimit:10;stroke-width:0.5px;stroke:url(#bi)"/><path d="M-166.32,465.66c90.63.54,181.38,3.5,272,2.79,44.64-.34,88.24-8.29,132.47-13.33,47.18-5.36,92.61-1.8,139.46,4.47,94,12.58,186.81,5.51,281.24,5.55,94.25,0,188.56,3.51,282.83,4.09" transform="translate(254.93 81.48)" style="fill:none;stroke-miterlimit:10;stroke-width:0.5px;stroke:url(#bj)"/><path d="M-174.21,468.84c92,.59,184,1.77,276,1.87,44.21,0,87.31-7.66,131-13,49.33-6.07,96-2.67,144.86,4.94,96.75,15.05,191.71,4.72,288.91,5.1,94.26.36,188.54,4.16,282.84,4.74" transform="translate(254.93 81.48)" style="fill:none;stroke-miterlimit:10;stroke-width:0.5px;stroke:url(#bk)"/><path d="M-182.23,472.07q140,.94,280,.74c45.82-.13,91-7,136.53-11.1,48.74-4.39,95-1.4,143.38,5.17,99.07,13.47,197.83,6.4,297.43,6.23,94-.16,188,2,282,2.55" transform="translate(254.93 81.48)" style="fill:none;stroke-miterlimit:10;stroke-width:0.5px;stroke:url(#bl)"/><path d="M-190.38,475.36c94.88.67,189.21-2.46,284-4,95.15-1.53,189-8.42,284,1.12,100.12,10.06,200.56,5.59,301,5.1,95.35-.46,190.77.74,286.12,1.29" transform="translate(254.93 81.48)" style="fill:none;stroke-miterlimit:10;stroke-width:0.5px;stroke:url(#bm)"/><path d="M-198.7,478.73c48.73.33,97.66,1.87,146.37.43,49-1.44,97.49-9.09,146.45-10.6,96.89-3,196.11,1.69,292.76,8.55,96.84,6.87,194.16,3.66,291.18,3.58,98.12-.08,196.26.85,294.38,1.4" transform="translate(254.93 81.48)" style="fill:none;stroke-miterlimit:10;stroke-width:0.5px;stroke:url(#bn)"/><path d="M-207.18,482.16c51,.34,102.67,3,153.62.14,46.89-2.6,92.91-13.07,139.73-16.38,51.37-3.64,102.68,6.09,153.62,11.31,48.66,5,97.82,3.92,146.68,5.44,197.61,6.16,395.92,1.62,593.63,2.64" transform="translate(254.93 81.48)" style="fill:none;stroke-miterlimit:10;stroke-width:0.5px;stroke:url(#bo)"/><path d="M-215.85,485.68c51.15.32,102.81,2.66,153.92.45,49.61-2.14,97.63-16.62,147-20.73,49.82-4.15,98.09,8,146.93,15.87,50.91,8.18,102.56,5.8,154,6,200.6.86,401.2.31,601.79,1.23" transform="translate(254.93 81.48)" style="fill:none;stroke-miterlimit:10;stroke-width:0.5px;stroke:url(#bp)"/><path d="M-224.72,489.28c50.79.28,101.69,1.47,152.47.68,51.54-.8,101.45-15.22,152.58-20,51.72-4.8,101.69,7.52,152.48,15.26,50.46,7.7,101.64,5.46,152.53,5.49q305,.19,610.05,1" transform="translate(254.93 81.48)" style="fill:none;stroke-miterlimit:10;stroke-width:0.5px;stroke:url(#bq)"/><path d="M-233.8,493c50.93.23,101.88.63,152.82.58,51.46-.05,101.79-10.14,152.92-14.42,51.61-4.32,101.77,3.78,152.84,10,53.13,6.46,106.41,5,159.83,5.06q309.2.13,618.4.77" transform="translate(254.93 81.48)" style="fill:none;stroke-miterlimit:10;stroke-width:0.5px;stroke:url(#br)"/><path d="M-243.13,496.76c53.39.18,106.77.42,160.16.44,51.3,0,102.1-5.68,153.29-8.06C124,486.63,177,491.7,230.5,495.33c51,3.46,102.17,2.29,153.25,2.31q313.44.09,626.87.53" transform="translate(254.93 81.48)" style="fill:none;stroke-miterlimit:10;stroke-width:0.5px;stroke:url(#bs)"/><path d="M-252.7,500.66q160.71.29,321.23-2.28c104.69-1.52,209.51,2.73,314.23,2.74q317.73,0,635.46.27" transform="translate(254.93 81.48)" style="fill:none;stroke-miterlimit:10;stroke-width:0.5px;stroke:url(#bt)"/><path d="M15.67,406.8C8.78,400.05,5.07,391.08-4,392.07s-18.12,12.61-25.43,17.72c-5.64,3.95-26,9.42-20.89,18.31,3.51,6.09,14.88.55,15.43,10.57-32,6-65.92,7.28-97.3,16.33-14,4-27.62,10.95-41.16,16.39q-40.78,16.41-81.49,33" transform="translate(254.93 81.48)" style="fill:none;stroke-miterlimit:10;stroke-width:0.5px;stroke:url(#bu)"/><path d="M24.51,408.78C19,401.93,13.85,389.61,5.63,389.4c-8.74-.23-18.31,13.45-24.78,18.51-5.65,4.42-26.2,11.26-20.57,20.47,3.48,5.7,14.17,1.95,17.29,10.31C-54.75,444.91-89,445.87-120.65,455c-13.83,4-27.31,11-40.69,16.4q-40.31,16.39-80.52,33" transform="translate(254.93 81.48)" style="fill:none;stroke-miterlimit:10;stroke-width:0.5px;stroke:url(#bv)"/><path d="M33.56,410.57c-4.52-6.23-11-23-18.34-23.91-8.42-1.09-18,13.93-23.92,19.12-5.61,4.9-26.16,13.3-20.27,22.84,2.89,4.67,14.2,4.47,18.49,10.14-32,6.46-66.15,7.07-97.53,16.29-13.54,4-26.73,11-39.8,16.4q-39.45,16.4-78.83,33" transform="translate(254.93 81.48)" style="fill:none;stroke-miterlimit:10;stroke-width:0.5px;stroke:url(#bw)"/><path d="M42.9,412.16c-15.78-23.8-12.23-39.26-37.11-12.79a111.59,111.59,0,0,1-25.87,23.42q5.41,12.56,19.67,13.84c-19.09,16.15-58.94,10.38-83.54,16-15.78,3.61-30.38,10.87-45.17,17.21q-40.18,17.22-80.32,34.58" transform="translate(254.93 81.48)" style="fill:none;stroke-miterlimit:10;stroke-width:0.5px;stroke:url(#bx)"/><path d="M52.59,413.54c-7.58-12.08-9-36.43-25.2-30.48C19.46,386-2.33,417.64-9,425.66A61.89,61.89,0,0,0,11.27,439.4C-19.39,446.46-52,446.35-82,456c-11.42,3.68-22.93,10.2-34,15.11q-37.31,16.62-74.57,33.32" transform="translate(254.93 81.48)" style="fill:none;stroke-miterlimit:10;stroke-width:0.5px;stroke:url(#by)"/><path d="M62.71,414.69a85,85,0,0,1-16.8-36.3q-16.83-.6-21.45,19.1-11.52,13.56-22,27.9a43.06,43.06,0,0,0,18,15.22c-28.62,6.71-59.23,6.2-87.18,15.48-10.89,3.61-21.9,10.18-32.37,15.08l-71.19,33.26" transform="translate(254.93 81.48)" style="fill:none;stroke-miterlimit:10;stroke-width:0.5px;stroke:url(#bz)"/><path d="M73.33,415.62a89.31,89.31,0,0,1-18.47-40.83q-17.43,4.93-22.25,24.49a48,48,0,0,0-17.59,30q12.8,4.25,10,14.74l-67.64,9.71c-36.66,11.43-71.85,33.8-106.27,50.67" transform="translate(254.93 81.48)" style="fill:none;stroke-miterlimit:10;stroke-width:0.5px;stroke:url(#ca)"/><path d="M84.53,416.31a94.74,94.74,0,0,1-20.59-45.2c-11.57,9.4-23.13,25.22-29.49,38.89-6.82,14.63-9.43,20.37,2.37,32.89-23.89,8.2-49.62,5.75-73.31,15-8.81,3.44-17.31,8.47-25.69,12.84-21.51,11.19-42.94,22.53-64.47,33.69" transform="translate(254.93 81.48)" style="fill:none;stroke-miterlimit:10;stroke-width:0.5px;stroke:url(#cb)"/><path d="M96.4,416.74A87.61,87.61,0,0,1,74,369.12c-12,9.41-21.38,25.53-27.7,39.55-6.45,14.29-9.87,21.76-1.49,35.94-21,8-43.44,5.55-64.49,13.94-8.22,3.27-16.18,8-23.93,12.24-20.19,11-40.11,22.53-60.25,33.64" transform="translate(254.93 81.48)" style="fill:none;stroke-miterlimit:10;stroke-width:0.5px;stroke:url(#cc)"/><path d="M108.94,416.91a95.73,95.73,0,0,1-25.69-51.12,91.34,91.34,0,0,0-22.32,38.26q-15.85,15.56-10,36.25Q55,453.71,40.14,450.69l-37.56,6c-29.67,11.13-56.5,31.82-83.52,47.78" transform="translate(254.93 81.48)" style="fill:none;stroke-miterlimit:10;stroke-width:0.5px;stroke:url(#cd)"/><path d="M116.79,416.72a231.32,231.32,0,0,1-24.31-53.43,221.16,221.16,0,0,0-22.77,45q-11.13,13.75-8.92,30,3.66,10.9-8.17,14.33a71.5,71.5,0,0,0-32.57,5.73c-29.58,9.95-52.81,28.75-78,46.09" transform="translate(254.93 81.48)" style="fill:none;stroke-miterlimit:10;stroke-width:0.5px;stroke:url(#ce)"/><path d="M124.7,416.27q-11.52-26.91-23.25-53.75c-11.57,25-23.42,48.67-30.35,75.36q2,19.88-18.16,17.3L33.43,459.3C6.6,469.64-14.11,485.91-35.41,504.45" transform="translate(254.93 81.48)" style="fill:none;stroke-miterlimit:10;stroke-width:0.5px;stroke:url(#cf)"/><path d="M132.71,415.57a228,228,0,0,0-22.8-51.39Q99.76,393.07,87.25,421,84,433.39,80.67,445.75c-6.73,13.34-19.19,10.32-31.3,15C39.58,464.5,31,470.82,20.93,474.13c-16.63,5.46-22.55,17-34.39,30.35" transform="translate(254.93 81.48)" style="fill:none;stroke-miterlimit:10;stroke-width:0.5px;stroke:url(#cg)"/><path d="M140.88,414.62q-3.19-27.57-22.21-46.58-7.56,24.58-16.78,48.58-6.72,18.11-13.51,36.19c-6.26,5-17.4,5.93-24.64,9.09-9.74,4.26-18.43,7.79-27.63,11C23.26,477.46,16,492.25,7.57,504.43" transform="translate(254.93 81.48)" style="fill:none;stroke-miterlimit:10;stroke-width:0.5px;stroke:url(#ch)"/><path d="M149.25,413.44q-2.24-25.92-19.63-44.16c-5.21,15.6-16.2,71.65-30.12,84.23-4.94,4.47-14.59,6.06-20.54,8.9a157,157,0,0,1-15.1,7.9q-4.8,4.37-10.21.9-12.75-6.45-15.6,14.29-5.32,9.5-10.67,18.92" transform="translate(254.93 81.48)" style="fill:none;stroke-miterlimit:10;stroke-width:0.5px;stroke:url(#ci)"/><path d="M157.87,412q5.4-31.19-19.07-36.2c-6.35,18.48-12.71,57.38-26.25,73.7-7.18,8.65-10.4,8.23-20.12,13.31q-7.32,5.26-15.08,9.87L67,467.47c-8.38,1-18.61,31.14-21.33,36.94" transform="translate(254.93 81.48)" style="fill:none;stroke-miterlimit:10;stroke-width:0.5px;stroke:url(#cj)"/><path d="M166.79,410.41q6.08-29.06-16.64-32.47l-11.61,31.71c-7.31,21.51-7.07,36.33-23.1,48.65-3,2.28-18.88,14.44-23.57,14.43q-9.74-14-14.62.19a77,77,0,0,0-15.06,31.49" transform="translate(254.93 81.48)" style="fill:none;stroke-miterlimit:10;stroke-width:0.5px;stroke:url(#ck)"/><path d="M176.05,408.59c-4.39-22-8.89-42-20.56-13.19-6.48,16-8.45,39.77-19.21,53.31C130,456.62,123.21,461,114,466.38c-10.18,6-8.72,6.73-18.34-1.26a90.41,90.41,0,0,0-19.07,39.29" transform="translate(254.93 81.48)" style="fill:none;stroke-miterlimit:10;stroke-width:0.5px;stroke:url(#cl)"/><path d="M185.7,406.57c-3.73-22.26-7.76-34.12-19.23-9.36-7.17,15.47-9,37.47-19.4,50.87-6.09,7.83-12.92,12.53-21.84,18-10.09,6.17-8.5,6.93-18-1.33a86.39,86.39,0,0,0-18.62,39.67" transform="translate(254.93 81.48)" style="fill:none;stroke-miterlimit:10;stroke-width:0.5px;stroke:url(#cm)"/><path d="M195.67,404.41c-7.41-54.79-29.72,31.66-38.41,42.91-6,7.78-13,12.75-21.76,18.22-9.79,6.1-8.32,7.06-17.88-.55a79.82,79.82,0,0,0-18.47,39.43" transform="translate(254.93 81.48)" style="fill:none;stroke-miterlimit:10;stroke-width:0.5px;stroke:url(#cn)"/><path d="M205.65,402.24l-1.07-14C185,384.9,176.92,428.77,172.18,439c-5,10.79-8.94,12.2-17,18.45a163.48,163.48,0,0,1-13,10.65q-4.16,6.43-8.77.42-9.34-9.31-13.38,9.71-4.57,13.11-9.13,26.23" transform="translate(254.93 81.48)" style="fill:none;stroke-miterlimit:10;stroke-width:0.5px;stroke:url(#co)"/><path d="M215.64,400.09l.43-10c-19.84.51-27,35.8-32.79,48.1-4.84,10.26-9,11.83-16.38,18.18q-6,5.6-12.52,10.59-3.58,5.9-8.47,1.42-9.81-6.94-12.95,10.44-4.41,12.8-8.83,25.58" transform="translate(254.93 81.48)" style="fill:none;stroke-miterlimit:10;stroke-width:0.5px;stroke:url(#cp)"/><path d="M225.63,398l2-6c-19.7,5.39-25.59,30.22-32.85,45.43-4.57,9.57-8.68,11.56-15.59,17.76q-5.74,5.46-11.92,10.43-3,5-8.07,2.69-10.22-3.45-12.35,11.6-4.23,12.25-8.44,24.52" transform="translate(254.93 81.48)" style="fill:none;stroke-miterlimit:10;stroke-width:0.5px;stroke:url(#cq)"/><path d="M235.62,396.09l4.11-3.1c-14.67,12-23,23.58-31.95,39.65-5.5,9.84-7.5,15.1-16.08,22.64-6.29,5.54-14.53,8.53-20.67,13.85-10.58,9.17-12.94,22.56-17.3,35.28" transform="translate(254.93 81.48)" style="fill:none;stroke-miterlimit:10;stroke-width:0.5px;stroke:url(#cr)"/><path d="M245.61,394.35l5.94.77c-13.09,11.88-23,22.24-31.66,37.13-5,8.68-7.16,14.61-14.85,21.51-18.64,16.71-26.62,25.86-35.2,50.65" transform="translate(254.93 81.48)" style="fill:none;stroke-miterlimit:10;stroke-width:0.5px;stroke:url(#cs)"/><path d="M255.59,392.84l7.72,4.23c-11.59,11.74-22.88,21-31.09,34.79-4.57,7.67-6.72,14-13.49,20.36-16.63,15.6-24.4,30.14-32.14,52.2" transform="translate(254.93 81.48)" style="fill:none;stroke-miterlimit:10;stroke-width:0.5px;stroke:url(#ct)"/><path d="M265.58,391.62l9.38,7.13c-10.32,11.73-22.47,19.79-30.25,32.72-4.11,6.82-6.12,13.44-12,19.29-14.9,14.72-21.64,33.4-28.86,53.67" transform="translate(254.93 81.48)" style="fill:none;stroke-miterlimit:10;stroke-width:0.5px;stroke:url(#cu)"/><path d="M275.56,390.74q18,6,6.52,14.92a53.72,53.72,0,0,1-22.18,18.62c-4.49,6.55-5.48,14.93-10.46,21.59-6.81,9.11-8.79,8.67-13.58,18.76-6,12.52-9.82,26.7-14.53,39.81" transform="translate(254.93 81.48)" style="fill:none;stroke-miterlimit:10;stroke-width:0.5px;stroke:url(#cv)"/><path d="M285.54,390.25l13.44,12c-16.63,14.4-28.43,26.76-38.29,46q-10.19,7.14-10.45,20.66A274.9,274.9,0,0,1,239,504.44" transform="translate(254.93 81.48)" style="fill:none;stroke-miterlimit:10;stroke-width:0.5px;stroke:url(#cw)"/><path d="M295.52,390.09,310,402.87c-16,14.31-26.86,25.22-35.19,44.67-7.61,17.76-11.73,37.79-18.26,56.91" transform="translate(254.93 81.48)" style="fill:none;stroke-miterlimit:10;stroke-width:0.5px;stroke:url(#cx)"/><path d="M305.52,389.45l15,13c-14.91,14.89-24.85,25.15-31.64,44.83-6.23,18.06-9.07,38.22-14.9,57.17" transform="translate(254.93 81.48)" style="fill:none;stroke-miterlimit:10;stroke-width:0.5px;stroke:url(#cy)"/><path d="M315.52,388.23c23,19.83,10.22,14.51-2.26,33.45-5.23,7.94-6.61,13.11-9.24,22.24-5.66,19.68-7.93,40.28-13,60.51" transform="translate(254.93 81.48)" style="fill:none;stroke-miterlimit:10;stroke-width:0.5px;stroke:url(#cz)"/><path d="M325.51,386.51c22.35,19.53,10.39,14.91-.7,34.74-4.56,8.15-5.71,13.31-7.59,22.49-4.11,20-5.91,40.47-9.77,60.69" transform="translate(254.93 81.48)" style="fill:none;stroke-miterlimit:10;stroke-width:0.5px;stroke:url(#da)"/><path d="M335.51,384.36c21.36,19.19,10.06,15.7.57,36.3-3.84,8.34-4.81,13.68-6,22.81-2.69,20.23-4.12,40.68-6.87,61" transform="translate(254.93 81.48)" style="fill:none;stroke-miterlimit:10;stroke-width:0.5px;stroke:url(#db)"/><path d="M345.49,381.87q21.39,7.72,9.55,21.65-3.93,8.25-8,16.44c-3.13,8.49-3.93,14.16-4.61,23.2-1.52,20.36-2.65,40.89-4.42,61.27" transform="translate(254.93 81.48)" style="fill:none;stroke-miterlimit:10;stroke-width:0.5px;stroke:url(#dc)"/><path d="M355.48,379.1q19.65,8,9.11,22.34-3.39,8.9-6.9,17.74c-2.5,8.66-3,14.68-3.4,23.63-1,20.5-1.53,41.09-2.51,61.62" transform="translate(254.93 81.48)" style="fill:none;stroke-miterlimit:10;stroke-width:0.5px;stroke:url(#dd)"/><path d="M365.46,376.13c19.42,21.35,3.41,22.09-.37,47.7-.84,5.69.68,12.75.53,18.62-.53,20.63-.93,41.31-1.32,62" transform="translate(254.93 81.48)" style="fill:none;stroke-miterlimit:10;stroke-width:0.5px;stroke:url(#de)"/><path d="M375.44,373c17.21,21.4,2.36,25.19-.12,50.63-.57,5.77.91,12.51.82,18.43-.3,20.74-.7,41.54-.74,62.33" transform="translate(254.93 81.48)" style="fill:none;stroke-miterlimit:10;stroke-width:0.5px;stroke:url(#df)"/><path d="M385.42,369.9c10,14.46,7.81,24.62,3.2,41.77-3.19,11.87-2,18.14-2.14,30.08-.21,20.84-.67,41.77-.55,62.68" transform="translate(254.93 81.48)" style="fill:none;stroke-miterlimit:10;stroke-width:0.5px;stroke:url(#dg)"/><path d="M395.41,366.8c8.88,14.88,6.49,26.76,3.14,43.75-2.41,12.2-1.08,18.8-1,30.83.2,20.95-.17,42,.37,63.05" transform="translate(254.93 81.48)" style="fill:none;stroke-miterlimit:10;stroke-width:0.5px;stroke:url(#dh)"/><path d="M405.39,363.79c11.44,22.49.1,29.13,1.47,55.75.37,7.26,2.17,14.34,2.44,21.48.77,21,.81,42.29,2.09,63.41" transform="translate(254.93 81.48)" style="fill:none;stroke-miterlimit:10;stroke-width:0.5px;stroke:url(#di)"/><path d="M415.38,361c12.11,17.59.37,39.76,2.64,58.34.9,7.3,3.12,14.15,3.69,21.35,1.67,21.07,2.13,42.56,4.32,63.77" transform="translate(254.93 81.48)" style="fill:none;stroke-miterlimit:10;stroke-width:0.5px;stroke:url(#dj)"/><path d="M425.36,358.4c11.13,19,.2,40.81,4.13,60.71,1.46,7.42,4.41,13.78,5.13,21.22,2.08,21.34,3.81,42.74,7.08,64.1" transform="translate(254.93 81.48)" style="fill:none;stroke-miterlimit:10;stroke-width:0.5px;stroke:url(#dk)"/><path d="M435.36,356.17c10.45,20.14.12,41.83,5.85,62.8,2,7.48,5.59,13.52,6.74,21.1,3.26,21.46,5.78,42.92,10.27,64.36" transform="translate(254.93 81.48)" style="fill:none;stroke-miterlimit:10;stroke-width:0.5px;stroke:url(#dl)"/><path d="M445.35,354.35c10.06,20.8.46,43.45,7.79,64.56,2.62,7.53,6.82,13.26,8.45,21,4.55,21.56,8,43,13.82,64.53" transform="translate(254.93 81.48)" style="fill:none;stroke-miterlimit:10;stroke-width:0.5px;stroke:url(#dm)"/><path d="M455.35,353c9,20.07,4.27,36,9.08,58.63,2.49,11.72,7.42,17.51,11.18,28.21,4.12,11.71,11,24.83,13.93,36.7,2.28,9.1-.88,17.81,3.53,27.89" transform="translate(254.93 81.48)" style="fill:none;stroke-miterlimit:10;stroke-width:0.5px;stroke:url(#dn)"/><path d="M465.35,352.22c9.79,20.66,5.22,35.72,11.16,59.49,2.72,10.87,8.24,18.55,12.87,28.28q1.33,4.88,2.68,9.75a159.37,159.37,0,0,1,20.66,26.75l-6.21,9a30.81,30.81,0,0,0,4.53,18.9" transform="translate(254.93 81.48)" style="fill:none;stroke-miterlimit:10;stroke-width:0.5px;stroke:url(#do)"/><path d="M475.33,352.08c10.69,20.25,6.54,36.81,13.24,59.88,3,10.36,9.28,19.29,14.41,28.41l3.56,9.83a108.88,108.88,0,0,1,27.65,26.12l-9.83,9.21a23.63,23.63,0,0,0,4.78,18.9" transform="translate(254.93 81.48)" style="fill:none;stroke-miterlimit:10;stroke-width:0.5px;stroke:url(#dp)"/><path d="M485.1,352.71c12.66,24.43,11.36,52.73,24.43,76.07,2.72,4.86,5.66,12,8.92,17.09,7.68,12,24.69,19.72,35.45,30.19-9.94,7.73-19.29,16-6.72,28.37" transform="translate(254.93 81.48)" style="fill:none;stroke-miterlimit:10;stroke-width:0.5px;stroke:url(#dq)"/><path d="M494.6,354.05c11.54,24.95,13.86,52.59,27.75,75.44,2.93,4.82,5.91,12,9.4,17.1,8.31,12.07,28.17,19.12,40.09,29.15-10.4,7.63-21.11,16.24-6.86,28.69" transform="translate(254.93 81.48)" style="fill:none;stroke-miterlimit:10;stroke-width:0.5px;stroke:url(#dr)"/><path d="M503.87,356c8.12,16.51,11.6,33.85,17.4,51.17,5,14.79,13.24,23.77,20.89,35.21q-1.11,11.81,14.28,14.48,23.35-1.19,27.42,15.93,6.76,11-11.09,14.07a48.31,48.31,0,0,0,9.59,17.56" transform="translate(254.93 81.48)" style="fill:none;stroke-miterlimit:10;stroke-width:0.5px;stroke:url(#ds)"/><path d="M512.94,358.51c7.66,16.35,12.27,33.78,19.13,50.42,5.76,14,15.12,23.33,22.58,34.27q-1.54,12,14.62,14.2,23.12-1.9,28.82,15.06,8,10.4-9.74,14.4a57.14,57.14,0,0,0,10.79,17.57" transform="translate(254.93 81.48)" style="fill:none;stroke-miterlimit:10;stroke-width:0.5px;stroke:url(#dt)"/><path d="M521.85,361.45c7.11,16.36,12.8,33.38,20.78,49.38q3.09,17,17.84,21.24,7.81,4.24,6.28,11.93-2,12,14.53,13.9,22.31-2.11,29.55,14.26,9.07,9.46-7.66,14.68a71.35,71.35,0,0,0,12,17.59" transform="translate(254.93 81.48)" style="fill:none;stroke-miterlimit:10;stroke-width:0.5px;stroke:url(#du)"/><path d="M530.63,364.73c6.53,16.61,13.15,32.61,22.31,48q4.45,16.53,19.32,20.15,8,4.15,6.17,11.83-2.43,11.79,14.08,13.6,21.16-1.94,29.68,13.54,9.93,8.32-5.08,14.94a94,94,0,0,0,13.07,17.59" transform="translate(254.93 81.48)" style="fill:none;stroke-miterlimit:10;stroke-width:0.5px;stroke:url(#dv)"/><path d="M539.32,368.28A183.4,183.4,0,0,0,563,414.72q5.68,15.94,20.62,19,8.21,4.08,6,11.7-2.83,11.43,13.33,13.32,19.9-1.47,29.31,12.94,10.47,7.13-2.23,15.14a134.74,134.74,0,0,0,14,17.59" transform="translate(254.93 81.48)" style="fill:none;stroke-miterlimit:10;stroke-width:0.5px;stroke:url(#dw)"/><path d="M547.94,372c5.09,17.57,13.32,30.24,24.84,44.59q6.74,15.32,21.68,17.89,8.29,4,5.8,11.55-3.19,11,12.34,13.07,18.58-.84,28.51,12.47,10.71,6,.7,15.29a216.34,216.34,0,0,0,14.83,17.58" transform="translate(254.93 81.48)" style="fill:none;stroke-miterlimit:10;stroke-width:0.5px;stroke:url(#dx)"/><path d="M556.53,375.77c4.1,18.06,13.31,28.9,25.74,42.53q7.59,14.7,22.48,16.8,8.31,4,5.51,11.4-3.51,10.37,11.17,12.84,17.28-.09,27.38,12.15,10.66,5.14,3.5,15.37,7.49,9,15.4,17.57" transform="translate(254.93 81.48)" style="fill:none;stroke-miterlimit:10;stroke-width:0.5px;stroke:url(#dy)"/><path d="M565.13,379.54c3,18.4,13.57,27.63,26.68,40.36Q600.15,434,615,435.66q8.32,3.94,5.3,11.22-3.67,9.74,9.9,12.66,15.87.84,26,11.92,10.35,4.49,6.8,15.39,7.65,8.94,15.63,17.58" transform="translate(254.93 81.48)" style="fill:none;stroke-miterlimit:10;stroke-width:0.5px;stroke:url(#dz)"/><path d="M573.77,383.21c2.28,18.56,14.58,26.55,28.19,38.2q9.22,13.75,24.32,14.73,8.47,3.76,5.45,11-3.47,9.09,8.62,12.51a47.89,47.89,0,0,1,26.7,11.7c9.91,10,14.09,21.26,25.09,33" transform="translate(254.93 81.48)" style="fill:none;stroke-miterlimit:10;stroke-width:0.5px;stroke:url(#ea)"/><path d="M582.48,386.67c2,18.56,16.38,25.61,30.25,36.08q10.18,13.5,25.67,13.75,8.75,3.42,6,10.84-3,9.2,9.1,12.36A47.88,47.88,0,0,1,681,471.42c10.3,9.95,15.69,21.61,26.88,33" transform="translate(254.93 81.48)" style="fill:none;stroke-miterlimit:10;stroke-width:0.5px;stroke:url(#eb)"/><path d="M591.31,389.85c2.2,18.32,18.87,24.63,32.78,33.94q11.19,13.4,27.22,12.88,8.88,3,7.08,10.69-1.93,9.64,10.43,12.35a49.89,49.89,0,0,1,27.44,11.85c10.89,9.86,17.75,21.86,29.27,32.87" transform="translate(254.93 81.48)" style="fill:none;stroke-miterlimit:10;stroke-width:0.5px;stroke:url(#ec)"/><path d="M600.27,392.65c6,20.83,33.47,34.17,52.53,41.74l8.77,2.24q11.43-.54,11.67,10.73,1.21,10.18,11.25,11.43a200.89,200.89,0,0,0,25.59,9.59,41.81,41.81,0,0,1,16.34,19.71q9.26,8.13,18.44,16.34" transform="translate(254.93 81.48)" style="fill:none;stroke-miterlimit:10;stroke-width:0.5px;stroke:url(#ed)"/><path d="M609.41,395c7.65,19.67,38,32.39,56.4,39.33l9.53,2.16q11.73-.42,13.74,10.91,3,9.8,13,11.52Q714.5,464.55,727.4,469c13.84,8.64,25.34,24.91,38.2,35.49" transform="translate(254.93 81.48)" style="fill:none;stroke-miterlimit:10;stroke-width:0.5px;stroke:url(#ee)"/><path d="M618.76,396.73c17.24,30,64.54,29,87.06,50.65C719,460,735.75,461.72,750.24,472.63c12.86,9.67,24.1,21.93,37.08,31.8" transform="translate(254.93 81.48)" style="fill:none;stroke-miterlimit:10;stroke-width:0.5px;stroke:url(#ef)"/><path d="M628.35,397.83c14.09,14.55,36.59,21.65,54.16,30.08A39.12,39.12,0,0,0,706.69,436a22.55,22.55,0,0,1,16,11.41c15.32,10.59,34.18,16.68,49.06,28,12.72,9.7,24.91,19.75,38.07,29" transform="translate(254.93 81.48)" style="fill:none;stroke-miterlimit:10;stroke-width:0.5px;stroke:url(#eg)"/><path d="M638.22,398.18c15.9,11.14,34.37,18.14,51.85,26.31,17.73,8.28,34.66,11.26,50.22,22.92,14.57,10.91,31.35,16.7,46.75,26.3s30.46,20.69,45.84,30.72" transform="translate(254.93 81.48)" style="fill:none;stroke-miterlimit:10;stroke-width:0.5px;stroke:url(#eh)"/><path d="M648.38,398.1c34.67,19.91,76.77,27.37,109.25,49.32,31,21,66.23,37.46,98.45,57" transform="translate(254.93 81.48)" style="fill:none;stroke-miterlimit:10;stroke-width:0.5px;stroke:url(#ei)"/><path d="M658.81,397.89c37.64,18.18,80.83,27.86,116.2,49.55,33.56,20.59,69.85,37.53,104.14,57" transform="translate(254.93 81.48)" style="fill:none;stroke-miterlimit:10;stroke-width:0.5px;stroke:url(#ej)"/><path d="M669.47,397.57c40.58,17.08,84,29.14,122.72,49.9,36.28,19.45,73.3,37.57,109.64,57" transform="translate(254.93 81.48)" style="fill:none;stroke-miterlimit:10;stroke-width:0.5px;stroke:url(#ek)"/><path d="M680.34,397.16C723,414,767.55,426.94,808.6,447.49c38.31,19.17,77,37.62,115.2,56.94" transform="translate(254.93 81.48)" style="fill:none;stroke-miterlimit:10;stroke-width:0.5px;stroke:url(#el)"/><path d="M691.38,396.66c44.68,16.16,90,30.59,133.07,50.86,40.15,18.89,80.35,37.66,120.33,56.91" transform="translate(254.93 81.48)" style="fill:none;stroke-miterlimit:10;stroke-width:0.5px;stroke:url(#em)"/><path d="M702.56,396.1c90.5,28.18,176,68.65,261.9,108.33" transform="translate(254.93 81.48)" style="fill:none;stroke-miterlimit:10;stroke-width:0.5px;stroke:url(#en)"/><path d="M713.83,395.49c92.61,28,180.52,69.55,268.73,108.94" transform="translate(254.93 81.48)" style="fill:none;stroke-miterlimit:10;stroke-width:0.5px;stroke:url(#eo)"/><path d="M725.17,394.86c94,28.09,183.74,70.46,273.61,109.57" transform="translate(254.93 81.48)" style="fill:none;stroke-miterlimit:10;stroke-width:0.5px;stroke:url(#ep)"/><path d="M736.55,394.2c94.71,28.51,185.44,71.37,276.28,110.23" transform="translate(254.93 81.48)" style="fill:none;stroke-miterlimit:10;stroke-width:0.5px;stroke:url(#eq)"/></g><circle cx="598.81" cy="142.76" r="72.91" transform="translate(329.38 546.72) rotate(-45)" style="fill:none;stroke-miterlimit:10.000000063435358;stroke:url(#er)"/><circle cx="853.7" cy="224.22" r="70.07" style="fill:none;stroke-miterlimit:10;stroke-width:0.9739999771118164px;stroke:url(#es)"/><circle cx="853.7" cy="224.22" r="67.22" style="fill:none;stroke-miterlimit:10;stroke-width:0.9480000138282776px;stroke:url(#et)"/><circle cx="853.7" cy="224.22" r="64.38" style="fill:none;stroke-miterlimit:10;stroke-width:0.921999990940094px;stroke:url(#eu)"/><circle cx="853.7" cy="224.22" r="61.53" style="fill:none;stroke-miterlimit:10;stroke-width:0.8960000276565552px;stroke:url(#ev)"/><circle cx="853.7" cy="224.22" r="58.69" style="fill:none;stroke-miterlimit:10;stroke-width:0.8700000047683716px;stroke:url(#ew)"/><circle cx="853.7" cy="224.22" r="55.84" style="fill:none;stroke-miterlimit:10;stroke-width:0.843999981880188px;stroke:url(#ex)"/><circle cx="853.7" cy="224.22" r="53" style="fill:none;stroke-miterlimit:10;stroke-width:0.8180000185966492px;stroke:url(#ey)"/><circle cx="853.7" cy="224.22" r="50.16" style="fill:none;stroke-miterlimit:10;stroke-width:0.7919999957084656px;stroke:url(#ez)"/><circle cx="853.7" cy="224.22" r="47.31" style="fill:none;stroke-miterlimit:10;stroke-width:0.765999972820282px;stroke:url(#fa)"/><circle cx="853.7" cy="224.22" r="44.47" style="fill:none;stroke-miterlimit:10;stroke-width:0.7400000095367432px;stroke:url(#fb)"/><circle cx="853.7" cy="224.22" r="41.62" style="fill:none;stroke-miterlimit:10;stroke-width:0.7139999866485596px;stroke:url(#fc)"/><circle cx="853.7" cy="224.22" r="38.78" style="fill:none;stroke-miterlimit:10;stroke-width:0.6880000233650208px;stroke:url(#fd)"/><circle cx="853.7" cy="224.22" r="35.93" style="fill:none;stroke-miterlimit:10;stroke-width:0.6620000004768372px;stroke:url(#fe)"/><circle cx="853.7" cy="224.22" r="33.09" style="fill:none;stroke-miterlimit:10;stroke-width:0.6359999775886536px;stroke:url(#ff)"/><circle cx="853.7" cy="224.22" r="30.25" style="fill:none;stroke-miterlimit:10;stroke-width:0.6100000143051147px;stroke:url(#fg)"/><circle cx="853.7" cy="224.22" r="27.4" style="fill:none;stroke-miterlimit:10;stroke-width:0.5839999914169312px;stroke:url(#fh)"/><circle cx="853.7" cy="224.22" r="24.56" style="fill:none;stroke-miterlimit:10;stroke-width:0.5580000281333923px;stroke:url(#fi)"/><circle cx="853.7" cy="224.22" r="21.71" style="fill:none;stroke-miterlimit:10;stroke-width:0.5320000052452087px;stroke:url(#fj)"/><circle cx="853.7" cy="224.22" r="18.87" style="fill:none;stroke-miterlimit:10;stroke-width:0.5059999823570251px;stroke:url(#fk)"/><circle cx="853.7" cy="224.22" r="16.02" style="fill:none;stroke-miterlimit:10;stroke-width:0.47999998927116394px;stroke:url(#fl)"/><circle cx="853.7" cy="224.22" r="13.18" style="fill:none;stroke-miterlimit:10;stroke-width:0.45399999618530273px;stroke:url(#fm)"/><circle cx="853.7" cy="224.22" r="10.34" style="fill:none;stroke-miterlimit:10;stroke-width:0.42800000309944153px;stroke:url(#fn)"/><circle cx="853.7" cy="224.22" r="7.49" style="fill:none;stroke-miterlimit:10;stroke-width:0.4020000100135803px;stroke:url(#fo)"/><path d="M598.77,147.39a4.65,4.65,0,1,1,4.65-4.65,4.65,4.65,0,0,1-4.65,4.65Z" transform="translate(254.93 81.48)" style="fill:none;stroke-miterlimit:10;stroke-width:0.37599998712539673px;stroke:url(#fp)"/><path d="M600.57,142.74a1.8,1.8,0,1,1-1.8-1.8h0A1.81,1.81,0,0,1,600.57,142.74Z" transform="translate(254.93 81.48)" style="fill:none;stroke-miterlimit:10;stroke-width:0.3499999940395355px;stroke:url(#fq)"/><path d="M94.82,343.77a2.61,2.61,0,1,0,2.61,2.61h0A2.61,2.61,0,0,0,94.82,343.77Z" transform="translate(254.93 81.48)" style="fill:url(#fr)"/><path d="M109.57,343.77a2.61,2.61,0,1,0,2.61,2.61h0a2.59,2.59,0,0,0-2.59-2.61Z" transform="translate(254.93 81.48)" style="fill:url(#fs)"/><path d="M124.33,343.77a2.61,2.61,0,1,0,2.61,2.61h0A2.61,2.61,0,0,0,124.33,343.77Z" transform="translate(254.93 81.48)" style="fill:url(#ft)"/><path d="M139.08,343.77a2.61,2.61,0,1,0,2.61,2.61h0a2.59,2.59,0,0,0-2.59-2.61Z" transform="translate(254.93 81.48)" style="fill:url(#fu)"/><path d="M153.84,343.77a2.61,2.61,0,1,0,2.61,2.61h0A2.61,2.61,0,0,0,153.84,343.77Z" transform="translate(254.93 81.48)" style="fill:url(#fv)"/><path d="M168.59,343.77a2.61,2.61,0,1,0,2.61,2.61h0A2.61,2.61,0,0,0,168.59,343.77Z" transform="translate(254.93 81.48)" style="fill:url(#fw)"/><path d="M183.35,343.77a2.61,2.61,0,1,0,2.61,2.61h0A2.61,2.61,0,0,0,183.35,343.77Z" transform="translate(254.93 81.48)" style="fill:url(#fx)"/><path d="M198.1,343.77a2.61,2.61,0,1,0,2.61,2.61h0A2.61,2.61,0,0,0,198.1,343.77Z" transform="translate(254.93 81.48)" style="fill:url(#fy)"/><path d="M212.86,343.77a2.61,2.61,0,1,0,2.61,2.61h0A2.61,2.61,0,0,0,212.86,343.77Z" transform="translate(254.93 81.48)" style="fill:url(#fz)"/><path d="M227.61,343.77a2.61,2.61,0,1,0,2.61,2.61h0A2.61,2.61,0,0,0,227.61,343.77Z" transform="translate(254.93 81.48)" style="fill:url(#ga)"/><path d="M242.37,343.77a2.61,2.61,0,1,0,2.61,2.61h0A2.61,2.61,0,0,0,242.37,343.77Z" transform="translate(254.93 81.48)" style="fill:url(#gb)"/><path d="M257.12,343.77a2.61,2.61,0,1,0,2.61,2.61h0A2.61,2.61,0,0,0,257.12,343.77Z" transform="translate(254.93 81.48)" style="fill:url(#gc)"/><path d="M271.88,343.77a2.61,2.61,0,1,0,2.61,2.61h0A2.61,2.61,0,0,0,271.88,343.77Z" transform="translate(254.93 81.48)" style="fill:url(#gd)"/><path d="M286.63,343.77a2.61,2.61,0,1,0,2.61,2.61h0A2.61,2.61,0,0,0,286.63,343.77Z" transform="translate(254.93 81.48)" style="fill:url(#ge)"/><path d="M301.39,349a2.61,2.61,0,1,0-2.61-2.61h0A2.61,2.61,0,0,0,301.39,349Z" transform="translate(254.93 81.48)" style="fill:url(#gf)"/><path d="M94.82,356.34a2.59,2.59,0,1,0,.05,0Z" transform="translate(254.93 81.48)" style="fill:url(#gg)"/><path d="M109.57,356.34a2.61,2.61,0,1,0,2.61,2.61h0a2.59,2.59,0,0,0-2.59-2.61Z" transform="translate(254.93 81.48)" style="fill:url(#gh)"/><path d="M124.33,356.34a2.61,2.61,0,1,0,2.61,2.61h0A2.61,2.61,0,0,0,124.33,356.34Z" transform="translate(254.93 81.48)" style="fill:url(#gi)"/><path d="M139.08,356.34a2.61,2.61,0,1,0,2.61,2.61h0a2.59,2.59,0,0,0-2.59-2.61Z" transform="translate(254.93 81.48)" style="fill:url(#gj)"/><path d="M153.84,356.34a2.61,2.61,0,1,0,2.61,2.61h0A2.61,2.61,0,0,0,153.84,356.34Z" transform="translate(254.93 81.48)" style="fill:url(#gk)"/><path d="M168.59,356.34A2.61,2.61,0,1,0,171.2,359a2.61,2.61,0,0,0-2.61-2.66Z" transform="translate(254.93 81.48)" style="fill:url(#gl)"/><path d="M183.35,356.34a2.61,2.61,0,1,0,.09,0Z" transform="translate(254.93 81.48)" style="fill:url(#gm)"/><path d="M198.1,356.34a2.61,2.61,0,1,0,2.61,2.61h0A2.61,2.61,0,0,0,198.1,356.34Z" transform="translate(254.93 81.48)" style="fill:url(#gn)"/><path d="M212.86,356.34a2.61,2.61,0,1,0,2.61,2.61h0A2.61,2.61,0,0,0,212.86,356.34Z" transform="translate(254.93 81.48)" style="fill:url(#go)"/><path d="M227.61,356.34a2.61,2.61,0,1,0,2.61,2.61h0A2.61,2.61,0,0,0,227.61,356.34Z" transform="translate(254.93 81.48)" style="fill:url(#gp)"/><path d="M242.37,356.34a2.6,2.6,0,1,0,.07,0Z" transform="translate(254.93 81.48)" style="fill:url(#gq)"/><path d="M257.12,356.34a2.61,2.61,0,1,0,2.61,2.61h0A2.61,2.61,0,0,0,257.12,356.34Z" transform="translate(254.93 81.48)" style="fill:url(#gr)"/><path d="M271.88,356.34a2.61,2.61,0,1,0,2.61,2.61h0A2.61,2.61,0,0,0,271.88,356.34Z" transform="translate(254.93 81.48)" style="fill:url(#gs)"/><path d="M286.63,356.34a2.61,2.61,0,1,0,2.61,2.61h0A2.61,2.61,0,0,0,286.63,356.34Z" transform="translate(254.93 81.48)" style="fill:url(#gt)"/><path d="M301.39,356.34a2.59,2.59,0,1,0,.05,0Z" transform="translate(254.93 81.48)" style="fill:url(#gu)"/><path d="M94.82,368.91a2.61,2.61,0,1,0,2.61,2.61h0A2.61,2.61,0,0,0,94.82,368.91Z" transform="translate(254.93 81.48)" style="fill:url(#gv)"/><path d="M109.57,368.91a2.61,2.61,0,1,0,2.61,2.61h0a2.59,2.59,0,0,0-2.59-2.61Z" transform="translate(254.93 81.48)" style="fill:url(#gw)"/><path d="M124.33,368.91a2.61,2.61,0,1,0,2.61,2.61h0A2.61,2.61,0,0,0,124.33,368.91Z" transform="translate(254.93 81.48)" style="fill:url(#gx)"/><path d="M139.08,368.91a2.61,2.61,0,1,0,2.61,2.61h0a2.59,2.59,0,0,0-2.59-2.61Z" transform="translate(254.93 81.48)" style="fill:url(#gy)"/><path d="M153.84,368.91a2.61,2.61,0,1,0,2.61,2.61h0A2.61,2.61,0,0,0,153.84,368.91Z" transform="translate(254.93 81.48)" style="fill:url(#gz)"/><path d="M168.59,368.91a2.61,2.61,0,1,0,2.61,2.61h0A2.61,2.61,0,0,0,168.59,368.91Z" transform="translate(254.93 81.48)" style="fill:url(#ha)"/><path d="M183.35,368.91a2.61,2.61,0,1,0,2.61,2.61h0A2.61,2.61,0,0,0,183.35,368.91Z" transform="translate(254.93 81.48)" style="fill:url(#hb)"/><path d="M198.1,368.91a2.61,2.61,0,1,0,2.61,2.61h0A2.61,2.61,0,0,0,198.1,368.91Z" transform="translate(254.93 81.48)" style="fill:url(#hc)"/><path d="M212.86,368.91a2.61,2.61,0,1,0,2.61,2.61h0A2.61,2.61,0,0,0,212.86,368.91Z" transform="translate(254.93 81.48)" style="fill:url(#hd)"/><path d="M227.61,368.91a2.61,2.61,0,1,0,2.61,2.61h0A2.61,2.61,0,0,0,227.61,368.91Z" transform="translate(254.93 81.48)" style="fill:url(#he)"/><path d="M242.37,368.91a2.61,2.61,0,1,0,2.61,2.61h0A2.61,2.61,0,0,0,242.37,368.91Z" transform="translate(254.93 81.48)" style="fill:url(#hf)"/><path d="M257.12,368.91a2.61,2.61,0,1,0,2.61,2.61h0A2.61,2.61,0,0,0,257.12,368.91Z" transform="translate(254.93 81.48)" style="fill:url(#hg)"/><path d="M271.88,368.91a2.61,2.61,0,1,0,2.61,2.61h0A2.61,2.61,0,0,0,271.88,368.91Z" transform="translate(254.93 81.48)" style="fill:url(#hh)"/><path d="M286.63,368.91a2.61,2.61,0,1,0,2.61,2.61h0A2.61,2.61,0,0,0,286.63,368.91Z" transform="translate(254.93 81.48)" style="fill:url(#hi)"/><path d="M301.39,368.91a2.61,2.61,0,1,0,2.61,2.61h0A2.61,2.61,0,0,0,301.39,368.91Z" transform="translate(254.93 81.48)" style="fill:url(#hj)"/><polygon points="926.61 302.25 925.24 300.88 922.71 303.4 920.19 300.88 918.81 302.25 921.34 304.77 918.81 307.3 920.19 308.67 922.71 306.15 925.24 308.67 926.61 307.3 924.09 304.77 926.61 302.25" style="fill:#f9f9f9"/><polygon points="925.24 317.2 922.71 319.72 920.19 317.2 918.81 318.57 921.34 321.1 918.81 323.62 920.19 325 922.71 322.47 925.24 325 926.61 323.62 924.09 321.1 926.61 318.57 925.24 317.2" style="fill:#f9f9f9"/><polygon points="925.24 333.52 922.71 336.05 920.19 333.52 918.81 334.9 921.34 337.42 918.81 339.94 920.19 341.32 922.71 338.8 925.24 341.32 926.61 339.94 924.09 337.42 926.61 334.9 925.24 333.52" style="fill:#f9f9f9"/><polygon points="925.24 349.85 922.71 352.37 920.19 349.85 918.81 351.22 921.34 353.75 918.81 356.27 920.19 357.65 922.71 355.12 925.24 357.65 926.61 356.27 924.09 353.75 926.61 351.22 925.24 349.85" style="fill:#f9f9f9"/><polygon points="912.65 317.2 910.13 319.72 907.61 317.2 906.23 318.57 908.76 321.1 906.23 323.62 907.61 325 910.13 322.47 912.65 325 914.03 323.62 911.51 321.1 914.03 318.57 912.65 317.2" style="fill:#f9f9f9"/><polygon points="912.65 333.52 910.13 336.05 907.61 333.52 906.23 334.9 908.76 337.42 906.23 339.94 907.61 341.32 910.13 338.8 912.65 341.32 914.03 339.94 911.51 337.42 914.03 334.9 912.65 333.52" style="fill:#f9f9f9"/><polygon points="912.65 349.85 910.13 352.37 907.61 349.85 906.23 351.22 908.76 353.75 906.23 356.27 907.61 357.65 910.13 355.12 912.65 357.65 914.03 356.27 911.51 353.75 914.03 351.22 912.65 349.85" style="fill:#f9f9f9"/><polygon points="912.65 366.17 910.13 368.69 907.61 366.17 906.23 367.55 908.76 370.07 906.23 372.59 907.61 373.97 910.13 371.45 912.65 373.97 914.03 372.59 911.51 370.07 914.03 367.55 912.65 366.17" style="fill:#f9f9f9"/><polygon points="899.54 333.52 897.02 336.05 894.5 333.52 893.12 334.9 895.64 337.42 893.12 339.95 894.5 341.32 897.02 338.8 899.54 341.32 900.92 339.95 898.4 337.42 900.92 334.9 899.54 333.52" style="fill:#f9f9f9"/><polygon points="899.54 349.85 897.02 352.37 894.5 349.85 893.12 351.22 895.64 353.75 893.12 356.27 894.5 357.65 897.02 355.12 899.54 357.65 900.92 356.27 898.4 353.75 900.92 351.22 899.54 349.85" style="fill:#f9f9f9"/><polygon points="899.54 366.17 897.02 368.69 894.5 366.17 893.12 367.55 895.64 370.07 893.12 372.59 894.5 373.97 897.02 371.45 899.54 373.97 900.92 372.59 898.4 370.07 900.92 367.55 899.54 366.17" style="fill:#f9f9f9"/><polygon points="899.54 382.5 897.02 385.02 894.5 382.5 893.12 383.87 895.64 386.4 893.12 388.92 894.5 390.3 897.02 387.77 899.54 390.3 900.92 388.92 898.4 386.4 900.92 383.87 899.54 382.5" style="fill:#f9f9f9"/><path d="M90.64,83.35c9.18,0,9.18,10,18.36,10s9.17-10,18.35-10,9.18,10,18.35,10,9.18-10,18.35-10,9.18,10,18.36,10,9.17-10,18.35-10,9.18,10,18.35,10,9.18-10,18.36-10,9.18,10,18.36,10,9.18-10,18.36-10,9.18,10,18.36,10" transform="translate(254.93 81.48)" style="fill:none;stroke:#f9f9f9;stroke-miterlimit:10;stroke-width:0.5px"/><path d="M90.64,67.94c9.18,0,9.18,10,18.36,10s9.17-10,18.35-10,9.18,10,18.35,10,9.18-10,18.35-10,9.18,10,18.36,10,9.18-10,18.35-10,9.18,10,18.35,10,9.18-10,18.36-10,9.18,10,18.36,10,9.18-10,18.36-10,9.18,10,18.36,10" transform="translate(254.93 81.48)" style="fill:none;stroke:#f9f9f9;stroke-miterlimit:10;stroke-width:0.5px"/><path d="M414.22,360c7.95,0,7.95,10,15.89,10s7.95-10,15.9-10,7.95,10,15.89,10,8-10,15.9-10,7.95,10,15.9,10,7.95-10,15.9-10,7.94,10,15.89,10,8-10,15.9-10,8,10,15.9,10,8-10,15.9-10,8,10,15.91,10" transform="translate(254.93 81.48)" style="fill:none;stroke:#f9f9f9;stroke-miterlimit:10;stroke-width:2px"/><path d="M414.22,346.7c7.95,0,7.95,10,15.89,10s7.95-10,15.9-10,7.95,10,15.89,10,8-10,15.9-10,7.95,10,15.9,10,7.95-10,15.9-10,7.94,10,15.89,10,8-10,15.9-10,8,10,15.9,10,8-10,15.9-10,8,10,15.91,10" transform="translate(254.93 81.48)" style="fill:none;stroke:#f9f9f9;stroke-miterlimit:10;stroke-width:2px"/><rect x="792.13" y="424" width="134.48" height="32.85" style="fill:none"/><g style="clip-path:url(#hk)"><line x1="509.88" y1="263.9" x2="773.43" y2="0.35" style="fill:none;stroke:#f9f9f9;stroke-miterlimit:10"/><line x1="509.88" y1="277.42" x2="773.43" y2="13.88" style="fill:none;stroke:#f9f9f9;stroke-miterlimit:10"/><line x1="509.88" y1="290.95" x2="773.43" y2="27.4" style="fill:none;stroke:#f9f9f9;stroke-miterlimit:10"/><line x1="509.88" y1="304.47" x2="773.43" y2="40.93" style="fill:none;stroke:#f9f9f9;stroke-miterlimit:10"/><line x1="509.88" y1="318" x2="773.43" y2="54.45" style="fill:none;stroke:#f9f9f9;stroke-miterlimit:10"/><line x1="509.88" y1="331.52" x2="773.43" y2="67.98" style="fill:none;stroke:#f9f9f9;stroke-miterlimit:10"/><line x1="509.88" y1="345.05" x2="773.43" y2="81.5" style="fill:none;stroke:#f9f9f9;stroke-miterlimit:10"/><line x1="509.88" y1="358.57" x2="773.43" y2="95.02" style="fill:none;stroke:#f9f9f9;stroke-miterlimit:10"/><line x1="509.88" y1="372.09" x2="773.43" y2="108.55" style="fill:none;stroke:#f9f9f9;stroke-miterlimit:10"/><line x1="509.88" y1="385.62" x2="773.43" y2="122.07" style="fill:none;stroke:#f9f9f9;stroke-miterlimit:10"/><line x1="509.88" y1="399.14" x2="773.43" y2="135.6" style="fill:none;stroke:#f9f9f9;stroke-miterlimit:10"/><line x1="509.88" y1="412.67" x2="773.43" y2="149.12" style="fill:none;stroke:#f9f9f9;stroke-miterlimit:10"/><line x1="509.88" y1="426.19" x2="773.43" y2="162.65" style="fill:none;stroke:#f9f9f9;stroke-miterlimit:10"/><line x1="509.88" y1="439.72" x2="773.43" y2="176.17" style="fill:none;stroke:#f9f9f9;stroke-miterlimit:10"/><line x1="509.88" y1="453.24" x2="773.43" y2="189.7" style="fill:none;stroke:#f9f9f9;stroke-miterlimit:10"/><line x1="509.88" y1="466.77" x2="773.43" y2="203.22" style="fill:none;stroke:#f9f9f9;stroke-miterlimit:10"/><line x1="509.88" y1="480.29" x2="773.43" y2="216.74" style="fill:none;stroke:#f9f9f9;stroke-miterlimit:10"/><line x1="509.88" y1="493.81" x2="773.43" y2="230.27" style="fill:none;stroke:#f9f9f9;stroke-miterlimit:10"/><line x1="509.88" y1="507.34" x2="773.43" y2="243.79" style="fill:none;stroke:#f9f9f9;stroke-miterlimit:10"/><line x1="509.88" y1="520.86" x2="773.43" y2="257.32" style="fill:none;stroke:#f9f9f9;stroke-miterlimit:10"/><line x1="509.88" y1="534.39" x2="773.43" y2="270.84" style="fill:none;stroke:#f9f9f9;stroke-miterlimit:10"/><line x1="509.88" y1="547.91" x2="773.43" y2="284.37" style="fill:none;stroke:#f9f9f9;stroke-miterlimit:10"/><line x1="509.88" y1="561.44" x2="773.43" y2="297.89" style="fill:none;stroke:#f9f9f9;stroke-miterlimit:10"/><line x1="509.88" y1="574.96" x2="773.43" y2="311.41" style="fill:none;stroke:#f9f9f9;stroke-miterlimit:10"/><line x1="509.88" y1="588.48" x2="773.43" y2="324.94" style="fill:none;stroke:#f9f9f9;stroke-miterlimit:10"/></g><path d="M578.83,277l-12-12-.22.21,12,12Z" transform="translate(254.93 81.48)" style="fill:#f9f9f9"/><path d="M580.16,276,570.64,262l-.25.17,9.52,14.05Z" transform="translate(254.93 81.48)" style="fill:#f9f9f9"/><path d="M576.07,283.51v-.15h-17v.31h17Z" transform="translate(254.93 81.48)" style="fill:#f9f9f9"/><path d="M583.76,274.58,581,257.84l-.3.05,2.81,16.74Z" transform="translate(254.93 81.48)" style="fill:#f9f9f9"/><path d="M582.1,275l-5.92-15.9-.29.1,5.92,15.91Z" transform="translate(254.93 81.48)" style="fill:#f9f9f9"/><path d="M577.84,278.15,564,268.3l-.18.25,13.83,9.85Z" transform="translate(254.93 81.48)" style="fill:#f9f9f9"/><path d="M576.26,281.66l-16.67-3.21-.06.31L576.2,282Z" transform="translate(254.93 81.48)" style="fill:#f9f9f9"/><path d="M577,279.62l-15.43-7.07-.13.28,15.44,7.07Z" transform="translate(254.93 81.48)" style="fill:#f9f9f9"/><path d="M585.1,274.48h.16v-17H585v17Z" transform="translate(254.93 81.48)" style="fill:#f9f9f9"/><path d="M593.62,280.51l15.91-5.92-.11-.29-15.9,5.92C593.55,280.32,593.59,280.41,593.62,280.51Z" transform="translate(254.93 81.48)" style="fill:#f9f9f9"/><path d="M594,282.17l16.74-2.81v-.3L594,281.87Z" transform="translate(254.93 81.48)" style="fill:#f9f9f9"/><path d="M592.67,278.58l14.05-9.52-.17-.26-14.06,9.52Z" transform="translate(254.93 81.48)" style="fill:#f9f9f9"/><path d="M591.6,277.24l12-12-.22-.21-12,12Z" transform="translate(254.93 81.48)" style="fill:#f9f9f9"/><path d="M589,275.36l7.06-15.43-.28-.13-7.06,15.44Z" transform="translate(254.93 81.48)" style="fill:#f9f9f9"/><path d="M590.47,276.25l9.85-13.83-.25-.17-9.85,13.82Z" transform="translate(254.93 81.48)" style="fill:#f9f9f9"/><path d="M587,274.67,590.2,258l-.3-.05-3.2,16.67Z" transform="translate(254.93 81.48)" style="fill:#f9f9f9"/><path d="M594,285.37l16.66,3.21.06-.31L594,285.07Z" transform="translate(254.93 81.48)" style="fill:#f9f9f9"/><path d="M590,291.08l9.52,14.05.26-.17-9.52-14Z" transform="translate(254.93 81.48)" style="fill:#f9f9f9"/><path d="M576.17,284.86l-16.74,2.81.05.3,16.74-2.81A1.86,1.86,0,0,1,576.17,284.86Z" transform="translate(254.93 81.48)" style="fill:#f9f9f9"/><path d="M588.11,292,594,307.94l.29-.1-5.92-15.91Z" transform="translate(254.93 81.48)" style="fill:#f9f9f9"/><path d="M586.45,292.45l2.81,16.74.3-.05-2.81-16.74Z" transform="translate(254.93 81.48)" style="fill:#f9f9f9"/><path d="M594.13,283.36v.31h17v-.31Z" transform="translate(254.93 81.48)" style="fill:#f9f9f9"/><path d="M592.37,288.88l13.82,9.85.18-.25-13.82-9.85Z" transform="translate(254.93 81.48)" style="fill:#f9f9f9"/><path d="M593.25,287.41l15.44,7.07.13-.28-15.44-7.07A2.39,2.39,0,0,1,593.25,287.41Z" transform="translate(254.93 81.48)" style="fill:#f9f9f9"/><path d="M591.38,290l12,12,.22-.21-12-12Z" transform="translate(254.93 81.48)" style="fill:#f9f9f9"/><path d="M577.54,288.45l-14,9.52.17.26,14-9.52Z" transform="translate(254.93 81.48)" style="fill:#f9f9f9"/><path d="M578.61,289.79l-12,12,.22.21,12-12Z" transform="translate(254.93 81.48)" style="fill:#f9f9f9"/><path d="M576.58,286.52l-15.9,5.92.1.29,15.91-5.92Z" transform="translate(254.93 81.48)" style="fill:#f9f9f9"/><path d="M579.74,290.78l-9.85,13.83.25.17L580,291Z" transform="translate(254.93 81.48)" style="fill:#f9f9f9"/><path d="M583.25,292.36,580,309l.3.05,3.21-16.67Z" transform="translate(254.93 81.48)" style="fill:#f9f9f9"/><path d="M581.2,291.67l-7.06,15.43.28.13,7.06-15.44Z" transform="translate(254.93 81.48)" style="fill:#f9f9f9"/><path d="M585.1,292.55H585v17h.31v-17Z" transform="translate(254.93 81.48)" style="fill:#f9f9f9"/><path d="M92.14,312.84a1.07,1.07,0,1,0-1.08-1.07,1.07,1.07,0,0,0,1.08,1.07Z" transform="translate(254.93 81.48)" style="fill:#e9edf4"/><path d="M91.06,302.12a1.08,1.08,0,1,0,1.09-1.07h0a1.07,1.07,0,0,0-1.08,1.06Z" transform="translate(254.93 81.48)" style="fill:#e9edf4"/><path d="M92.14,291.4a1.08,1.08,0,1,0,1.07,1.09v0a1.07,1.07,0,0,0-1.07-1.07Z" transform="translate(254.93 81.48)" style="fill:#e9edf4"/><path d="M92.14,283.9a1.08,1.08,0,1,0-1.08-1.08h0a1.07,1.07,0,0,0,1.07,1.07Z" transform="translate(254.93 81.48)" style="fill:#e9edf4"/><path d="M92.14,274.25a1.07,1.07,0,1,0-1.08-1.07,1.07,1.07,0,0,0,1.08,1.07Z" transform="translate(254.93 81.48)" style="fill:#e9edf4"/><path d="M92.14,262.46a1.07,1.07,0,1,0,1.07,1.07,1.07,1.07,0,0,0-1.07-1.07Z" transform="translate(254.93 81.48)" style="fill:#e9edf4"/><path d="M92.14,255a1.07,1.07,0,1,0-1.08-1.07A1.07,1.07,0,0,0,92.14,255Z" transform="translate(254.93 81.48)" style="fill:#e9edf4"/><path d="M92.14,245.31a1.08,1.08,0,1,0-1.08-1.08,1.08,1.08,0,0,0,1.08,1.08Z" transform="translate(254.93 81.48)" style="fill:#e9edf4"/><path d="M92.14,235.66a1.07,1.07,0,1,0-1.08-1.07,1.07,1.07,0,0,0,1.08,1.07Z" transform="translate(254.93 81.48)" style="fill:#e9edf4"/><path d="M92.14,226a1.07,1.07,0,1,0-1.08-1.07A1.07,1.07,0,0,0,92.14,226Z" transform="translate(254.93 81.48)" style="fill:#e9edf4"/><circle cx="355.8" cy="393.25" r="1.07" style="fill:#e9edf4"/><circle cx="355.79" cy="383.6" r="1.07" style="fill:#e9edf4"/><path d="M100.86,293.55a1.08,1.08,0,1,0-1.08-1.08h0a1.07,1.07,0,0,0,1.06,1.08Z" transform="translate(254.93 81.48)" style="fill:#e9edf4"/><path d="M100.86,283.9a1.08,1.08,0,1,0-1.08-1.08h0a1.07,1.07,0,0,0,1.07,1.07Z" transform="translate(254.93 81.48)" style="fill:#e9edf4"/><path d="M99.78,273.18a1.08,1.08,0,1,0,1.09-1.07h0a1.07,1.07,0,0,0-1.08,1.06Z" transform="translate(254.93 81.48)" style="fill:#e9edf4"/><path d="M100.86,262.46a1.07,1.07,0,1,0,1.07,1.07,1.07,1.07,0,0,0-1.07-1.07Z" transform="translate(254.93 81.48)" style="fill:#e9edf4"/><path d="M100.86,252.81a1.07,1.07,0,1,0,1.07,1.07,1.07,1.07,0,0,0-1.07-1.07Z" transform="translate(254.93 81.48)" style="fill:#e9edf4"/><path d="M100.86,245.31a1.08,1.08,0,1,0-1.08-1.08,1.08,1.08,0,0,0,1.08,1.08Z" transform="translate(254.93 81.48)" style="fill:#e9edf4"/><path d="M100.86,235.66a1.07,1.07,0,1,0-1.08-1.07,1.07,1.07,0,0,0,1.08,1.07Z" transform="translate(254.93 81.48)" style="fill:#e9edf4"/><path d="M100.86,226a1.07,1.07,0,1,0-1.08-1.07,1.07,1.07,0,0,0,1.08,1.07Z" transform="translate(254.93 81.48)" style="fill:#e9edf4"/><path d="M109.57,312.84a1.07,1.07,0,1,0-1.07-1.07,1.07,1.07,0,0,0,1.07,1.07Z" transform="translate(254.93 81.48)" style="fill:#e9edf4"/><path d="M109.57,303.19a1.07,1.07,0,1,0-1.07-1.07,1.07,1.07,0,0,0,1.07,1.07Z" transform="translate(254.93 81.48)" style="fill:#e9edf4"/><path d="M109.57,291.4a1.08,1.08,0,1,0,1.08,1.08h0a1.07,1.07,0,0,0-1.07-1.07Z" transform="translate(254.93 81.48)" style="fill:#e9edf4"/><path d="M109.57,281.75a1.08,1.08,0,1,0,1.08,1.08h0a1.07,1.07,0,0,0-1.06-1.08Z" transform="translate(254.93 81.48)" style="fill:#e9edf4"/><path d="M109.57,274.25a1.07,1.07,0,1,0-1.07-1.07,1.07,1.07,0,0,0,1.07,1.07Z" transform="translate(254.93 81.48)" style="fill:#e9edf4"/><path d="M109.57,264.6a1.07,1.07,0,1,0-1.07-1.07,1.07,1.07,0,0,0,1.07,1.07Z" transform="translate(254.93 81.48)" style="fill:#e9edf4"/><path d="M109.57,255a1.07,1.07,0,1,0-1.07-1.07,1.07,1.07,0,0,0,1.07,1.07Z" transform="translate(254.93 81.48)" style="fill:#e9edf4"/><path d="M109.57,245.31a1.08,1.08,0,1,0-1.07-1.09h0A1.09,1.09,0,0,0,109.57,245.31Z" transform="translate(254.93 81.48)" style="fill:#e9edf4"/><path d="M109.57,235.66a1.07,1.07,0,1,0-1.07-1.07,1.07,1.07,0,0,0,1.07,1.07Z" transform="translate(254.93 81.48)" style="fill:#e9edf4"/><path d="M109.57,226a1.07,1.07,0,1,0-1.07-1.07,1.07,1.07,0,0,0,1.07,1.07Z" transform="translate(254.93 81.48)" style="fill:#e9edf4"/><path d="M118.29,312.84a1.07,1.07,0,1,0-1.07-1.07,1.05,1.05,0,0,0,1,1.07Z" transform="translate(254.93 81.48)" style="fill:#e9edf4"/><path d="M118.29,303.19a1.07,1.07,0,1,0-1.07-1.07,1.07,1.07,0,0,0,1.07,1.07Z" transform="translate(254.93 81.48)" style="fill:#e9edf4"/><path d="M118.29,293.55a1.08,1.08,0,1,0-1.07-1.09h0a1.07,1.07,0,0,0,1.06,1.08Z" transform="translate(254.93 81.48)" style="fill:#e9edf4"/><path d="M118.29,283.9a1.08,1.08,0,1,0-1.07-1.09v0a1.07,1.07,0,0,0,1.07,1.07Z" transform="translate(254.93 81.48)" style="fill:#e9edf4"/><path d="M118.29,274.25a1.07,1.07,0,1,0-1.07-1.07,1.07,1.07,0,0,0,1.07,1.07Z" transform="translate(254.93 81.48)" style="fill:#e9edf4"/><path d="M118.29,264.6a1.07,1.07,0,1,0-1.07-1.07,1.07,1.07,0,0,0,1.07,1.07Z" transform="translate(254.93 81.48)" style="fill:#e9edf4"/><path d="M118.29,255a1.07,1.07,0,1,0-1.07-1.07,1.07,1.07,0,0,0,1.07,1.07Z" transform="translate(254.93 81.48)" style="fill:#e9edf4"/><path d="M118.29,245.31a1.08,1.08,0,1,0-1.07-1.09h0a1.07,1.07,0,0,0,1.06,1.08Z" transform="translate(254.93 81.48)" style="fill:#e9edf4"/><path d="M118.29,235.66a1.07,1.07,0,1,0-1.07-1.07,1.05,1.05,0,0,0,1,1.07Z" transform="translate(254.93 81.48)" style="fill:#e9edf4"/><path d="M118.29,226a1.07,1.07,0,1,0-1.07-1.07,1.07,1.07,0,0,0,1.07,1.07Z" transform="translate(254.93 81.48)" style="fill:#e9edf4"/><path d="M127,310.7a1.07,1.07,0,1,0,1.07,1.07A1.07,1.07,0,0,0,127,310.7Z" transform="translate(254.93 81.48)" style="fill:#e9edf4"/><path d="M127,301.05a1.07,1.07,0,1,0,1.07,1.07,1.07,1.07,0,0,0-1.07-1.07Z" transform="translate(254.93 81.48)" style="fill:#e9edf4"/><path d="M125.94,292.47A1.07,1.07,0,1,0,127,291.4h0A1.07,1.07,0,0,0,125.94,292.47Z" transform="translate(254.93 81.48)" style="fill:#e9edf4"/><path d="M127,283.9a1.08,1.08,0,1,0-1.07-1.09v0A1.07,1.07,0,0,0,127,283.9Z" transform="translate(254.93 81.48)" style="fill:#e9edf4"/><path d="M128.08,273.18a1.07,1.07,0,1,0-1.07,1.07,1.07,1.07,0,0,0,1.07-1.07Z" transform="translate(254.93 81.48)" style="fill:#e9edf4"/><path d="M127,264.6a1.07,1.07,0,1,0-1.07-1.07A1.07,1.07,0,0,0,127,264.6Z" transform="translate(254.93 81.48)" style="fill:#e9edf4"/><path d="M127,255a1.07,1.07,0,1,0-1.07-1.07A1.07,1.07,0,0,0,127,255Z" transform="translate(254.93 81.48)" style="fill:#e9edf4"/><path d="M127,245.31a1.08,1.08,0,1,0-1.07-1.09h0a1.07,1.07,0,0,0,1.06,1.08Z" transform="translate(254.93 81.48)" style="fill:#e9edf4"/><path d="M127,233.52a1.07,1.07,0,1,0,1.07,1.07,1.07,1.07,0,0,0-1.07-1.07Z" transform="translate(254.93 81.48)" style="fill:#e9edf4"/><path d="M127,226a1.07,1.07,0,1,0-1.07-1.07A1.07,1.07,0,0,0,127,226Z" transform="translate(254.93 81.48)" style="fill:#e9edf4"/><path d="M92.14,130.38a1.07,1.07,0,1,0-1.08-1.07,1.07,1.07,0,0,0,1.08,1.07Z" transform="translate(254.93 81.48)" style="fill:#e9edf4"/><path d="M92.14,120.74a1.08,1.08,0,1,0-1.08-1.08,1.08,1.08,0,0,0,1.08,1.08Z" transform="translate(254.93 81.48)" style="fill:#e9edf4"/><path d="M100.86,140a1.07,1.07,0,0,0,0-2.14,1.06,1.06,0,0,0-1.06,1.08V139A1.07,1.07,0,0,0,100.86,140Z" transform="translate(254.93 81.48)" style="fill:#e9edf4"/><path d="M100.86,130.38a1.07,1.07,0,1,0-1.08-1.07,1.07,1.07,0,0,0,1.08,1.07Z" transform="translate(254.93 81.48)" style="fill:#e9edf4"/><path d="M100.86,120.74a1.08,1.08,0,1,0-1.08-1.08,1.08,1.08,0,0,0,1.08,1.08Z" transform="translate(254.93 81.48)" style="fill:#e9edf4"/><path d="M109.57,147.53a1.08,1.08,0,1,0,1.08,1.08,1.08,1.08,0,0,0-1.08-1.08Z" transform="translate(254.93 81.48)" style="fill:#e9edf4"/><path d="M109.57,137.89a1.07,1.07,0,1,0,1.08,1.07,1.07,1.07,0,0,0-1.08-1.07Z" transform="translate(254.93 81.48)" style="fill:#e9edf4"/><path d="M109.57,130.38a1.07,1.07,0,1,0-1.07-1.07,1.07,1.07,0,0,0,1.07,1.07Z" transform="translate(254.93 81.48)" style="fill:#e9edf4"/><path d="M110.65,119.66a1.08,1.08,0,1,0-1.08,1.08,1.08,1.08,0,0,0,1.08-1.08Z" transform="translate(254.93 81.48)" style="fill:#e9edf4"/><path d="M118.29,157.18a1.08,1.08,0,1,0,1.07,1.09v0a1.07,1.07,0,0,0-1.07-1.07Z" transform="translate(254.93 81.48)" style="fill:#e9edf4"/><path d="M118.29,147.53a1.08,1.08,0,1,0,1.07,1.09h0a1.07,1.07,0,0,0-1.06-1.08Z" transform="translate(254.93 81.48)" style="fill:#e9edf4"/><path d="M118.29,140a1.07,1.07,0,1,0-1.07-1.07,1.05,1.05,0,0,0,1,1.07Z" transform="translate(254.93 81.48)" style="fill:#e9edf4"/><path d="M118.29,130.38a1.07,1.07,0,1,0-1.07-1.07,1.07,1.07,0,0,0,1.07,1.07Z" transform="translate(254.93 81.48)" style="fill:#e9edf4"/><path d="M118.29,120.74a1.08,1.08,0,1,0-1.07-1.09h0a1.07,1.07,0,0,0,1.06,1.08Z" transform="translate(254.93 81.48)" style="fill:#e9edf4"/><path d="M127,169a1.07,1.07,0,1,0-1.07-1.07A1.07,1.07,0,0,0,127,169Z" transform="translate(254.93 81.48)" style="fill:#e9edf4"/><path d="M127,159.33a1.08,1.08,0,1,0-1.07-1.09h0a1.07,1.07,0,0,0,1.06,1.08Z" transform="translate(254.93 81.48)" style="fill:#e9edf4"/><path d="M127,147.53a1.08,1.08,0,1,0,1.07,1.09h0a1.07,1.07,0,0,0-1.06-1.08Z" transform="translate(254.93 81.48)" style="fill:#e9edf4"/><path d="M127,137.89a1.07,1.07,0,1,0,1.07,1.07,1.07,1.07,0,0,0-1.07-1.07Z" transform="translate(254.93 81.48)" style="fill:#e9edf4"/><path d="M92.14,215.06a1.08,1.08,0,1,0,1.07,1.09h0A1.09,1.09,0,0,0,92.14,215.06Z" transform="translate(254.93 81.48)" style="fill:#e9edf4"/><path d="M92.14,205.42a1.07,1.07,0,1,0,1.07,1.07,1.07,1.07,0,0,0-1.07-1.07Z" transform="translate(254.93 81.48)" style="fill:#e9edf4"/><path d="M92.14,195.77a1.07,1.07,0,1,0,1.07,1.07,1.07,1.07,0,0,0-1.07-1.07Z" transform="translate(254.93 81.48)" style="fill:#e9edf4"/><path d="M92.14,186.12a1.07,1.07,0,1,0,1.07,1.07,1.07,1.07,0,0,0-1.07-1.07Z" transform="translate(254.93 81.48)" style="fill:#e9edf4"/><path d="M92.14,176.47a1.07,1.07,0,0,0-1.08,1.06h0a1.08,1.08,0,0,0,2.15,0h0a1.07,1.07,0,0,0-1.07-1.07Z" transform="translate(254.93 81.48)" style="fill:#e9edf4"/><path d="M92.14,169a1.07,1.07,0,0,0,1.07-1.07h0a1.08,1.08,0,0,0-2.15-.21.74.74,0,0,0,0,.21h0A1.07,1.07,0,0,0,92.13,169Z" transform="translate(254.93 81.48)" style="fill:#e9edf4"/><path d="M92.14,159.33a1.07,1.07,0,0,0,1.07-1.07h0a1.08,1.08,0,0,0-2.15,0h0a1.08,1.08,0,0,0,1.08,1.08Z" transform="translate(254.93 81.48)" style="fill:#e9edf4"/><path d="M92.14,149.68a1.07,1.07,0,0,0,1.07-1.07h0a1.08,1.08,0,0,0-2.15,0h0a1.07,1.07,0,0,0,1.07,1.07Z" transform="translate(254.93 81.48)" style="fill:#e9edf4"/><path d="M92.14,140a1.08,1.08,0,0,0,1.07-1h0a1.08,1.08,0,0,0-2.15,0h0A1.07,1.07,0,0,0,92.14,140Z" transform="translate(254.93 81.48)" style="fill:#e9edf4"/><path d="M100.86,217.21a1.08,1.08,0,1,0-1.08-1.08h0a1.07,1.07,0,0,0,1.07,1.07Z" transform="translate(254.93 81.48)" style="fill:#e9edf4"/><path d="M100.86,205.42a1.07,1.07,0,1,0,1.07,1.07,1.07,1.07,0,0,0-1.07-1.07Z" transform="translate(254.93 81.48)" style="fill:#e9edf4"/><path d="M100.86,197.91a1.07,1.07,0,1,0-1.08-1.07,1.07,1.07,0,0,0,1.08,1.07Z" transform="translate(254.93 81.48)" style="fill:#e9edf4"/><path d="M100.86,188.26a1.07,1.07,0,1,0-1.08-1.07,1.07,1.07,0,0,0,1.08,1.07Z" transform="translate(254.93 81.48)" style="fill:#e9edf4"/><path d="M100.86,178.62a1.07,1.07,0,0,0,1.07-1.07h0a1.08,1.08,0,0,0-2.15,0h0a1.07,1.07,0,0,0,1.07,1.07Z" transform="translate(254.93 81.48)" style="fill:#e9edf4"/><path d="M100.86,169a1.07,1.07,0,0,0,1.07-1.07h0a1.08,1.08,0,0,0-2.15-.21.74.74,0,0,0,0,.21h0a1.07,1.07,0,0,0,1.07,1.07Z" transform="translate(254.93 81.48)" style="fill:#e9edf4"/><path d="M100.86,159.33a1.07,1.07,0,0,0,1.07-1.07h0a1.08,1.08,0,0,0-2.15,0h0a1.08,1.08,0,0,0,1.08,1.08Z" transform="translate(254.93 81.48)" style="fill:#e9edf4"/><path d="M100.86,149.68a1.07,1.07,0,0,0,1.07-1.07h0a1.08,1.08,0,0,0-2.15,0h0a1.07,1.07,0,0,0,1.07,1.07Z" transform="translate(254.93 81.48)" style="fill:#e9edf4"/><path d="M109.57,215.06a1.08,1.08,0,1,0,1.08,1.08,1.08,1.08,0,0,0-1.08-1.08Z" transform="translate(254.93 81.48)" style="fill:#e9edf4"/><path d="M109.57,207.56a1.07,1.07,0,1,0-1.07-1.07,1.07,1.07,0,0,0,1.07,1.07Z" transform="translate(254.93 81.48)" style="fill:#e9edf4"/><path d="M109.57,195.77a1.07,1.07,0,1,0,1.08,1.07,1.07,1.07,0,0,0-1.08-1.07Z" transform="translate(254.93 81.48)" style="fill:#e9edf4"/><path d="M109.57,188.26a1.07,1.07,0,1,0-1.07-1.07,1.07,1.07,0,0,0,1.07,1.07Z" transform="translate(254.93 81.48)" style="fill:#e9edf4"/><path d="M109.57,178.62a1.07,1.07,0,0,0,1.08-1.06h0a1.08,1.08,0,0,0-2.15,0h0a1.07,1.07,0,0,0,1.07,1.07Z" transform="translate(254.93 81.48)" style="fill:#e9edf4"/><path d="M109.57,169a1.07,1.07,0,0,0,1.08-1.06h0a1.08,1.08,0,0,0-2.15-.21.74.74,0,0,0,0,.21h0a1.07,1.07,0,0,0,1.07,1.07Z" transform="translate(254.93 81.48)" style="fill:#e9edf4"/><path d="M109.57,159.33a1.08,1.08,0,0,0,1.08-1.08h0a1.08,1.08,0,0,0-2.15,0h0a1.07,1.07,0,0,0,1.06,1.08Z" transform="translate(254.93 81.48)" style="fill:#e9edf4"/><path d="M118.29,215.06a1.08,1.08,0,1,0,1.07,1.09h0a1.07,1.07,0,0,0-1.06-1.08Z" transform="translate(254.93 81.48)" style="fill:#e9edf4"/><path d="M118.29,205.42a1.07,1.07,0,1,0,1.07,1.07,1.07,1.07,0,0,0-1.07-1.07Z" transform="translate(254.93 81.48)" style="fill:#e9edf4"/><path d="M118.29,197.91a1.07,1.07,0,1,0-1.07-1.07,1.07,1.07,0,0,0,1.07,1.07Z" transform="translate(254.93 81.48)" style="fill:#e9edf4"/><path d="M118.29,188.26a1.07,1.07,0,1,0-1.07-1.07,1.07,1.07,0,0,0,1.07,1.07Z" transform="translate(254.93 81.48)" style="fill:#e9edf4"/><path d="M119.36,177.54a1.07,1.07,0,0,0-2.14,0h0a1.07,1.07,0,0,0,2.14,0Z" transform="translate(254.93 81.48)" style="fill:#e9edf4"/><path d="M118.29,169a1.07,1.07,0,0,0,1.07-1.07h0a1.07,1.07,0,0,0-2.14,0h0a1.07,1.07,0,0,0,1.07,1.07Z" transform="translate(254.93 81.48)" style="fill:#e9edf4"/><path d="M127,215.06a1.08,1.08,0,1,0,1.07,1.09h0a1.07,1.07,0,0,0-1.06-1.08Z" transform="translate(254.93 81.48)" style="fill:#e9edf4"/><path d="M127,207.56a1.07,1.07,0,1,0-1.07-1.07,1.07,1.07,0,0,0,1.07,1.07Z" transform="translate(254.93 81.48)" style="fill:#e9edf4"/><path d="M127,197.91a1.07,1.07,0,1,0-1.07-1.07,1.07,1.07,0,0,0,1.07,1.07Z" transform="translate(254.93 81.48)" style="fill:#e9edf4"/><path d="M127,188.26a1.07,1.07,0,1,0-1.07-1.07,1.07,1.07,0,0,0,1.07,1.07Z" transform="translate(254.93 81.48)" style="fill:#e9edf4"/><path d="M125.94,177.55a1.07,1.07,0,1,0,2.14,0h0a1.07,1.07,0,1,0-2.14,0Z" transform="translate(254.93 81.48)" style="fill:#e9edf4"/><path d="M127,128.24a1.07,1.07,0,1,0,1.07,1.07,1.07,1.07,0,0,0-1.07-1.07Z" transform="translate(254.93 81.48)" style="fill:#e9edf4"/><path d="M127,120.74a1.08,1.08,0,1,0-1.07-1.09h0a1.07,1.07,0,0,0,1.06,1.08Z" transform="translate(254.93 81.48)" style="fill:#e9edf4"/></svg>