<svg xmlns="http://www.w3.org/2000/svg" xmlns:xlink="http://www.w3.org/1999/xlink" width="1273.15" height="588.84" viewBox="0 0 1273.15 588.84"><defs><clipPath id="a" transform="translate(7.9 16.93)"/><linearGradient id="b" x1="318.48" y1="541.91" x2="318.48" y2="889.08" gradientTransform="matrix(0.99, 0.13, 0.14, -1.13, 119.01, 923.78)" gradientUnits="userSpaceOnUse"><stop offset="0.21" stop-color="#39a5ba"/><stop offset="0.25" stop-color="#3aaab2"/><stop offset="0.32" stop-color="#3cb99c"/><stop offset="0.41" stop-color="#40d179"/><stop offset="0.46" stop-color="#43e062"/><stop offset="1" stop-color="#43e062"/></linearGradient><linearGradient id="c" x1="321.9" y1="541.97" x2="321.9" y2="889.06" xlink:href="#b"/><linearGradient id="d" x1="325.33" y1="541.95" x2="325.33" y2="889.05" xlink:href="#b"/><linearGradient id="e" x1="328.76" y1="541.84" x2="328.76" y2="889.02" xlink:href="#b"/><linearGradient id="f" x1="332.18" y1="541.67" x2="332.18" y2="888.99" xlink:href="#b"/><linearGradient id="g" x1="335.61" y1="541.42" x2="335.61" y2="888.97" xlink:href="#b"/><linearGradient id="h" x1="339.04" y1="541.12" x2="339.04" y2="888.98" xlink:href="#b"/><linearGradient id="i" x1="342.45" y1="540.75" x2="342.45" y2="888.97" xlink:href="#b"/><linearGradient id="j" x1="345.9" y1="540.32" x2="345.9" y2="888.96" xlink:href="#b"/><linearGradient id="k" x1="349.33" y1="539.84" x2="349.33" y2="888.93" xlink:href="#b"/><linearGradient id="l" x1="352.76" y1="539.3" x2="352.76" y2="888.93" xlink:href="#b"/><linearGradient id="m" x1="356.19" y1="538.72" x2="356.19" y2="888.89" xlink:href="#b"/><linearGradient id="n" x1="359.63" y1="538.09" x2="359.63" y2="888.95" xlink:href="#b"/><linearGradient id="o" x1="363.07" y1="537.42" x2="363.07" y2="888.92" xlink:href="#b"/><linearGradient id="p" x1="366.51" y1="536.7" x2="366.51" y2="888.88" xlink:href="#b"/><linearGradient id="q" x1="369.93" y1="535.94" x2="369.93" y2="888.9" xlink:href="#b"/><linearGradient id="r" x1="373.38" y1="535.15" x2="373.38" y2="888.88" xlink:href="#b"/><linearGradient id="s" x1="376.83" y1="534.32" x2="376.83" y2="888.86" xlink:href="#b"/><linearGradient id="t" x1="380.27" y1="533.46" x2="380.27" y2="888.88" xlink:href="#b"/><linearGradient id="u" x1="383.7" y1="532.56" x2="383.7" y2="888.85" xlink:href="#b"/><linearGradient id="v" x1="387.15" y1="531.63" x2="387.15" y2="888.82" xlink:href="#b"/><linearGradient id="w" x1="390.6" y1="530.67" x2="390.6" y2="888.84" xlink:href="#b"/><linearGradient id="x" x1="394.04" y1="529.68" x2="394.04" y2="888.82" xlink:href="#b"/><linearGradient id="y" x1="397.48" y1="528.67" x2="397.48" y2="888.83" xlink:href="#b"/><linearGradient id="z" x1="400.94" y1="527.63" x2="400.94" y2="888.81" xlink:href="#b"/><linearGradient id="aa" x1="404.38" y1="526.56" x2="404.38" y2="888.8" xlink:href="#b"/><linearGradient id="ab" x1="407.83" y1="525.47" x2="407.83" y2="888.78" xlink:href="#b"/><linearGradient id="ac" x1="411.28" y1="524.36" x2="411.28" y2="888.84" xlink:href="#b"/><linearGradient id="ad" x1="414.73" y1="523.22" x2="414.73" y2="888.79" xlink:href="#b"/><linearGradient id="ae" x1="418.18" y1="522.07" x2="418.18" y2="888.79" xlink:href="#b"/><linearGradient id="af" x1="421.63" y1="520.89" x2="421.63" y2="888.81" xlink:href="#b"/><linearGradient id="ag" x1="425.09" y1="519.69" x2="425.09" y2="888.78" xlink:href="#b"/><linearGradient id="ah" x1="428.53" y1="518.47" x2="428.53" y2="888.76" xlink:href="#b"/><linearGradient id="ai" x1="431.99" y1="517.24" x2="431.99" y2="888.76" xlink:href="#b"/><linearGradient id="aj" x1="435.45" y1="515.99" x2="435.45" y2="888.76" xlink:href="#b"/><linearGradient id="ak" x1="438.91" y1="514.72" x2="438.91" y2="888.72" xlink:href="#b"/><linearGradient id="al" x1="373.31" y1="282.61" x2="373.31" y2="336.65" gradientTransform="matrix(1, 0, 0, -1, 254.91, 756.45)" gradientUnits="userSpaceOnUse"><stop offset="0.21" stop-color="#39a5ba"/><stop offset="0.29" stop-color="#41a3b6"/><stop offset="0.41" stop-color="#579fa9"/><stop offset="0.57" stop-color="#7a9796"/><stop offset="0.75" stop-color="#ac8d7a"/><stop offset="0.94" stop-color="#eb8057"/><stop offset="1" stop-color="#ff7c4c"/></linearGradient><linearGradient id="am" x1="371.59" y1="276.64" x2="371.59" y2="339.95" xlink:href="#al"/><linearGradient id="an" x1="374.67" y1="289.19" x2="374.67" y2="333.37" xlink:href="#al"/><linearGradient id="ao" x1="375.85" y1="286.92" x2="375.85" y2="330.04" xlink:href="#al"/><linearGradient id="ap" x1="376.93" y1="287.4" x2="376.93" y2="327.09" xlink:href="#al"/><linearGradient id="aq" x1="377.72" y1="284.6" x2="377.72" y2="328.82" xlink:href="#al"/><linearGradient id="ar" x1="378.09" y1="279.73" x2="378.09" y2="320.79" xlink:href="#al"/><linearGradient id="as" x1="378.64" y1="271.94" x2="378.64" y2="309.26" xlink:href="#al"/><linearGradient id="at" x1="378.88" y1="266.51" x2="378.88" y2="297.16" xlink:href="#al"/><linearGradient id="au" x1="378.84" y1="261.25" x2="378.84" y2="286.08" xlink:href="#al"/><linearGradient id="av" x1="378.99" y1="257.45" x2="378.99" y2="280.05" xlink:href="#al"/><linearGradient id="aw" x1="382.87" y1="255.7" x2="382.87" y2="268.77" xlink:href="#al"/><linearGradient id="ax" x1="389.9" y1="255.07" x2="389.9" y2="265.45" xlink:href="#al"/><linearGradient id="ay" x1="397.61" y1="249.93" x2="397.61" y2="263.61" xlink:href="#al"/><linearGradient id="az" x1="403.71" y1="243.14" x2="403.71" y2="261.69" xlink:href="#al"/><linearGradient id="ba" x1="406.46" y1="238.25" x2="406.46" y2="259.26" xlink:href="#al"/><linearGradient id="bb" x1="404.03" y1="235.07" x2="404.03" y2="256.05" xlink:href="#al"/><linearGradient id="bc" x1="398.16" y1="233.9" x2="398.16" y2="253.12" xlink:href="#al"/><linearGradient id="bd" x1="391.23" y1="233.49" x2="391.23" y2="250.4" xlink:href="#al"/><linearGradient id="be" x1="384.95" y1="232.69" x2="384.95" y2="247.72" xlink:href="#al"/><linearGradient id="bf" x1="380.8" y1="231.35" x2="380.8" y2="244.98" xlink:href="#al"/><linearGradient id="bg" x1="379.77" y1="228.49" x2="379.77" y2="242.26" xlink:href="#al"/><linearGradient id="bh" x1="379.83" y1="226.28" x2="379.83" y2="240.62" xlink:href="#al"/><linearGradient id="bi" x1="379.84" y1="224.74" x2="379.84" y2="240.33" xlink:href="#al"/><linearGradient id="bj" x1="379.8" y1="222.42" x2="379.8" y2="239.65" xlink:href="#al"/><linearGradient id="bk" x1="379.72" y1="219.2" x2="379.72" y2="237.6" xlink:href="#al"/><linearGradient id="bl" x1="379.56" y1="215.99" x2="379.56" y2="232.51" xlink:href="#al"/><linearGradient id="bm" x1="379.3" y1="212.66" x2="379.3" y2="224.63" xlink:href="#al"/><linearGradient id="bn" x1="378.99" y1="209.56" x2="378.99" y2="224.51" xlink:href="#al"/><linearGradient id="bo" x1="378.58" y1="205.68" x2="378.58" y2="227.03" xlink:href="#al"/><linearGradient id="bp" x1="378.09" y1="203.15" x2="378.09" y2="227.59" xlink:href="#al"/><linearGradient id="bq" x1="377.46" y1="199.91" x2="377.46" y2="223.24" xlink:href="#al"/><linearGradient id="br" x1="376.73" y1="196.7" x2="376.73" y2="214.25" xlink:href="#al"/><linearGradient id="bs" x1="375.87" y1="193.48" x2="375.87" y2="203.68" xlink:href="#al"/><linearGradient id="bt" x1="374.88" y1="190.26" x2="374.88" y2="194.1" xlink:href="#al"/><linearGradient id="bu" x1="-127.42" y1="187.28" x2="-127.42" y2="300.15" xlink:href="#al"/><linearGradient id="bv" x1="-116.5" y1="187.27" x2="-116.5" y2="302.75" xlink:href="#al"/><linearGradient id="bw" x1="-104.36" y1="187.22" x2="-104.36" y2="305.55" xlink:href="#al"/><linearGradient id="bx" x1="-91.09" y1="187.25" x2="-91.09" y2="306.64" xlink:href="#al"/><linearGradient id="by" x1="-76.81" y1="187.24" x2="-76.81" y2="310.01" xlink:href="#al"/><linearGradient id="bz" x1="-61.62" y1="187.24" x2="-61.62" y2="313.78" xlink:href="#al"/><linearGradient id="ca" x1="-45.61" y1="187.27" x2="-45.61" y2="317.43" xlink:href="#al"/><linearGradient id="cb" x1="-28.9" y1="187.26" x2="-28.9" y2="321.26" xlink:href="#al"/><linearGradient id="cc" x1="-11.57" y1="187.25" x2="-11.57" y2="323.25" xlink:href="#al"/><linearGradient id="cd" x1="6.15" y1="187.21" x2="6.15" y2="326.64" xlink:href="#al"/><linearGradient id="ce" x1="21.55" y1="187.25" x2="21.55" y2="329.19" xlink:href="#al"/><linearGradient id="cf" x1="36.8" y1="187.26" x2="36.8" y2="329.99" xlink:href="#al"/><linearGradient id="cg" x1="51.78" y1="187.25" x2="51.78" y2="328.3" xlink:href="#al"/><linearGradient id="ch" x1="66.37" y1="187.33" x2="66.37" y2="324.33" xlink:href="#al"/><linearGradient id="ci" x1="80.46" y1="187.36" x2="80.46" y2="323.09" xlink:href="#al"/><linearGradient id="cj" x1="94.39" y1="187.38" x2="94.39" y2="316.39" xlink:href="#al"/><linearGradient id="ck" x1="107.26" y1="187.44" x2="107.26" y2="314.24" xlink:href="#al"/><linearGradient id="cl" x1="118.44" y1="187.44" x2="118.44" y2="311.07" xlink:href="#al"/><linearGradient id="cm" x1="129.28" y1="187.43" x2="129.28" y2="308.76" xlink:href="#al"/><linearGradient id="cn" x1="139.53" y1="187.44" x2="139.53" y2="305.78" xlink:href="#al"/><linearGradient id="co" x1="150.41" y1="187.36" x2="150.41" y2="304.09" xlink:href="#al"/><linearGradient id="cp" x1="162.24" y1="187.42" x2="162.24" y2="302.07" xlink:href="#al"/><linearGradient id="cq" x1="175.22" y1="187.39" x2="175.22" y2="300.26" xlink:href="#al"/><linearGradient id="cr" x1="188.82" y1="187.41" x2="188.82" y2="299.11" xlink:href="#al"/><linearGradient id="cs" x1="202.99" y1="187.41" x2="202.99" y2="297.8" xlink:href="#al"/><linearGradient id="ct" x1="217.16" y1="187.4" x2="217.16" y2="299.28" xlink:href="#al"/><linearGradient id="cu" x1="231.59" y1="187.39" x2="231.59" y2="300.48" xlink:href="#al"/><linearGradient id="cv" x1="246.07" y1="187.37" x2="246.07" y2="301.4" xlink:href="#al"/><linearGradient id="cw" x1="261.19" y1="187.37" x2="261.19" y2="301.84" xlink:href="#al"/><linearGradient id="cx" x1="275.47" y1="187.37" x2="275.47" y2="302" xlink:href="#al"/><linearGradient id="cy" x1="289.44" y1="187.38" x2="289.44" y2="302.64" xlink:href="#al"/><linearGradient id="cz" x1="301.77" y1="187.41" x2="301.77" y2="303.86" xlink:href="#al"/><linearGradient id="da" x1="314.91" y1="187.42" x2="314.91" y2="305.58" xlink:href="#al"/><linearGradient id="db" x1="327.58" y1="187.4" x2="327.58" y2="307.73" xlink:href="#al"/><linearGradient id="dc" x1="340.76" y1="187.45" x2="340.76" y2="310.26" xlink:href="#al"/><linearGradient id="dd" x1="352.15" y1="187.46" x2="352.15" y2="313.03" xlink:href="#al"/><linearGradient id="de" x1="361.72" y1="187.44" x2="361.72" y2="315.94" xlink:href="#al"/><linearGradient id="df" x1="371.54" y1="187.51" x2="371.54" y2="319.06" xlink:href="#al"/><linearGradient id="dg" x1="381.11" y1="187.47" x2="381.11" y2="322.14" xlink:href="#al"/><linearGradient id="dh" x1="390.63" y1="187.46" x2="390.63" y2="325.23" xlink:href="#al"/><linearGradient id="di" x1="400.53" y1="187.45" x2="400.53" y2="328.22" xlink:href="#al"/><linearGradient id="dj" x1="412.85" y1="187.41" x2="412.85" y2="331.04" xlink:href="#al"/><linearGradient id="dk" x1="425.67" y1="187.43" x2="425.67" y2="333.63" xlink:href="#al"/><linearGradient id="dl" x1="438.93" y1="187.42" x2="438.93" y2="335.84" xlink:href="#al"/><linearGradient id="dm" x1="452.51" y1="187.39" x2="452.51" y2="337.66" xlink:href="#al"/><linearGradient id="dn" x1="466.33" y1="187.37" x2="466.33" y2="339" xlink:href="#al"/><linearGradient id="do" x1="481.2" y1="187.38" x2="481.2" y2="339.79" xlink:href="#al"/><linearGradient id="dp" x1="496.94" y1="187.31" x2="496.94" y2="339.94" xlink:href="#al"/><linearGradient id="dq" x1="511.7" y1="187.29" x2="511.7" y2="339.3" xlink:href="#al"/><linearGradient id="dr" x1="525.43" y1="187.28" x2="525.43" y2="337.95" xlink:href="#al"/><linearGradient id="ds" x1="536.93" y1="187.32" x2="536.93" y2="336.01" xlink:href="#al"/><linearGradient id="dt" x1="548.89" y1="187.3" x2="548.89" y2="333.5" xlink:href="#al"/><linearGradient id="du" x1="560.61" y1="187.3" x2="560.61" y2="330.55" xlink:href="#al"/><linearGradient id="dv" x1="572.5" y1="187.35" x2="572.5" y2="327.26" xlink:href="#al"/><linearGradient id="dw" x1="583.77" y1="187.32" x2="583.77" y2="323.7" xlink:href="#al"/><linearGradient id="dx" x1="594.39" y1="187.29" x2="594.39" y2="319.97" xlink:href="#al"/><linearGradient id="dy" x1="604.21" y1="187.3" x2="604.21" y2="316.18" xlink:href="#al"/><linearGradient id="dz" x1="613.97" y1="187.3" x2="613.97" y2="312.4" xlink:href="#al"/><linearGradient id="ea" x1="625.05" y1="187.38" x2="625.05" y2="308.72" xlink:href="#al"/><linearGradient id="eb" x1="637.27" y1="187.3" x2="637.27" y2="305.26" xlink:href="#al"/><linearGradient id="ec" x1="650.51" y1="187.29" x2="650.51" y2="302.08" xlink:href="#al"/><linearGradient id="ed" x1="664.65" y1="187.28" x2="664.65" y2="299.32" xlink:href="#al"/><linearGradient id="ee" x1="679.59" y1="187.25" x2="679.59" y2="296.99" xlink:href="#al"/><linearGradient id="ef" x1="695.13" y1="187.27" x2="695.13" y2="295.29" xlink:href="#al"/><linearGradient id="eg" x1="711.19" y1="187.28" x2="711.19" y2="294.24" xlink:href="#al"/><linearGradient id="eh" x1="727.67" y1="187.26" x2="727.67" y2="293.92" xlink:href="#al"/><linearGradient id="ei" x1="744.36" y1="187.27" x2="744.36" y2="294.02" xlink:href="#al"/><linearGradient id="ej" x1="761.11" y1="187.24" x2="761.11" y2="294.23" xlink:href="#al"/><linearGradient id="ek" x1="777.78" y1="187.21" x2="777.78" y2="294.56" xlink:href="#al"/><linearGradient id="el" x1="794.21" y1="187.25" x2="794.21" y2="294.97" xlink:href="#al"/><linearGradient id="em" x1="810.22" y1="187.24" x2="810.22" y2="295.47" xlink:href="#al"/><linearGradient id="en" x1="825.65" y1="187.24" x2="825.65" y2="296.04" xlink:href="#al"/><linearGradient id="eo" x1="840.33" y1="187.24" x2="840.33" y2="296.65" xlink:href="#al"/><linearGradient id="ep" x1="854.11" y1="187.24" x2="854.11" y2="297.28" xlink:href="#al"/><linearGradient id="eq" x1="866.83" y1="187.24" x2="866.83" y2="297.94" xlink:href="#al"/><linearGradient id="er" x1="517.46" y1="549.11" x2="664.3" y2="549.11" gradientTransform="matrix(0.71, 0.71, 0.71, -0.71, 39.76, 177.77)" gradientUnits="userSpaceOnUse"><stop offset="0" stop-color="#b0ffdf"/><stop offset="0.2" stop-color="#b5ffe1"/><stop offset="0.44" stop-color="#c4ffe7"/><stop offset="0.7" stop-color="#dcfff1"/><stop offset="0.97" stop-color="#feffff"/><stop offset="0.98" stop-color="#fff"/></linearGradient><linearGradient id="es" x1="775.25" y1="467.68" x2="916.36" y2="467.68" gradientTransform="matrix(1, 0, 0, -1, 7.9, 691.9)" xlink:href="#er"/><linearGradient id="et" x1="778.11" y1="467.68" x2="913.5" y2="467.68" gradientTransform="matrix(1, 0, 0, -1, 7.9, 691.9)" xlink:href="#er"/><linearGradient id="eu" x1="780.96" y1="467.68" x2="910.65" y2="467.68" gradientTransform="matrix(1, 0, 0, -1, 7.9, 691.9)" xlink:href="#er"/><linearGradient id="ev" x1="783.83" y1="467.68" x2="907.78" y2="467.68" gradientTransform="matrix(1, 0, 0, -1, 7.9, 691.9)" xlink:href="#er"/><linearGradient id="ew" x1="786.68" y1="467.68" x2="904.93" y2="467.68" gradientTransform="matrix(1, 0, 0, -1, 7.9, 691.9)" xlink:href="#er"/><linearGradient id="ex" x1="789.54" y1="467.68" x2="902.07" y2="467.68" gradientTransform="matrix(1, 0, 0, -1, 7.9, 691.9)" xlink:href="#er"/><linearGradient id="ey" x1="792.4" y1="467.68" x2="899.21" y2="467.68" gradientTransform="matrix(1, 0, 0, -1, 7.9, 691.9)" xlink:href="#er"/><linearGradient id="ez" x1="795.25" y1="467.68" x2="896.36" y2="467.68" gradientTransform="matrix(1, 0, 0, -1, 7.9, 691.9)" xlink:href="#er"/><linearGradient id="fa" x1="798.11" y1="467.68" x2="893.5" y2="467.68" gradientTransform="matrix(1, 0, 0, -1, 7.9, 691.9)" xlink:href="#er"/><linearGradient id="fb" x1="800.96" y1="467.68" x2="890.64" y2="467.68" gradientTransform="matrix(1, 0, 0, -1, 7.9, 691.9)" xlink:href="#er"/><linearGradient id="fc" x1="803.83" y1="467.68" x2="887.78" y2="467.68" gradientTransform="matrix(1, 0, 0, -1, 7.9, 691.9)" xlink:href="#er"/><linearGradient id="fd" x1="806.68" y1="467.68" x2="884.93" y2="467.68" gradientTransform="matrix(1, 0, 0, -1, 7.9, 691.9)" xlink:href="#er"/><linearGradient id="fe" x1="809.54" y1="467.68" x2="882.07" y2="467.68" gradientTransform="matrix(1, 0, 0, -1, 7.9, 691.9)" xlink:href="#er"/><linearGradient id="ff" x1="812.4" y1="467.68" x2="879.21" y2="467.68" gradientTransform="matrix(1, 0, 0, -1, 7.9, 691.9)" xlink:href="#er"/><linearGradient id="fg" x1="815.25" y1="467.68" x2="876.36" y2="467.68" gradientTransform="matrix(1, 0, 0, -1, 7.9, 691.9)" xlink:href="#er"/><linearGradient id="fh" x1="818.11" y1="467.68" x2="873.5" y2="467.68" gradientTransform="matrix(1, 0, 0, -1, 7.9, 691.9)" xlink:href="#er"/><linearGradient id="fi" x1="820.97" y1="467.68" x2="870.64" y2="467.68" gradientTransform="matrix(1, 0, 0, -1, 7.9, 691.9)" xlink:href="#er"/><linearGradient id="fj" x1="823.83" y1="467.68" x2="867.78" y2="467.68" gradientTransform="matrix(1, 0, 0, -1, 7.9, 691.9)" xlink:href="#er"/><linearGradient id="fk" x1="826.68" y1="467.68" x2="864.93" y2="467.68" gradientTransform="matrix(1, 0, 0, -1, 7.9, 691.9)" xlink:href="#er"/><linearGradient id="fl" x1="829.54" y1="467.68" x2="862.06" y2="467.68" gradientTransform="matrix(1, 0, 0, -1, 7.9, 691.9)" xlink:href="#er"/><linearGradient id="fm" x1="832.4" y1="467.68" x2="859.21" y2="467.68" gradientTransform="matrix(1, 0, 0, -1, 7.9, 691.9)" xlink:href="#er"/><linearGradient id="fn" x1="835.25" y1="467.68" x2="856.36" y2="467.68" gradientTransform="matrix(1, 0, 0, -1, 7.9, 691.9)" xlink:href="#er"/><linearGradient id="fo" x1="838.11" y1="467.68" x2="853.5" y2="467.68" gradientTransform="matrix(1, 0, 0, -1, 7.9, 691.9)" xlink:href="#er"/><linearGradient id="fp" x1="586.06" y1="549.16" x2="595.73" y2="549.16" gradientTransform="matrix(1, 0, 0, -1, 254.91, 756.45)" xlink:href="#er"/><linearGradient id="fq" x1="588.91" y1="549.16" x2="592.87" y2="549.16" gradientTransform="matrix(1, 0, 0, -1, 254.91, 756.45)" xlink:href="#er"/><linearGradient id="fr" x1="84.33" y1="345.52" x2="89.55" y2="345.52" gradientTransform="matrix(1, 0, 0, -1, 254.91, 756.45)" gradientUnits="userSpaceOnUse"><stop offset="0" stop-color="#4effa7"/><stop offset="0.76" stop-color="#5cffc8"/><stop offset="0.84" stop-color="#5effcc"/></linearGradient><linearGradient id="fs" x1="99.09" y1="345.52" x2="104.3" y2="345.52" xlink:href="#fr"/><linearGradient id="ft" x1="113.84" y1="345.52" x2="119.06" y2="345.52" xlink:href="#fr"/><linearGradient id="fu" x1="128.6" y1="345.52" x2="133.81" y2="345.52" xlink:href="#fr"/><linearGradient id="fv" x1="143.35" y1="345.52" x2="148.57" y2="345.52" xlink:href="#fr"/><linearGradient id="fw" x1="158.1" y1="345.52" x2="163.32" y2="345.52" xlink:href="#fr"/><linearGradient id="fx" x1="172.86" y1="345.52" x2="178.08" y2="345.52" xlink:href="#fr"/><linearGradient id="fy" x1="187.61" y1="345.52" x2="192.83" y2="345.52" xlink:href="#fr"/><linearGradient id="fz" x1="202.37" y1="345.52" x2="207.59" y2="345.52" xlink:href="#fr"/><linearGradient id="ga" x1="217.12" y1="345.52" x2="222.34" y2="345.52" xlink:href="#fr"/><linearGradient id="gb" x1="231.88" y1="345.52" x2="237.1" y2="345.52" xlink:href="#fr"/><linearGradient id="gc" x1="246.63" y1="345.52" x2="251.85" y2="345.52" xlink:href="#fr"/><linearGradient id="gd" x1="261.39" y1="345.52" x2="266.61" y2="345.52" xlink:href="#fr"/><linearGradient id="ge" x1="276.14" y1="345.52" x2="281.36" y2="345.52" xlink:href="#fr"/><linearGradient id="gf" x1="290.9" y1="345.51" x2="296.12" y2="345.51" xlink:href="#fr"/><linearGradient id="gg" x1="84.33" y1="332.95" x2="89.55" y2="332.95" xlink:href="#fr"/><linearGradient id="gh" x1="99.09" y1="332.95" x2="104.3" y2="332.95" xlink:href="#fr"/><linearGradient id="gi" x1="113.84" y1="332.95" x2="119.06" y2="332.95" xlink:href="#fr"/><linearGradient id="gj" x1="128.6" y1="332.95" x2="133.81" y2="332.95" xlink:href="#fr"/><linearGradient id="gk" x1="143.35" y1="332.95" x2="148.57" y2="332.95" xlink:href="#fr"/><linearGradient id="gl" x1="158.1" y1="332.95" x2="163.32" y2="332.95" xlink:href="#fr"/><linearGradient id="gm" x1="172.86" y1="332.95" x2="178.08" y2="332.95" xlink:href="#fr"/><linearGradient id="gn" x1="187.61" y1="332.95" x2="192.83" y2="332.95" xlink:href="#fr"/><linearGradient id="go" x1="202.37" y1="332.95" x2="207.59" y2="332.95" xlink:href="#fr"/><linearGradient id="gp" x1="217.12" y1="332.95" x2="222.34" y2="332.95" xlink:href="#fr"/><linearGradient id="gq" x1="231.88" y1="332.95" x2="237.1" y2="332.95" xlink:href="#fr"/><linearGradient id="gr" x1="246.63" y1="332.95" x2="251.85" y2="332.95" xlink:href="#fr"/><linearGradient id="gs" x1="261.39" y1="332.95" x2="266.61" y2="332.95" xlink:href="#fr"/><linearGradient id="gt" x1="276.14" y1="332.95" x2="281.36" y2="332.95" xlink:href="#fr"/><linearGradient id="gu" x1="290.9" y1="332.95" x2="296.12" y2="332.95" xlink:href="#fr"/><linearGradient id="gv" x1="84.33" y1="320.38" x2="89.55" y2="320.38" xlink:href="#fr"/><linearGradient id="gw" x1="99.09" y1="320.38" x2="104.3" y2="320.38" xlink:href="#fr"/><linearGradient id="gx" x1="113.84" y1="320.38" x2="119.06" y2="320.38" xlink:href="#fr"/><linearGradient id="gy" x1="128.6" y1="320.38" x2="133.81" y2="320.38" xlink:href="#fr"/><linearGradient id="gz" x1="143.35" y1="320.38" x2="148.57" y2="320.38" xlink:href="#fr"/><linearGradient id="ha" x1="158.1" y1="320.38" x2="163.32" y2="320.38" xlink:href="#fr"/><linearGradient id="hb" x1="172.86" y1="320.38" x2="178.08" y2="320.38" xlink:href="#fr"/><linearGradient id="hc" x1="187.61" y1="320.38" x2="192.83" y2="320.38" xlink:href="#fr"/><linearGradient id="hd" x1="202.37" y1="320.38" x2="207.59" y2="320.38" xlink:href="#fr"/><linearGradient id="he" x1="217.12" y1="320.38" x2="222.34" y2="320.38" xlink:href="#fr"/><linearGradient id="hf" x1="231.88" y1="320.38" x2="237.1" y2="320.38" xlink:href="#fr"/><linearGradient id="hg" x1="246.63" y1="320.38" x2="251.85" y2="320.38" xlink:href="#fr"/><linearGradient id="hh" x1="261.39" y1="320.38" x2="266.61" y2="320.38" xlink:href="#fr"/><linearGradient id="hi" x1="276.14" y1="320.38" x2="281.36" y2="320.38" xlink:href="#fr"/><linearGradient id="hj" x1="290.9" y1="320.38" x2="296.12" y2="320.38" xlink:href="#fr"/><clipPath id="hk" transform="translate(7.9 16.93)"><rect x="538.38" y="206.11" width="167.29" height="167.29" style="fill:none"/></clipPath></defs><g style="clip-path:url(#a)"><path d="M160.67,287.19C1020,518.45,894,3.19,894,3.19" transform="translate(7.9 16.93)" style="fill:none;stroke-miterlimit:10;stroke-width:0.25px;stroke:url(#b)"/><path d="M161.17,284.79C1026,525.55,900.72,4.06,900.72,4.06" transform="translate(7.9 16.93)" style="fill:none;stroke-miterlimit:10;stroke-width:0.25px;stroke:url(#c)"/><path d="M161.67,282.39C1032.08,532.68,907.47,4.93,907.47,4.93" transform="translate(7.9 16.93)" style="fill:none;stroke-miterlimit:10;stroke-width:0.25px;stroke:url(#d)"/><path d="M162.17,280C1038.11,539.79,914.22,5.8,914.22,5.8" transform="translate(7.9 16.93)" style="fill:none;stroke-miterlimit:10;stroke-width:0.25px;stroke:url(#e)"/><path d="M162.67,277.55C1044.13,546.9,921,6.66,921,6.66" transform="translate(7.9 16.93)" style="fill:none;stroke-miterlimit:10;stroke-width:0.25px;stroke:url(#f)"/><path d="M163.16,275.18C1050.16,554,927.71,7.55,927.71,7.55" transform="translate(7.9 16.93)" style="fill:none;stroke-miterlimit:10;stroke-width:0.25px;stroke:url(#g)"/><path d="M163.66,272.78C1056.19,561.13,934.46,8.4,934.46,8.4" transform="translate(7.9 16.93)" style="fill:none;stroke-miterlimit:10;stroke-width:0.25px;stroke:url(#h)"/><path d="M164.16,270.38c898.06,297.87,777-261.12,777-261.12" transform="translate(7.9 16.93)" style="fill:none;stroke-miterlimit:10;stroke-width:0.25px;stroke:url(#i)"/><path d="M164.66,268C1068.25,575.36,948,10.13,948,10.13" transform="translate(7.9 16.93)" style="fill:none;stroke-miterlimit:10;stroke-width:0.25px;stroke:url(#j)"/><path d="M165.16,265.55C1074.28,582.47,954.7,11,954.7,11" transform="translate(7.9 16.93)" style="fill:none;stroke-miterlimit:10;stroke-width:0.25px;stroke:url(#k)"/><path d="M165.66,263.18C1080.3,589.55,961.44,11.86,961.44,11.86" transform="translate(7.9 16.93)" style="fill:none;stroke-miterlimit:10;stroke-width:0.25px;stroke:url(#l)"/><path d="M166.16,260.77c920.17,335.93,802-248,802-248" transform="translate(7.9 16.93)" style="fill:none;stroke-miterlimit:10;stroke-width:0.25px;stroke:url(#m)"/><path d="M166.65,258.37C1092.36,603.81,974.94,13.55,974.94,13.55" transform="translate(7.9 16.93)" style="fill:none;stroke-miterlimit:10;stroke-width:0.25px;stroke:url(#n)"/><path d="M167.15,256C1098.39,611,981.68,14.46,981.68,14.46" transform="translate(7.9 16.93)" style="fill:none;stroke-miterlimit:10;stroke-width:0.25px;stroke:url(#o)"/><path d="M167.65,253.55C1104.42,618,988.43,15.33,988.43,15.33" transform="translate(7.9 16.93)" style="fill:none;stroke-miterlimit:10;stroke-width:0.25px;stroke:url(#p)"/><path d="M168.15,251.17c942.29,374,827-235,827-235" transform="translate(7.9 16.93)" style="fill:none;stroke-miterlimit:10;stroke-width:0.25px;stroke:url(#q)"/><path d="M168.65,248.77c947.82,383.5,833.27-231.71,833.27-231.71" transform="translate(7.9 16.93)" style="fill:none;stroke-miterlimit:10;stroke-width:0.25px;stroke:url(#r)"/><path d="M169.15,246.37c953.35,393,839.52-228.44,839.52-228.44" transform="translate(7.9 16.93)" style="fill:none;stroke-miterlimit:10;stroke-width:0.25px;stroke:url(#s)"/><path d="M169.65,244c958.88,402.58,845.77-225.18,845.77-225.18" transform="translate(7.9 16.93)" style="fill:none;stroke-miterlimit:10;stroke-width:0.25px;stroke:url(#t)"/><path d="M170.14,241.55c964.42,412.05,852-221.9,852-221.9" transform="translate(7.9 16.93)" style="fill:none;stroke-miterlimit:10;stroke-width:0.25px;stroke:url(#u)"/><path d="M170.64,239.16c970,421.56,858.27-218.61,858.27-218.61" transform="translate(7.9 16.93)" style="fill:none;stroke-miterlimit:10;stroke-width:0.25px;stroke:url(#v)"/><path d="M171.14,236.76c975.47,431.08,864.52-215.37,864.52-215.37" transform="translate(7.9 16.93)" style="fill:none;stroke-miterlimit:10;stroke-width:0.25px;stroke:url(#w)"/><path d="M171.64,234.36c981,440.59,870.77-212.1,870.77-212.1" transform="translate(7.9 16.93)" style="fill:none;stroke-miterlimit:10;stroke-width:0.25px;stroke:url(#x)"/><path d="M172.14,232c986.53,450.11,877-208.84,877-208.84" transform="translate(7.9 16.93)" style="fill:none;stroke-miterlimit:10;stroke-width:0.25px;stroke:url(#y)"/><path d="M172.64,229.55C1164.7,689.18,1055.9,24,1055.9,24" transform="translate(7.9 16.93)" style="fill:none;stroke-miterlimit:10;stroke-width:0.25px;stroke:url(#z)"/><path d="M173.13,227.16c997.6,469.13,889.52-202.3,889.52-202.3" transform="translate(7.9 16.93)" style="fill:none;stroke-miterlimit:10;stroke-width:0.25px;stroke:url(#aa)"/><path d="M173.63,224.75c1003.13,478.66,895.76-199,895.76-199" transform="translate(7.9 16.93)" style="fill:none;stroke-miterlimit:10;stroke-width:0.25px;stroke:url(#ab)"/><path d="M174.13,222.35c1008.65,488.2,902-195.8,902-195.8" transform="translate(7.9 16.93)" style="fill:none;stroke-miterlimit:10;stroke-width:0.25px;stroke:url(#ac)"/><path d="M174.63,220c1014.18,497.69,908.26-192.5,908.26-192.5" transform="translate(7.9 16.93)" style="fill:none;stroke-miterlimit:10;stroke-width:0.25px;stroke:url(#ad)"/><path d="M175.13,217.55c1019.71,507.2,914.5-189.23,914.5-189.23" transform="translate(7.9 16.93)" style="fill:none;stroke-miterlimit:10;stroke-width:0.25px;stroke:url(#ae)"/><path d="M175.63,215.15c1025.24,516.71,920.75-186,920.75-186" transform="translate(7.9 16.93)" style="fill:none;stroke-miterlimit:10;stroke-width:0.25px;stroke:url(#af)"/><path d="M176.13,212.75c1030.77,526.23,927-182.7,927-182.7" transform="translate(7.9 16.93)" style="fill:none;stroke-miterlimit:10;stroke-width:0.25px;stroke:url(#ag)"/><path d="M176.62,210.35c1036.3,535.74,933.25-179.43,933.25-179.43" transform="translate(7.9 16.93)" style="fill:none;stroke-miterlimit:10;stroke-width:0.25px;stroke:url(#ah)"/><path d="M177.12,208C1219,753.2,1116.62,31.79,1116.62,31.79" transform="translate(7.9 16.93)" style="fill:none;stroke-miterlimit:10;stroke-width:0.25px;stroke:url(#ai)"/><path d="M177.62,205.55C1225,760.32,1123.37,32.65,1123.37,32.65" transform="translate(7.9 16.93)" style="fill:none;stroke-miterlimit:10;stroke-width:0.25px;stroke:url(#aj)"/><path d="M178.12,203.14c1052.91,564.29,952-169.59,952-169.59" transform="translate(7.9 16.93)" style="fill:none;stroke-miterlimit:10;stroke-width:0.25px;stroke:url(#ak)"/><path d="M252.43,466.9C323,477,388.71,474.83,459.15,465.82c27.91-3.56,55.73-6.38,83.82-7.85,33.23-1.74,63.86-11.8,95.3-21.76,28.72-9.1,58.29-17.82,88.74-15.89,28.44,1.8,54,13.43,79.76,24.55,64.14,27.68,129,19,197.26,15.68" transform="translate(7.9 16.93)" style="fill:none;stroke-miterlimit:10;stroke-width:0.5px;stroke:url(#al)"/><path d="M257,470c71.18,16.66,135.22,9.49,205.59-5.3a514.7,514.7,0,0,1,81-10.06c32.68-1.66,63.6-12.38,94.59-21.95,28.4-8.77,57.69-17.35,87.72-15.71,28.15,1.55,53.57,12.85,79,24,28.51,12.47,55.15,21.87,86.64,21.77,34.84-.12,69.68-2.66,104.44-4.66" transform="translate(7.9 16.93)" style="fill:none;stroke-miterlimit:10;stroke-width:0.5px;stroke:url(#am)"/><path d="M247.36,460.62c68.64-1.74,137.31-.13,206,.68,33.45.4,67.44,1.88,100.84-.19,29.73-1.83,57.69-12.06,85.74-21.25s56.85-18.05,86.69-16.31c30,1.7,56.72,14.68,83.93,26C874,476,944.73,465.12,1011.79,462.93" transform="translate(7.9 16.93)" style="fill:none;stroke-miterlimit:10;stroke-width:0.5px;stroke:url(#an)"/><path d="M241.76,456.42c32.7-6.48,65.43-12.61,98.82-14,35.72-1.46,71.5,5.06,106.7,10.45,34.55,5.28,70.14,12,105.25,11.78,31.31-.22,60.42-11.12,89.56-21.27s59.34-19.19,90.77-16.11c28.76,2.83,54.44,16,80.93,26.42,63.07,24.92,139.64,12.76,206,11.65" transform="translate(7.9 16.93)" style="fill:none;stroke-miterlimit:10;stroke-width:0.5px;stroke:url(#ao)"/><path d="M235.52,457.15c32-10.08,63.93-21.94,97.4-26.29,36.4-4.73,72.09,4.8,107.13,13.75,35.86,9.16,72.32,20.69,109.48,23,33.26,2,63.63-9.58,94.33-20.64,28.83-10.38,57.57-19,88.58-16.19,28.38,2.6,53.2,15,79.41,25.07,30.07,11.52,58.09,13,90,13,42.13,0,84.25-.36,126.38-.54" transform="translate(7.9 16.93)" style="fill:none;stroke-miterlimit:10;stroke-width:0.5px;stroke:url(#ap)"/><path d="M228,462.76C264.33,451,300.23,434,338.35,429c35.67-4.68,71.17,6,105,16.12,35.34,10.55,71.74,24.29,109,25.94,32.42,1.44,62-9.74,91.88-20.68,30.13-11,60.49-20,93-15.85,27.14,3.5,51.46,15.84,76.82,25.26,29.88,11.11,58.08,11.75,89.54,11.75q66.87.09,133.7,0" transform="translate(7.9 16.93)" style="fill:none;stroke-miterlimit:10;stroke-width:0.5px;stroke:url(#aq)"/><path d="M219.5,469.27c37-9.72,72.89-24.72,110.66-31.2,35.16-6,69.12,1.49,103.13,10.39,39.84,10.43,81.12,26,122.81,26,29.78,0,58.54-9.62,86.66-18.28,28.4-8.75,57.86-16.92,87.88-14.43,32.28,2.67,61.55,16.36,92.17,25.6,30.94,9.34,61.26,9.26,93.37,9.07,43.46-.25,86.92-1.07,130.38-1.43" transform="translate(7.9 16.93)" style="fill:none;stroke-miterlimit:10;stroke-width:0.5px;stroke:url(#ar)"/><path d="M211.15,475.55c37.32-7,73.51-19.11,111-25.33,34.13-5.66,67.08-2,100.73,4.92,39.78,8.2,79.53,20.68,120.36,22.37,32.84,1.35,64.94-6.2,96.81-13s64.41-13,97.3-9.74c31.36,3.08,61.1,13.67,91.64,20.7,73,16.78,152.75,4.67,227,3.1" transform="translate(7.9 16.93)" style="fill:none;stroke-miterlimit:10;stroke-width:0.5px;stroke:url(#as)"/><path d="M203,480.76c37.42-4.21,74-13.21,111.22-18.35,38.19-5.26,75.48-2.8,113.39,3.37,33.9,5.53,67.73,13.1,102.13,14.78,36,1.76,71.62-2.76,107.23-7.13s71.63-7.89,107.56-4.66c30.78,2.76,60.82,10.35,91.24,15.4,75.34,12.5,153.12.19,228.9-2.24" transform="translate(7.9 16.93)" style="fill:none;stroke-miterlimit:10;stroke-width:0.5px;stroke:url(#at)"/><path d="M194.91,484.75c75.37-4.62,147.39-20,223.29-11.72,73.13,8,142.63,11.9,216.24,8.28,34.48-1.69,69.08-3.09,103.6-1.55,37,1.65,73.4,8.66,110.14,12.59,74.91,8,149.54-4.79,224.41-7.24" transform="translate(7.9 16.93)" style="fill:none;stroke-miterlimit:10;stroke-width:0.5px;stroke:url(#au)"/><path d="M187.57,488.06c74.65-2.58,147.85-15.67,222.75-10s147.93,9.27,223.11,8.4c75.77-.88,148.87,4.73,224.27,10.76,74.59,6,148.08-7.47,222.53-8.94" transform="translate(7.9 16.93)" style="fill:none;stroke-miterlimit:10;stroke-width:0.5px;stroke:url(#av)"/><path d="M187.59,491.29c71.8.7,143.5-4.23,215.32-3.22,77,1.07,153.61,2.6,230.6,1.24,75.76-1.34,149,4.2,224.46,9.74,76.88,5.66,153.19-7,230-7.49" transform="translate(7.9 16.93)" style="fill:none;stroke-miterlimit:10;stroke-width:0.5px;stroke:url(#aw)"/><path d="M193.83,494.18c68.44,1.77,136.74,5.26,205.2,3.17,78.26-2.39,156.53-3.42,234.79-5.62,76.82-2.16,151.32,3.45,227.87,8.11,78,4.75,156.06-5.18,234.09-5" transform="translate(7.9 16.93)" style="fill:none;stroke-miterlimit:10;stroke-width:0.5px;stroke:url(#ax)"/><path d="M201.5,497.17c65,.5,128.53,12.25,193.67,8.29,79.74-4.84,159.23-8.29,239.05-11.47,77.85-3.09,153.51,2.44,231.14,6.18,79.22,3.82,158.88-2.29,238.17-2" transform="translate(7.9 16.93)" style="fill:none;stroke-miterlimit:10;stroke-width:0.5px;stroke:url(#ay)"/><path d="M206,500.14C268.6,500,328.51,517,391.38,512.22c39.23-3,78.24-8.37,117.49-11,41.85-2.81,84-2.75,125.85-4.84C713.58,492.44,790.4,498,869.09,501c80.57,3.11,161.58.12,242.2.41" transform="translate(7.9 16.93)" style="fill:none;stroke-miterlimit:10;stroke-width:0.5px;stroke:url(#az)"/><path d="M203.69,503.1c63.73-.12,123.9,19.14,187.66,14,39.31-3.19,78.22-10.21,117.57-12.91,42-2.87,84.26-2.65,126.32-5,78.71-4.44,155.52,1,234.08,4,83.08,3.22,166.6,1.2,249.73,1.54" transform="translate(7.9 16.93)" style="fill:none;stroke-miterlimit:10;stroke-width:0.5px;stroke:url(#ba)"/><path d="M191,506.06c35,0,68,.43,102.23,7.83A321.41,321.41,0,0,0,384,520.35c41.81-2.8,83.12-10.8,125-13.59s84.43-2.53,126.54-4.7C716.27,497.9,795,504,875.5,506.58c83.67,2.68,167.65,1,251.35,1.34" transform="translate(7.9 16.93)" style="fill:none;stroke-miterlimit:10;stroke-width:0.5px;stroke:url(#bb)"/><path d="M171.57,509c37.05,0,73.37,0,110,5.91,33.05,5.35,65.27,8.77,98.82,6.83,41.26-2.38,82-9.78,123.24-12.86,43.7-3.27,88-2.56,131.76-4.36,80.93-3.33,160.16,3,240.9,5.31,86,2.42,172.25.93,258.27,1.33" transform="translate(7.9 16.93)" style="fill:none;stroke-miterlimit:10;stroke-width:0.5px;stroke:url(#bc)"/><path d="M149.94,512c40.73,0,80.84.11,121.36,4.63,35.17,3.92,70,7.27,105.48,5.7,43.11-1.91,85.71-9.56,128.75-12.39S592,508,635.05,506.78c81-2.3,160.58,4.35,241.41,6.33,88.54,2.18,177.29.84,265.86,1.31" transform="translate(7.9 16.93)" style="fill:none;stroke-miterlimit:10;stroke-width:0.5px;stroke:url(#bd)"/><path d="M129.64,515c81.09.12,162.61,11,243.52,8.06,42.55-1.53,84.65-8.52,127.09-11.48,44.61-3.12,89.7-1.68,134.41-2.39,81.25-1.29,161.36,5.61,242.42,7.21,91,1.79,182,.8,273,1.31" transform="translate(7.9 16.93)" style="fill:none;stroke-miterlimit:10;stroke-width:0.5px;stroke:url(#be)"/><path d="M113.56,517.94c85.25.22,170.81,8.73,256,6.56,44.36-1.14,88.27-8.24,132.51-11,44-2.8,88.38-1.29,132.43-1.59,82-.56,163,6.49,244.82,7.76,92.82,1.45,185.71.73,278.54,1.27" transform="translate(7.9 16.93)" style="fill:none;stroke-miterlimit:10;stroke-width:0.5px;stroke:url(#bf)"/><path d="M103.8,521c88.37.31,177.21,8.6,265.47,6.37,44.42-1.12,88.37-8.41,132.67-11.19,44-2.77,88.47-1.4,132.58-1.1,82.43.56,164.41,5.85,246.74,7.43,94.72,1.82,189.55,1.07,284.29,1.65" transform="translate(7.9 16.93)" style="fill:none;stroke-miterlimit:10;stroke-width:0.5px;stroke:url(#bg)"/><path d="M96.19,524c88.08.4,176.25,6.64,264.27,5.85,42-.38,83.44-7.17,125.13-11.13,46.32-4.41,92.65-2.52,139,0,182.28,10,366,7.51,548.7,8.61" transform="translate(7.9 16.93)" style="fill:none;stroke-miterlimit:10;stroke-width:0.5px;stroke:url(#bh)"/><path d="M88.49,527.09c89.33.47,178.83,5.15,268.12,4.25,43.9-.44,87-8,130.58-12.51,46.1-4.76,91.48-1.91,137.43,2.55,90.73,8.8,181.65,6.17,272.78,6.16,94.52,0,189.07,2.44,283.6,3" transform="translate(7.9 16.93)" style="fill:none;stroke-miterlimit:10;stroke-width:0.5px;stroke:url(#bi)"/><path d="M80.71,530.21c90.63.54,181.38,3.5,272,2.79,44.64-.34,88.24-8.29,132.47-13.33,47.18-5.36,92.61-1.8,139.46,4.47,94,12.58,186.81,5.51,281.24,5.55,94.25,0,188.56,3.51,282.83,4.09" transform="translate(7.9 16.93)" style="fill:none;stroke-miterlimit:10;stroke-width:0.5px;stroke:url(#bj)"/><path d="M72.82,533.39c92,.59,184,1.77,276,1.87,44.21,0,87.31-7.66,131-13,49.33-6.07,96-2.67,144.86,4.94,96.75,15,191.71,4.72,288.91,5.1,94.26.36,188.54,4.16,282.84,4.74" transform="translate(7.9 16.93)" style="fill:none;stroke-miterlimit:10;stroke-width:0.5px;stroke:url(#bk)"/><path d="M64.8,536.62q140,.95,280,.74c45.82-.13,91-7,136.53-11.1,48.74-4.39,95-1.4,143.38,5.17,99.07,13.47,197.83,6.4,297.43,6.23,94-.16,188,2,282,2.55" transform="translate(7.9 16.93)" style="fill:none;stroke-miterlimit:10;stroke-width:0.5px;stroke:url(#bl)"/><path d="M56.65,539.91c94.88.67,189.21-2.46,284-4,95.15-1.53,189-8.42,284,1.12,100.12,10.06,200.56,5.59,301,5.1,95.35-.46,190.77.74,286.12,1.29" transform="translate(7.9 16.93)" style="fill:none;stroke-miterlimit:10;stroke-width:0.5px;stroke:url(#bm)"/><path d="M48.33,543.28c48.73.33,97.66,1.87,146.37.43,49-1.44,97.49-9.09,146.45-10.6,96.89-3,196.11,1.69,292.76,8.55,96.84,6.87,194.16,3.66,291.18,3.58,98.12-.08,196.26.85,294.38,1.4" transform="translate(7.9 16.93)" style="fill:none;stroke-miterlimit:10;stroke-width:0.5px;stroke:url(#bn)"/><path d="M39.85,546.71c51,.34,102.67,3,153.62.14,46.89-2.6,92.91-13.07,139.73-16.38,51.37-3.64,102.68,6.09,153.62,11.31,48.66,5,97.82,3.92,146.68,5.44,197.61,6.16,395.92,1.62,593.63,2.64" transform="translate(7.9 16.93)" style="fill:none;stroke-miterlimit:10;stroke-width:0.5px;stroke:url(#bo)"/><path d="M31.18,550.23c51.15.32,102.81,2.66,153.92.45,49.61-2.14,97.63-16.62,147-20.73,49.82-4.15,98.09,8,146.93,15.87,50.91,8.18,102.56,5.8,154,6,200.6.86,401.2.31,601.79,1.23" transform="translate(7.9 16.93)" style="fill:none;stroke-miterlimit:10;stroke-width:0.5px;stroke:url(#bp)"/><path d="M22.31,553.83c50.79.28,101.69,1.47,152.47.68,51.54-.8,101.45-15.22,152.58-20,51.72-4.8,101.69,7.52,152.48,15.26,50.46,7.7,101.64,5.46,152.53,5.49q305,.19,610.05,1" transform="translate(7.9 16.93)" style="fill:none;stroke-miterlimit:10;stroke-width:0.5px;stroke:url(#bq)"/><path d="M13.23,557.55c50.93.23,101.88.63,152.82.58,51.46,0,101.79-10.14,152.92-14.42,51.61-4.32,101.77,3.78,152.84,10,53.13,6.46,106.41,5,159.83,5.06q309.21.13,618.4.77" transform="translate(7.9 16.93)" style="fill:none;stroke-miterlimit:10;stroke-width:0.5px;stroke:url(#br)"/><path d="M3.9,561.31c53.39.18,106.77.42,160.16.44,51.3,0,102.1-5.68,153.29-8.06,53.68-2.51,106.68,2.56,160.18,6.19,51,3.46,102.17,2.29,153.25,2.31q313.44.09,626.87.53" transform="translate(7.9 16.93)" style="fill:none;stroke-miterlimit:10;stroke-width:0.5px;stroke:url(#bs)"/><path d="M-5.67,565.21q160.71.3,321.23-2.28c104.69-1.52,209.51,2.73,314.23,2.74q317.73,0,635.46.27" transform="translate(7.9 16.93)" style="fill:none;stroke-miterlimit:10;stroke-width:0.5px;stroke:url(#bt)"/><path d="M262.7,471.35c-6.89-6.75-10.6-15.72-19.67-14.73s-18.12,12.61-25.43,17.72c-5.64,4-26,9.42-20.89,18.31,3.51,6.09,14.88.55,15.43,10.57-32,6-65.92,7.28-97.3,16.33-14,4-27.62,11-41.16,16.39q-40.77,16.41-81.49,33" transform="translate(7.9 16.93)" style="fill:none;stroke-miterlimit:10;stroke-width:0.5px;stroke:url(#bu)"/><path d="M271.54,473.33c-5.51-6.85-10.66-19.17-18.88-19.38-8.74-.23-18.31,13.45-24.78,18.51-5.65,4.42-26.2,11.26-20.57,20.47,3.48,5.7,14.17,1.95,17.29,10.31-32.32,6.22-66.57,7.18-98.22,16.31-13.83,4-27.31,11-40.69,16.4q-40.3,16.41-80.52,33" transform="translate(7.9 16.93)" style="fill:none;stroke-miterlimit:10;stroke-width:0.5px;stroke:url(#bv)"/><path d="M280.59,475.12c-4.52-6.23-11-23-18.34-23.91-8.42-1.09-18,13.93-23.92,19.12-5.61,4.9-26.16,13.3-20.27,22.84,2.89,4.67,14.2,4.47,18.49,10.14-32,6.46-66.15,7.07-97.53,16.29-13.54,4-26.73,11-39.8,16.4q-39.45,16.41-78.83,33" transform="translate(7.9 16.93)" style="fill:none;stroke-miterlimit:10;stroke-width:0.5px;stroke:url(#bw)"/><path d="M289.93,476.71c-15.78-23.8-12.23-39.26-37.11-12.79A111.59,111.59,0,0,1,227,487.34q5.42,12.57,19.67,13.84c-19.09,16.15-58.94,10.38-83.54,16-15.78,3.61-30.38,10.87-45.17,17.21Q77.74,551.61,37.59,569" transform="translate(7.9 16.93)" style="fill:none;stroke-miterlimit:10;stroke-width:0.5px;stroke:url(#bx)"/><path d="M299.62,478.09c-7.58-12.08-9-36.43-25.2-30.48-7.93,2.94-29.72,34.58-36.39,42.6A61.84,61.84,0,0,0,258.3,504C227.64,511,195,510.9,165,520.55c-11.42,3.68-22.93,10.2-34,15.11Q93.74,552.28,56.46,569" transform="translate(7.9 16.93)" style="fill:none;stroke-miterlimit:10;stroke-width:0.5px;stroke:url(#by)"/><path d="M309.74,479.24a85,85,0,0,1-16.8-36.3q-16.83-.6-21.45,19.1-11.52,13.56-22,27.9a43.12,43.12,0,0,0,18,15.22c-28.62,6.71-59.23,6.2-87.18,15.48-10.89,3.61-21.9,10.18-32.37,15.08L76.75,569" transform="translate(7.9 16.93)" style="fill:none;stroke-miterlimit:10;stroke-width:0.5px;stroke:url(#bz)"/><path d="M320.36,480.17a89.41,89.41,0,0,1-18.47-40.83q-17.43,4.94-22.25,24.49a48.13,48.13,0,0,0-17.59,30q12.81,4.25,10,14.74l-67.64,9.71c-36.66,11.43-71.85,33.8-106.27,50.67" transform="translate(7.9 16.93)" style="fill:none;stroke-miterlimit:10;stroke-width:0.5px;stroke:url(#ca)"/><path d="M331.56,480.86A94.7,94.7,0,0,1,311,435.66c-11.57,9.4-23.13,25.22-29.49,38.89-6.82,14.63-9.43,20.37,2.37,32.89-23.89,8.2-49.62,5.75-73.31,15-8.81,3.44-17.31,8.47-25.69,12.84-21.51,11.19-42.94,22.53-64.47,33.69" transform="translate(7.9 16.93)" style="fill:none;stroke-miterlimit:10;stroke-width:0.5px;stroke:url(#cb)"/><path d="M343.43,481.29A87.58,87.58,0,0,1,321,433.67c-12,9.41-21.38,25.53-27.7,39.55-6.45,14.29-9.87,21.76-1.49,35.94-21,8-43.44,5.55-64.49,13.94-8.22,3.27-16.18,8-23.93,12.24-20.19,11-40.11,22.53-60.25,33.64" transform="translate(7.9 16.93)" style="fill:none;stroke-miterlimit:10;stroke-width:0.5px;stroke:url(#cc)"/><path d="M356,481.46a95.8,95.8,0,0,1-25.69-51.12A91.44,91.44,0,0,0,308,468.6q-15.84,15.57-10,36.25,4.08,13.41-10.79,10.39l-37.56,6c-29.67,11.13-56.5,31.82-83.52,47.78" transform="translate(7.9 16.93)" style="fill:none;stroke-miterlimit:10;stroke-width:0.5px;stroke:url(#cd)"/><path d="M363.82,481.27a232,232,0,0,1-24.31-53.43,221.16,221.16,0,0,0-22.77,45q-11.13,13.76-8.92,30,3.66,10.91-8.17,14.33a71.52,71.52,0,0,0-32.57,5.73c-29.58,10-52.81,28.75-78,46.09" transform="translate(7.9 16.93)" style="fill:none;stroke-miterlimit:10;stroke-width:0.5px;stroke:url(#ce)"/><path d="M371.73,480.82q-11.52-26.91-23.25-53.75c-11.57,25-23.42,48.67-30.35,75.36q2,19.89-18.16,17.3l-19.51,4.12c-26.83,10.34-47.54,26.61-68.84,45.15" transform="translate(7.9 16.93)" style="fill:none;stroke-miterlimit:10;stroke-width:0.5px;stroke:url(#cf)"/><path d="M379.74,480.12a228.23,228.23,0,0,0-22.8-51.39q-10.14,28.89-22.66,56.82Q331,497.94,327.7,510.3c-6.73,13.34-19.19,10.32-31.3,15-9.79,3.75-18.37,10.07-28.44,13.38-16.63,5.46-22.55,17-34.39,30.35" transform="translate(7.9 16.93)" style="fill:none;stroke-miterlimit:10;stroke-width:0.5px;stroke:url(#cg)"/><path d="M387.91,479.17q-3.18-27.57-22.21-46.58-7.56,24.59-16.78,48.58-6.72,18.12-13.51,36.19c-6.26,5-17.4,5.93-24.64,9.09-9.74,4.26-18.43,7.79-27.63,11C270.29,542,263,556.8,254.6,569" transform="translate(7.9 16.93)" style="fill:none;stroke-miterlimit:10;stroke-width:0.5px;stroke:url(#ch)"/><path d="M396.28,478q-2.23-25.92-19.63-44.16c-5.21,15.6-16.2,71.65-30.12,84.23-4.94,4.47-14.59,6.06-20.54,8.9a152.51,152.51,0,0,1-15.1,7.9q-4.8,4.38-10.21.9-12.75-6.45-15.6,14.29-5.31,9.51-10.67,18.92" transform="translate(7.9 16.93)" style="fill:none;stroke-miterlimit:10;stroke-width:0.5px;stroke:url(#ci)"/><path d="M404.9,476.55q5.4-31.17-19.07-36.2c-6.35,18.48-12.71,57.38-26.25,73.7-7.18,8.65-10.4,8.23-20.12,13.31q-7.32,5.26-15.08,9.87L314,532c-8.38,1-18.61,31.14-21.33,36.94" transform="translate(7.9 16.93)" style="fill:none;stroke-miterlimit:10;stroke-width:0.5px;stroke:url(#cj)"/><path d="M413.82,475q6.09-29.06-16.64-32.47L385.57,474.2c-7.31,21.51-7.07,36.33-23.1,48.65-3,2.28-18.88,14.44-23.57,14.43q-9.73-14-14.62.19A77.18,77.18,0,0,0,309.22,569" transform="translate(7.9 16.93)" style="fill:none;stroke-miterlimit:10;stroke-width:0.5px;stroke:url(#ck)"/><path d="M423.08,473.14c-4.39-22-8.89-42-20.56-13.19-6.48,16-8.45,39.77-19.21,53.31-6.28,7.91-13.07,12.29-22.28,17.67-10.18,6-8.72,6.73-18.34-1.26A90.41,90.41,0,0,0,323.62,569" transform="translate(7.9 16.93)" style="fill:none;stroke-miterlimit:10;stroke-width:0.5px;stroke:url(#cl)"/><path d="M432.73,471.12C429,448.86,425,437,413.5,461.76c-7.17,15.47-9,37.47-19.4,50.87-6.09,7.83-12.92,12.53-21.84,18-10.09,6.17-8.5,6.93-18-1.33A86.53,86.53,0,0,0,335.64,569" transform="translate(7.9 16.93)" style="fill:none;stroke-miterlimit:10;stroke-width:0.5px;stroke:url(#cm)"/><path d="M442.7,469c-7.41-54.79-29.72,31.66-38.41,42.91-6,7.78-13,12.75-21.76,18.22-9.79,6.1-8.32,7.06-17.88-.55A79.9,79.9,0,0,0,346.18,569" transform="translate(7.9 16.93)" style="fill:none;stroke-miterlimit:10;stroke-width:0.5px;stroke:url(#cn)"/><path d="M452.68,466.79l-1.07-14c-19.58-3.34-27.66,40.53-32.4,50.76-5,10.79-8.94,12.2-17,18.45a160,160,0,0,1-13,10.65q-4.14,6.45-8.77.42-9.33-9.32-13.38,9.71-4.57,13.11-9.13,26.23" transform="translate(7.9 16.93)" style="fill:none;stroke-miterlimit:10;stroke-width:0.5px;stroke:url(#co)"/><path d="M462.67,464.64l.43-10c-19.84.51-27,35.8-32.79,48.1-4.84,10.26-9,11.83-16.38,18.18q-6,5.61-12.52,10.59-3.57,5.9-8.47,1.42Q383.13,526,380,543.37q-4.41,12.81-8.83,25.58" transform="translate(7.9 16.93)" style="fill:none;stroke-miterlimit:10;stroke-width:0.5px;stroke:url(#cp)"/><path d="M472.66,462.55l2-6c-19.7,5.39-25.59,30.22-32.85,45.43-4.57,9.57-8.68,11.56-15.59,17.76q-5.75,5.46-11.92,10.43-3,5-8.07,2.69-10.22-3.45-12.35,11.6-4.23,12.25-8.44,24.52" transform="translate(7.9 16.93)" style="fill:none;stroke-miterlimit:10;stroke-width:0.5px;stroke:url(#cq)"/><path d="M482.65,460.64l4.11-3.1c-14.67,12-23,23.58-31.95,39.65-5.5,9.84-7.5,15.1-16.08,22.64-6.29,5.54-14.53,8.53-20.67,13.85-10.58,9.17-12.94,22.56-17.3,35.28" transform="translate(7.9 16.93)" style="fill:none;stroke-miterlimit:10;stroke-width:0.5px;stroke:url(#cr)"/><path d="M492.64,458.9l5.94.77c-13.09,11.88-23,22.24-31.66,37.13-5,8.68-7.16,14.61-14.85,21.51C433.43,535,425.45,544.17,416.87,569" transform="translate(7.9 16.93)" style="fill:none;stroke-miterlimit:10;stroke-width:0.5px;stroke:url(#cs)"/><path d="M502.62,457.39l7.72,4.23c-11.59,11.74-22.88,21-31.09,34.79-4.57,7.67-6.72,14-13.49,20.36-16.63,15.6-24.4,30.14-32.14,52.2" transform="translate(7.9 16.93)" style="fill:none;stroke-miterlimit:10;stroke-width:0.5px;stroke:url(#ct)"/><path d="M512.61,456.17,522,463.3C511.67,475,499.52,483.09,491.74,496c-4.11,6.82-6.12,13.44-12,19.29C464.84,530,458.1,548.71,450.88,569" transform="translate(7.9 16.93)" style="fill:none;stroke-miterlimit:10;stroke-width:0.5px;stroke:url(#cu)"/><path d="M522.59,455.29q18,6,6.52,14.92a53.72,53.72,0,0,1-22.18,18.62c-4.49,6.55-5.48,14.93-10.46,21.59-6.81,9.11-8.79,8.67-13.58,18.76-6,12.52-9.82,26.7-14.53,39.81" transform="translate(7.9 16.93)" style="fill:none;stroke-miterlimit:10;stroke-width:0.5px;stroke:url(#cv)"/><path d="M532.57,454.8l13.44,12c-16.63,14.4-28.43,26.76-38.29,46q-10.19,7.14-10.45,20.66A272.39,272.39,0,0,1,486,569" transform="translate(7.9 16.93)" style="fill:none;stroke-miterlimit:10;stroke-width:0.5px;stroke:url(#cw)"/><path d="M542.55,454.64,557,467.42c-16,14.31-26.86,25.22-35.19,44.67-7.61,17.76-11.73,37.79-18.26,56.91" transform="translate(7.9 16.93)" style="fill:none;stroke-miterlimit:10;stroke-width:0.5px;stroke:url(#cx)"/><path d="M552.55,454l15,13c-14.91,14.89-24.85,25.15-31.64,44.83-6.23,18.06-9.07,38.22-14.9,57.17" transform="translate(7.9 16.93)" style="fill:none;stroke-miterlimit:10;stroke-width:0.5px;stroke:url(#cy)"/><path d="M562.55,452.78c23,19.83,10.22,14.51-2.26,33.45-5.23,7.94-6.61,13.11-9.24,22.24-5.66,19.68-7.93,40.28-13,60.51" transform="translate(7.9 16.93)" style="fill:none;stroke-miterlimit:10;stroke-width:0.5px;stroke:url(#cz)"/><path d="M572.54,451.06c22.35,19.53,10.39,14.91-.7,34.74-4.56,8.15-5.71,13.31-7.59,22.49-4.11,20-5.91,40.47-9.77,60.69" transform="translate(7.9 16.93)" style="fill:none;stroke-miterlimit:10;stroke-width:0.5px;stroke:url(#da)"/><path d="M582.54,448.91c21.36,19.19,10.06,15.7.57,36.3-3.84,8.34-4.81,13.68-6,22.81-2.69,20.23-4.12,40.68-6.87,61" transform="translate(7.9 16.93)" style="fill:none;stroke-miterlimit:10;stroke-width:0.5px;stroke:url(#db)"/><path d="M592.52,446.42q21.39,7.72,9.55,21.65-3.93,8.25-8,16.44c-3.13,8.49-3.93,14.16-4.61,23.2-1.52,20.36-2.65,40.89-4.42,61.27" transform="translate(7.9 16.93)" style="fill:none;stroke-miterlimit:10;stroke-width:0.5px;stroke:url(#dc)"/><path d="M602.51,443.65q19.65,8,9.11,22.34-3.39,8.91-6.9,17.74c-2.5,8.66-3,14.68-3.4,23.63-1,20.5-1.53,41.09-2.51,61.62" transform="translate(7.9 16.93)" style="fill:none;stroke-miterlimit:10;stroke-width:0.5px;stroke:url(#dd)"/><path d="M612.49,440.68c19.42,21.35,3.41,22.09-.37,47.7-.84,5.69.68,12.75.53,18.62-.53,20.63-.93,41.31-1.32,62" transform="translate(7.9 16.93)" style="fill:none;stroke-miterlimit:10;stroke-width:0.5px;stroke:url(#de)"/><path d="M622.47,437.55c17.21,21.4,2.36,25.19-.12,50.63-.57,5.77.91,12.51.82,18.43-.3,20.74-.7,41.54-.74,62.33" transform="translate(7.9 16.93)" style="fill:none;stroke-miterlimit:10;stroke-width:0.5px;stroke:url(#df)"/><path d="M632.45,434.45c10,14.46,7.81,24.62,3.2,41.77-3.19,11.87-2,18.14-2.14,30.08-.21,20.84-.67,41.77-.55,62.68" transform="translate(7.9 16.93)" style="fill:none;stroke-miterlimit:10;stroke-width:0.5px;stroke:url(#dg)"/><path d="M642.44,431.35c8.88,14.88,6.49,26.76,3.14,43.75-2.41,12.2-1.08,18.8-1,30.83.2,20.95-.17,42,.37,63.05" transform="translate(7.9 16.93)" style="fill:none;stroke-miterlimit:10;stroke-width:0.5px;stroke:url(#dh)"/><path d="M652.42,428.34c11.44,22.49.1,29.13,1.47,55.75.37,7.26,2.17,14.34,2.44,21.48.77,21,.81,42.29,2.09,63.41" transform="translate(7.9 16.93)" style="fill:none;stroke-miterlimit:10;stroke-width:0.5px;stroke:url(#di)"/><path d="M662.41,425.55c12.11,17.59.37,39.76,2.64,58.34.9,7.3,3.12,14.15,3.69,21.35,1.67,21.07,2.13,42.56,4.32,63.77" transform="translate(7.9 16.93)" style="fill:none;stroke-miterlimit:10;stroke-width:0.5px;stroke:url(#dj)"/><path d="M672.39,423c11.13,19,.2,40.81,4.13,60.71,1.46,7.42,4.41,13.78,5.13,21.22,2.08,21.34,3.81,42.74,7.08,64.1" transform="translate(7.9 16.93)" style="fill:none;stroke-miterlimit:10;stroke-width:0.5px;stroke:url(#dk)"/><path d="M682.39,420.72c10.45,20.14.12,41.83,5.85,62.8,2,7.48,5.59,13.52,6.74,21.1,3.26,21.46,5.78,42.92,10.27,64.36" transform="translate(7.9 16.93)" style="fill:none;stroke-miterlimit:10;stroke-width:0.5px;stroke:url(#dl)"/><path d="M692.38,418.9c10.06,20.8.46,43.45,7.79,64.56,2.62,7.53,6.82,13.26,8.45,21,4.55,21.56,8,43.05,13.82,64.53" transform="translate(7.9 16.93)" style="fill:none;stroke-miterlimit:10;stroke-width:0.5px;stroke:url(#dm)"/><path d="M702.38,417.55c9,20.07,4.27,36,9.08,58.63,2.49,11.72,7.42,17.51,11.18,28.21,4.12,11.71,11,24.83,13.93,36.7,2.28,9.1-.88,17.81,3.53,27.89" transform="translate(7.9 16.93)" style="fill:none;stroke-miterlimit:10;stroke-width:0.5px;stroke:url(#dn)"/><path d="M712.38,416.77c9.79,20.66,5.22,35.72,11.16,59.49,2.72,10.87,8.24,18.55,12.87,28.28q1.33,4.89,2.68,9.75A158.85,158.85,0,0,1,759.75,541l-6.21,9a30.93,30.93,0,0,0,4.53,18.9" transform="translate(7.9 16.93)" style="fill:none;stroke-miterlimit:10;stroke-width:0.5px;stroke:url(#do)"/><path d="M722.36,416.63c10.69,20.25,6.54,36.81,13.24,59.88,3,10.36,9.28,19.29,14.41,28.41l3.56,9.83a108.88,108.88,0,0,1,27.65,26.12l-9.83,9.21a23.66,23.66,0,0,0,4.78,18.9" transform="translate(7.9 16.93)" style="fill:none;stroke-miterlimit:10;stroke-width:0.5px;stroke:url(#dp)"/><path d="M732.13,417.26c12.66,24.43,11.36,52.73,24.43,76.07,2.72,4.86,5.66,12,8.92,17.09,7.68,12,24.69,19.72,35.45,30.19-9.94,7.73-19.29,16-6.72,28.37" transform="translate(7.9 16.93)" style="fill:none;stroke-miterlimit:10;stroke-width:0.5px;stroke:url(#dq)"/><path d="M741.63,418.6c11.54,24.95,13.86,52.59,27.75,75.44,2.93,4.82,5.91,12,9.4,17.1,8.31,12.07,28.17,19.12,40.09,29.15-10.4,7.63-21.11,16.24-6.86,28.69" transform="translate(7.9 16.93)" style="fill:none;stroke-miterlimit:10;stroke-width:0.5px;stroke:url(#dr)"/><path d="M750.9,420.55c8.12,16.51,11.6,33.85,17.4,51.17,5,14.79,13.24,23.77,20.89,35.21q-1.11,11.82,14.28,14.48,23.35-1.18,27.42,15.93,6.76,11-11.09,14.07A48.46,48.46,0,0,0,829.39,569" transform="translate(7.9 16.93)" style="fill:none;stroke-miterlimit:10;stroke-width:0.5px;stroke:url(#ds)"/><path d="M760,423.06c7.66,16.35,12.27,33.78,19.13,50.42,5.76,14,15.12,23.33,22.58,34.27q-1.53,12,14.62,14.2,23.13-1.89,28.82,15.06,8,10.41-9.74,14.4A57.14,57.14,0,0,0,846.17,569" transform="translate(7.9 16.93)" style="fill:none;stroke-miterlimit:10;stroke-width:0.5px;stroke:url(#dt)"/><path d="M768.88,426c7.11,16.36,12.8,33.38,20.78,49.38q3.09,17,17.84,21.24,7.82,4.25,6.28,11.93-2,12,14.53,13.9,22.32-2.1,29.55,14.26,9.07,9.46-7.66,14.68a71.62,71.62,0,0,0,12,17.59" transform="translate(7.9 16.93)" style="fill:none;stroke-miterlimit:10;stroke-width:0.5px;stroke:url(#du)"/><path d="M777.66,429.28c6.53,16.61,13.15,32.61,22.31,48q4.46,16.53,19.32,20.15,8,4.15,6.17,11.83-2.43,11.79,14.08,13.6,21.16-1.93,29.68,13.54,9.93,8.34-5.08,14.94a94.48,94.48,0,0,0,13.07,17.59" transform="translate(7.9 16.93)" style="fill:none;stroke-miterlimit:10;stroke-width:0.5px;stroke:url(#dv)"/><path d="M786.35,432.83A183.72,183.72,0,0,0,810,479.27q5.69,15.94,20.62,19,8.22,4.08,6,11.7Q833.83,521.4,850,523.29q19.9-1.47,29.31,12.94,10.47,7.14-2.23,15.14a135.58,135.58,0,0,0,14,17.59" transform="translate(7.9 16.93)" style="fill:none;stroke-miterlimit:10;stroke-width:0.5px;stroke:url(#dw)"/><path d="M795,436.55c5.09,17.57,13.32,30.24,24.84,44.59q6.75,15.33,21.68,17.89,8.29,4,5.8,11.55-3.18,11,12.34,13.07,18.58-.84,28.51,12.47,10.71,6,.7,15.29A216.34,216.34,0,0,0,903.67,569" transform="translate(7.9 16.93)" style="fill:none;stroke-miterlimit:10;stroke-width:0.5px;stroke:url(#dx)"/><path d="M803.56,440.32c4.1,18.06,13.31,28.9,25.74,42.53q7.59,14.7,22.48,16.8,8.31,4,5.51,11.4-3.51,10.38,11.17,12.84,17.28-.09,27.38,12.15,10.67,5.15,3.5,15.37,7.5,9,15.4,17.57" transform="translate(7.9 16.93)" style="fill:none;stroke-miterlimit:10;stroke-width:0.5px;stroke:url(#dy)"/><path d="M812.16,444.09c3,18.4,13.57,27.63,26.68,40.36q8.34,14.1,23.19,15.76,8.34,3.94,5.3,11.22-3.68,9.75,9.9,12.66,15.87.84,26,11.92,10.35,4.5,6.8,15.39,7.65,8.94,15.63,17.58" transform="translate(7.9 16.93)" style="fill:none;stroke-miterlimit:10;stroke-width:0.5px;stroke:url(#dz)"/><path d="M820.8,447.76c2.28,18.56,14.58,26.55,28.19,38.2q9.22,13.76,24.32,14.73,8.48,3.76,5.45,11-3.46,9.09,8.62,12.51a47.86,47.86,0,0,1,26.7,11.7c9.91,10,14.09,21.26,25.09,33" transform="translate(7.9 16.93)" style="fill:none;stroke-miterlimit:10;stroke-width:0.5px;stroke:url(#ea)"/><path d="M829.51,451.22c2,18.56,16.38,25.61,30.25,36.08q10.18,13.5,25.67,13.75,8.76,3.42,6,10.84-3,9.21,9.1,12.36A47.85,47.85,0,0,1,928,536c10.3,9.95,15.69,21.61,26.88,33" transform="translate(7.9 16.93)" style="fill:none;stroke-miterlimit:10;stroke-width:0.5px;stroke:url(#eb)"/><path d="M838.34,454.4c2.2,18.32,18.87,24.63,32.78,33.94q11.19,13.41,27.22,12.88,8.88,3,7.08,10.69-1.92,9.65,10.43,12.35a49.86,49.86,0,0,1,27.44,11.85C954.18,546,961,558,972.56,569" transform="translate(7.9 16.93)" style="fill:none;stroke-miterlimit:10;stroke-width:0.5px;stroke:url(#ec)"/><path d="M847.3,457.2c6,20.83,33.47,34.17,52.53,41.74l8.77,2.24q11.43-.54,11.67,10.73,1.22,10.19,11.25,11.43a202,202,0,0,0,25.59,9.59,41.8,41.8,0,0,1,16.34,19.71q9.27,8.13,18.44,16.34" transform="translate(7.9 16.93)" style="fill:none;stroke-miterlimit:10;stroke-width:0.5px;stroke:url(#ed)"/><path d="M856.44,459.55c7.65,19.67,38,32.39,56.4,39.33l9.53,2.16q11.73-.42,13.74,10.91,3,9.8,13,11.52,12.42,5.64,25.32,10c13.84,8.64,25.34,24.91,38.2,35.49" transform="translate(7.9 16.93)" style="fill:none;stroke-miterlimit:10;stroke-width:0.5px;stroke:url(#ee)"/><path d="M865.79,461.28c17.24,30,64.54,29,87.06,50.65,13.18,12.62,29.93,14.34,44.42,25.25,12.86,9.67,24.1,21.93,37.08,31.8" transform="translate(7.9 16.93)" style="fill:none;stroke-miterlimit:10;stroke-width:0.5px;stroke:url(#ef)"/><path d="M875.38,462.38C889.47,476.93,912,484,929.54,492.46a39.16,39.16,0,0,0,24.18,8.09,22.58,22.58,0,0,1,16,11.41c15.32,10.59,34.18,16.68,49.06,28,12.72,9.7,24.91,19.75,38.07,29" transform="translate(7.9 16.93)" style="fill:none;stroke-miterlimit:10;stroke-width:0.5px;stroke:url(#eg)"/><path d="M885.25,462.73c15.9,11.14,34.37,18.14,51.85,26.31,17.73,8.28,34.66,11.26,50.22,22.92,14.57,10.91,31.35,16.7,46.75,26.3S1064.53,559,1079.91,569" transform="translate(7.9 16.93)" style="fill:none;stroke-miterlimit:10;stroke-width:0.5px;stroke:url(#eh)"/><path d="M895.41,462.65C930.08,482.56,972.18,490,1004.66,512c31,21,66.23,37.46,98.45,57" transform="translate(7.9 16.93)" style="fill:none;stroke-miterlimit:10;stroke-width:0.5px;stroke:url(#ei)"/><path d="M905.84,462.44C943.48,480.62,986.67,490.3,1022,512c33.56,20.59,69.85,37.53,104.14,57" transform="translate(7.9 16.93)" style="fill:none;stroke-miterlimit:10;stroke-width:0.5px;stroke:url(#ej)"/><path d="M916.5,462.12c40.58,17.08,84,29.14,122.72,49.9,36.28,19.45,73.3,37.57,109.64,57" transform="translate(7.9 16.93)" style="fill:none;stroke-miterlimit:10;stroke-width:0.5px;stroke:url(#ek)"/><path d="M927.37,461.71c42.66,16.84,87.21,29.78,128.26,50.33,38.31,19.17,77,37.62,115.2,56.94" transform="translate(7.9 16.93)" style="fill:none;stroke-miterlimit:10;stroke-width:0.5px;stroke:url(#el)"/><path d="M938.41,461.21c44.68,16.16,90,30.59,133.07,50.86,40.15,18.89,80.35,37.66,120.33,56.91" transform="translate(7.9 16.93)" style="fill:none;stroke-miterlimit:10;stroke-width:0.5px;stroke:url(#em)"/><path d="M949.59,460.65c90.5,28.18,176,68.65,261.9,108.33" transform="translate(7.9 16.93)" style="fill:none;stroke-miterlimit:10;stroke-width:0.5px;stroke:url(#en)"/><path d="M960.86,460c92.61,28,180.52,69.55,268.73,108.94" transform="translate(7.9 16.93)" style="fill:none;stroke-miterlimit:10;stroke-width:0.5px;stroke:url(#eo)"/><path d="M972.2,459.41c94,28.09,183.74,70.46,273.61,109.57" transform="translate(7.9 16.93)" style="fill:none;stroke-miterlimit:10;stroke-width:0.5px;stroke:url(#ep)"/><path d="M983.58,458.75C1078.29,487.26,1169,530.12,1259.86,569" transform="translate(7.9 16.93)" style="fill:none;stroke-miterlimit:10;stroke-width:0.5px;stroke:url(#eq)"/></g><circle cx="845.85" cy="207.31" r="72.91" transform="translate(109.05 675.76) rotate(-45)" style="fill:none;stroke-miterlimit:10.000000063435358;stroke:url(#er)"/><circle cx="853.7" cy="224.22" r="70.07" style="fill:none;stroke-miterlimit:10;stroke-width:0.9739999771118164px;stroke:url(#es)"/><circle cx="853.7" cy="224.22" r="67.22" style="fill:none;stroke-miterlimit:10;stroke-width:0.9480000138282776px;stroke:url(#et)"/><circle cx="853.7" cy="224.22" r="64.38" style="fill:none;stroke-miterlimit:10;stroke-width:0.921999990940094px;stroke:url(#eu)"/><circle cx="853.7" cy="224.22" r="61.53" style="fill:none;stroke-miterlimit:10;stroke-width:0.8960000276565552px;stroke:url(#ev)"/><circle cx="853.7" cy="224.22" r="58.69" style="fill:none;stroke-miterlimit:10;stroke-width:0.8700000047683716px;stroke:url(#ew)"/><circle cx="853.7" cy="224.22" r="55.84" style="fill:none;stroke-miterlimit:10;stroke-width:0.843999981880188px;stroke:url(#ex)"/><circle cx="853.7" cy="224.22" r="53" style="fill:none;stroke-miterlimit:10;stroke-width:0.8180000185966492px;stroke:url(#ey)"/><circle cx="853.7" cy="224.22" r="50.16" style="fill:none;stroke-miterlimit:10;stroke-width:0.7919999957084656px;stroke:url(#ez)"/><circle cx="853.7" cy="224.22" r="47.31" style="fill:none;stroke-miterlimit:10;stroke-width:0.765999972820282px;stroke:url(#fa)"/><circle cx="853.7" cy="224.22" r="44.47" style="fill:none;stroke-miterlimit:10;stroke-width:0.7400000095367432px;stroke:url(#fb)"/><circle cx="853.7" cy="224.22" r="41.62" style="fill:none;stroke-miterlimit:10;stroke-width:0.7139999866485596px;stroke:url(#fc)"/><circle cx="853.7" cy="224.22" r="38.78" style="fill:none;stroke-miterlimit:10;stroke-width:0.6880000233650208px;stroke:url(#fd)"/><circle cx="853.7" cy="224.22" r="35.93" style="fill:none;stroke-miterlimit:10;stroke-width:0.6620000004768372px;stroke:url(#fe)"/><circle cx="853.7" cy="224.22" r="33.09" style="fill:none;stroke-miterlimit:10;stroke-width:0.6359999775886536px;stroke:url(#ff)"/><circle cx="853.7" cy="224.22" r="30.25" style="fill:none;stroke-miterlimit:10;stroke-width:0.6100000143051147px;stroke:url(#fg)"/><circle cx="853.7" cy="224.22" r="27.4" style="fill:none;stroke-miterlimit:10;stroke-width:0.5839999914169312px;stroke:url(#fh)"/><circle cx="853.7" cy="224.22" r="24.56" style="fill:none;stroke-miterlimit:10;stroke-width:0.5580000281333923px;stroke:url(#fi)"/><circle cx="853.7" cy="224.22" r="21.71" style="fill:none;stroke-miterlimit:10;stroke-width:0.5320000052452087px;stroke:url(#fj)"/><circle cx="853.7" cy="224.22" r="18.87" style="fill:none;stroke-miterlimit:10;stroke-width:0.5059999823570251px;stroke:url(#fk)"/><circle cx="853.7" cy="224.22" r="16.02" style="fill:none;stroke-miterlimit:10;stroke-width:0.47999998927116394px;stroke:url(#fl)"/><circle cx="853.7" cy="224.22" r="13.18" style="fill:none;stroke-miterlimit:10;stroke-width:0.45399999618530273px;stroke:url(#fm)"/><circle cx="853.7" cy="224.22" r="10.34" style="fill:none;stroke-miterlimit:10;stroke-width:0.42800000309944153px;stroke:url(#fn)"/><circle cx="853.7" cy="224.22" r="7.49" style="fill:none;stroke-miterlimit:10;stroke-width:0.4020000100135803px;stroke:url(#fo)"/><path d="M845.8,211.94a4.65,4.65,0,1,1,4.65-4.65,4.65,4.65,0,0,1-4.65,4.65Z" transform="translate(7.9 16.93)" style="fill:none;stroke-miterlimit:10;stroke-width:0.37599998712539673px;stroke:url(#fp)"/><path d="M847.6,207.29a1.8,1.8,0,1,1-1.8-1.8h0A1.8,1.8,0,0,1,847.6,207.29Z" transform="translate(7.9 16.93)" style="fill:none;stroke-miterlimit:10;stroke-width:0.3499999940395355px;stroke:url(#fq)"/><path d="M341.85,408.32a2.61,2.61,0,1,0,2.61,2.61h0A2.61,2.61,0,0,0,341.85,408.32Z" transform="translate(7.9 16.93)" style="fill:url(#fr)"/><path d="M356.6,408.32a2.61,2.61,0,1,0,2.61,2.61h0a2.6,2.6,0,0,0-2.59-2.61Z" transform="translate(7.9 16.93)" style="fill:url(#fs)"/><path d="M371.36,408.32a2.61,2.61,0,1,0,2.61,2.61h0A2.61,2.61,0,0,0,371.36,408.32Z" transform="translate(7.9 16.93)" style="fill:url(#ft)"/><path d="M386.11,408.32a2.61,2.61,0,1,0,2.61,2.61h0a2.6,2.6,0,0,0-2.59-2.61Z" transform="translate(7.9 16.93)" style="fill:url(#fu)"/><path d="M400.87,408.32a2.61,2.61,0,1,0,2.61,2.61h0A2.61,2.61,0,0,0,400.87,408.32Z" transform="translate(7.9 16.93)" style="fill:url(#fv)"/><path d="M415.62,408.32a2.61,2.61,0,1,0,2.61,2.61h0A2.61,2.61,0,0,0,415.62,408.32Z" transform="translate(7.9 16.93)" style="fill:url(#fw)"/><path d="M430.38,408.32a2.61,2.61,0,1,0,2.61,2.61h0A2.61,2.61,0,0,0,430.38,408.32Z" transform="translate(7.9 16.93)" style="fill:url(#fx)"/><path d="M445.13,408.32a2.61,2.61,0,1,0,2.61,2.61h0A2.61,2.61,0,0,0,445.13,408.32Z" transform="translate(7.9 16.93)" style="fill:url(#fy)"/><path d="M459.89,408.32a2.61,2.61,0,1,0,2.61,2.61h0A2.61,2.61,0,0,0,459.89,408.32Z" transform="translate(7.9 16.93)" style="fill:url(#fz)"/><path d="M474.64,408.32a2.61,2.61,0,1,0,2.61,2.61h0A2.61,2.61,0,0,0,474.64,408.32Z" transform="translate(7.9 16.93)" style="fill:url(#ga)"/><path d="M489.4,408.32a2.61,2.61,0,1,0,2.61,2.61h0A2.61,2.61,0,0,0,489.4,408.32Z" transform="translate(7.9 16.93)" style="fill:url(#gb)"/><path d="M504.15,408.32a2.61,2.61,0,1,0,2.61,2.61h0A2.61,2.61,0,0,0,504.15,408.32Z" transform="translate(7.9 16.93)" style="fill:url(#gc)"/><path d="M518.91,408.32a2.61,2.61,0,1,0,2.61,2.61h0A2.61,2.61,0,0,0,518.91,408.32Z" transform="translate(7.9 16.93)" style="fill:url(#gd)"/><path d="M533.66,408.32a2.61,2.61,0,1,0,2.61,2.61h0A2.61,2.61,0,0,0,533.66,408.32Z" transform="translate(7.9 16.93)" style="fill:url(#ge)"/><path d="M548.42,413.55a2.61,2.61,0,1,0-2.61-2.61h0A2.61,2.61,0,0,0,548.42,413.55Z" transform="translate(7.9 16.93)" style="fill:url(#gf)"/><path d="M341.85,420.89a2.61,2.61,0,1,0,2.61,2.66,2.61,2.61,0,0,0-2.61-2.66Z" transform="translate(7.9 16.93)" style="fill:url(#gg)"/><path d="M356.6,420.89a2.61,2.61,0,1,0,2.61,2.61h0a2.6,2.6,0,0,0-2.59-2.61Z" transform="translate(7.9 16.93)" style="fill:url(#gh)"/><path d="M371.36,420.89A2.61,2.61,0,1,0,374,423.5h0A2.61,2.61,0,0,0,371.36,420.89Z" transform="translate(7.9 16.93)" style="fill:url(#gi)"/><path d="M386.11,420.89a2.61,2.61,0,1,0,2.61,2.61h0a2.6,2.6,0,0,0-2.59-2.61Z" transform="translate(7.9 16.93)" style="fill:url(#gj)"/><path d="M400.87,420.89a2.61,2.61,0,1,0,2.61,2.61h0A2.61,2.61,0,0,0,400.87,420.89Z" transform="translate(7.9 16.93)" style="fill:url(#gk)"/><path d="M415.62,420.89a2.59,2.59,0,1,0,.05,0Z" transform="translate(7.9 16.93)" style="fill:url(#gl)"/><path d="M430.38,420.89a2.6,2.6,0,1,0,.1,0Z" transform="translate(7.9 16.93)" style="fill:url(#gm)"/><path d="M445.13,420.89a2.61,2.61,0,1,0,2.61,2.61h0A2.61,2.61,0,0,0,445.13,420.89Z" transform="translate(7.9 16.93)" style="fill:url(#gn)"/><path d="M459.89,420.89a2.61,2.61,0,1,0,2.61,2.61h0A2.61,2.61,0,0,0,459.89,420.89Z" transform="translate(7.9 16.93)" style="fill:url(#go)"/><path d="M474.64,420.89a2.61,2.61,0,1,0,2.61,2.61h0A2.61,2.61,0,0,0,474.64,420.89Z" transform="translate(7.9 16.93)" style="fill:url(#gp)"/><path d="M489.4,420.89a2.59,2.59,0,1,0,.08,0Z" transform="translate(7.9 16.93)" style="fill:url(#gq)"/><path d="M504.15,420.89a2.61,2.61,0,1,0,2.61,2.61h0A2.61,2.61,0,0,0,504.15,420.89Z" transform="translate(7.9 16.93)" style="fill:url(#gr)"/><path d="M518.91,420.89a2.61,2.61,0,1,0,2.61,2.61h0A2.61,2.61,0,0,0,518.91,420.89Z" transform="translate(7.9 16.93)" style="fill:url(#gs)"/><path d="M533.66,420.89a2.61,2.61,0,1,0,2.61,2.61h0A2.61,2.61,0,0,0,533.66,420.89Z" transform="translate(7.9 16.93)" style="fill:url(#gt)"/><path d="M548.42,420.89a2.59,2.59,0,1,0,.05,0Z" transform="translate(7.9 16.93)" style="fill:url(#gu)"/><path d="M341.85,433.46a2.61,2.61,0,1,0,2.61,2.61h0A2.61,2.61,0,0,0,341.85,433.46Z" transform="translate(7.9 16.93)" style="fill:url(#gv)"/><path d="M356.6,433.46a2.61,2.61,0,1,0,2.61,2.61h0a2.6,2.6,0,0,0-2.59-2.61Z" transform="translate(7.9 16.93)" style="fill:url(#gw)"/><path d="M371.36,433.46a2.61,2.61,0,1,0,2.61,2.61h0A2.61,2.61,0,0,0,371.36,433.46Z" transform="translate(7.9 16.93)" style="fill:url(#gx)"/><path d="M386.11,433.46a2.61,2.61,0,1,0,2.61,2.61h0a2.6,2.6,0,0,0-2.59-2.61Z" transform="translate(7.9 16.93)" style="fill:url(#gy)"/><path d="M400.87,433.46a2.61,2.61,0,1,0,2.61,2.61h0A2.61,2.61,0,0,0,400.87,433.46Z" transform="translate(7.9 16.93)" style="fill:url(#gz)"/><path d="M415.62,433.46a2.61,2.61,0,1,0,2.61,2.61h0A2.61,2.61,0,0,0,415.62,433.46Z" transform="translate(7.9 16.93)" style="fill:url(#ha)"/><path d="M430.38,433.46a2.61,2.61,0,1,0,2.61,2.61h0A2.61,2.61,0,0,0,430.38,433.46Z" transform="translate(7.9 16.93)" style="fill:url(#hb)"/><path d="M445.13,433.46a2.61,2.61,0,1,0,2.61,2.61h0A2.61,2.61,0,0,0,445.13,433.46Z" transform="translate(7.9 16.93)" style="fill:url(#hc)"/><path d="M459.89,433.46a2.61,2.61,0,1,0,2.61,2.61h0A2.61,2.61,0,0,0,459.89,433.46Z" transform="translate(7.9 16.93)" style="fill:url(#hd)"/><path d="M474.64,433.46a2.61,2.61,0,1,0,2.61,2.61h0A2.61,2.61,0,0,0,474.64,433.46Z" transform="translate(7.9 16.93)" style="fill:url(#he)"/><path d="M489.4,433.46a2.61,2.61,0,1,0,2.61,2.61h0A2.61,2.61,0,0,0,489.4,433.46Z" transform="translate(7.9 16.93)" style="fill:url(#hf)"/><path d="M504.15,433.46a2.61,2.61,0,1,0,2.61,2.61h0A2.61,2.61,0,0,0,504.15,433.46Z" transform="translate(7.9 16.93)" style="fill:url(#hg)"/><path d="M518.91,433.46a2.61,2.61,0,1,0,2.61,2.61h0A2.61,2.61,0,0,0,518.91,433.46Z" transform="translate(7.9 16.93)" style="fill:url(#hh)"/><path d="M533.66,433.46a2.61,2.61,0,1,0,2.61,2.61h0A2.61,2.61,0,0,0,533.66,433.46Z" transform="translate(7.9 16.93)" style="fill:url(#hi)"/><path d="M548.42,433.46a2.61,2.61,0,1,0,2.61,2.61h0A2.61,2.61,0,0,0,548.42,433.46Z" transform="translate(7.9 16.93)" style="fill:url(#hj)"/><polygon points="926.61 302.25 925.24 300.88 922.71 303.4 920.19 300.88 918.81 302.25 921.34 304.77 918.81 307.3 920.19 308.67 922.71 306.15 925.24 308.67 926.61 307.3 924.09 304.77 926.61 302.25" style="fill:#f9f9f9"/><polygon points="925.24 317.2 922.71 319.72 920.19 317.2 918.81 318.57 921.34 321.1 918.81 323.62 920.19 325 922.71 322.47 925.24 325 926.61 323.62 924.09 321.1 926.61 318.57 925.24 317.2" style="fill:#f9f9f9"/><polygon points="925.24 333.52 922.71 336.05 920.19 333.52 918.81 334.9 921.34 337.42 918.81 339.94 920.19 341.32 922.71 338.8 925.24 341.32 926.61 339.94 924.09 337.42 926.61 334.9 925.24 333.52" style="fill:#f9f9f9"/><polygon points="925.24 349.85 922.71 352.37 920.19 349.85 918.81 351.22 921.34 353.75 918.81 356.27 920.19 357.65 922.71 355.12 925.24 357.65 926.61 356.27 924.09 353.75 926.61 351.22 925.24 349.85" style="fill:#f9f9f9"/><polygon points="912.65 317.2 910.13 319.72 907.61 317.2 906.23 318.57 908.76 321.1 906.23 323.62 907.61 325 910.13 322.47 912.65 325 914.03 323.62 911.51 321.1 914.03 318.57 912.65 317.2" style="fill:#f9f9f9"/><polygon points="912.65 333.52 910.13 336.05 907.61 333.52 906.23 334.9 908.76 337.42 906.23 339.94 907.61 341.32 910.13 338.8 912.65 341.32 914.03 339.94 911.51 337.42 914.03 334.9 912.65 333.52" style="fill:#f9f9f9"/><polygon points="912.65 349.85 910.13 352.37 907.61 349.85 906.23 351.22 908.76 353.75 906.23 356.27 907.61 357.65 910.13 355.12 912.65 357.65 914.03 356.27 911.51 353.75 914.03 351.22 912.65 349.85" style="fill:#f9f9f9"/><polygon points="912.65 366.17 910.13 368.69 907.61 366.17 906.23 367.55 908.76 370.07 906.23 372.59 907.61 373.97 910.13 371.45 912.65 373.97 914.03 372.59 911.51 370.07 914.03 367.55 912.65 366.17" style="fill:#f9f9f9"/><polygon points="899.54 333.52 897.02 336.05 894.5 333.52 893.12 334.9 895.64 337.42 893.12 339.95 894.5 341.32 897.02 338.8 899.54 341.32 900.92 339.95 898.4 337.42 900.92 334.9 899.54 333.52" style="fill:#f9f9f9"/><polygon points="899.54 349.85 897.02 352.37 894.5 349.85 893.12 351.22 895.64 353.75 893.12 356.27 894.5 357.65 897.02 355.12 899.54 357.65 900.92 356.27 898.4 353.75 900.92 351.22 899.54 349.85" style="fill:#f9f9f9"/><polygon points="899.54 366.17 897.02 368.69 894.5 366.17 893.12 367.55 895.64 370.07 893.12 372.59 894.5 373.97 897.02 371.45 899.54 373.97 900.92 372.59 898.4 370.07 900.92 367.55 899.54 366.17" style="fill:#f9f9f9"/><polygon points="899.54 382.5 897.02 385.02 894.5 382.5 893.12 383.87 895.64 386.4 893.12 388.92 894.5 390.3 897.02 387.77 899.54 390.3 900.92 388.92 898.4 386.4 900.92 383.87 899.54 382.5" style="fill:#f9f9f9"/><path d="M337.67,147.9c9.18,0,9.18,10,18.36,10s9.17-10,18.35-10,9.18,10,18.35,10,9.18-10,18.35-10,9.18,10,18.36,10,9.17-10,18.35-10,9.18,10,18.35,10,9.18-10,18.36-10,9.18,10,18.36,10,9.18-10,18.36-10,9.18,10,18.36,10" transform="translate(7.9 16.93)" style="fill:none;stroke:#f9f9f9;stroke-miterlimit:10;stroke-width:0.5px"/><path d="M337.67,132.49c9.18,0,9.18,10,18.36,10s9.17-10,18.35-10,9.18,10,18.35,10,9.18-10,18.35-10,9.18,10,18.36,10,9.18-10,18.35-10,9.18,10,18.35,10,9.18-10,18.36-10,9.18,10,18.36,10,9.18-10,18.36-10,9.18,10,18.36,10" transform="translate(7.9 16.93)" style="fill:none;stroke:#f9f9f9;stroke-miterlimit:10;stroke-width:0.5px"/><path d="M661.25,424.55c8,0,8,10,15.89,10s8-10,15.9-10,8,10,15.89,10,8-10,15.9-10,7.95,10,15.9,10,7.95-10,15.9-10,7.94,10,15.89,10,8-10,15.9-10,8,10,15.9,10,8-10,15.9-10,8,10,15.91,10" transform="translate(7.9 16.93)" style="fill:none;stroke:#f9f9f9;stroke-miterlimit:10;stroke-width:2px"/><path d="M661.25,411.25c8,0,8,10,15.89,10s8-10,15.9-10,8,10,15.89,10,8-10,15.9-10,7.95,10,15.9,10,7.95-10,15.9-10,7.94,10,15.89,10,8-10,15.9-10,8,10,15.9,10,8-10,15.9-10,8,10,15.91,10" transform="translate(7.9 16.93)" style="fill:none;stroke:#f9f9f9;stroke-miterlimit:10;stroke-width:2px"/><rect x="792.13" y="424" width="134.48" height="32.85" style="fill:none"/><g style="clip-path:url(#hk)"><line x1="509.88" y1="263.9" x2="773.43" y2="0.35" style="fill:none;stroke:#f9f9f9;stroke-miterlimit:10"/><line x1="509.88" y1="277.42" x2="773.43" y2="13.88" style="fill:none;stroke:#f9f9f9;stroke-miterlimit:10"/><line x1="509.88" y1="290.95" x2="773.43" y2="27.4" style="fill:none;stroke:#f9f9f9;stroke-miterlimit:10"/><line x1="509.88" y1="304.47" x2="773.43" y2="40.93" style="fill:none;stroke:#f9f9f9;stroke-miterlimit:10"/><line x1="509.88" y1="318" x2="773.43" y2="54.45" style="fill:none;stroke:#f9f9f9;stroke-miterlimit:10"/><line x1="509.88" y1="331.52" x2="773.43" y2="67.98" style="fill:none;stroke:#f9f9f9;stroke-miterlimit:10"/><line x1="509.88" y1="345.05" x2="773.43" y2="81.5" style="fill:none;stroke:#f9f9f9;stroke-miterlimit:10"/><line x1="509.88" y1="358.57" x2="773.43" y2="95.02" style="fill:none;stroke:#f9f9f9;stroke-miterlimit:10"/><line x1="509.88" y1="372.09" x2="773.43" y2="108.55" style="fill:none;stroke:#f9f9f9;stroke-miterlimit:10"/><line x1="509.88" y1="385.62" x2="773.43" y2="122.07" style="fill:none;stroke:#f9f9f9;stroke-miterlimit:10"/><line x1="509.88" y1="399.14" x2="773.43" y2="135.6" style="fill:none;stroke:#f9f9f9;stroke-miterlimit:10"/><line x1="509.88" y1="412.67" x2="773.43" y2="149.12" style="fill:none;stroke:#f9f9f9;stroke-miterlimit:10"/><line x1="509.88" y1="426.19" x2="773.43" y2="162.65" style="fill:none;stroke:#f9f9f9;stroke-miterlimit:10"/><line x1="509.88" y1="439.72" x2="773.43" y2="176.17" style="fill:none;stroke:#f9f9f9;stroke-miterlimit:10"/><line x1="509.88" y1="453.24" x2="773.43" y2="189.7" style="fill:none;stroke:#f9f9f9;stroke-miterlimit:10"/><line x1="509.88" y1="466.77" x2="773.43" y2="203.22" style="fill:none;stroke:#f9f9f9;stroke-miterlimit:10"/><line x1="509.88" y1="480.29" x2="773.43" y2="216.74" style="fill:none;stroke:#f9f9f9;stroke-miterlimit:10"/><line x1="509.88" y1="493.81" x2="773.43" y2="230.27" style="fill:none;stroke:#f9f9f9;stroke-miterlimit:10"/><line x1="509.88" y1="507.34" x2="773.43" y2="243.79" style="fill:none;stroke:#f9f9f9;stroke-miterlimit:10"/><line x1="509.88" y1="520.86" x2="773.43" y2="257.32" style="fill:none;stroke:#f9f9f9;stroke-miterlimit:10"/><line x1="509.88" y1="534.39" x2="773.43" y2="270.84" style="fill:none;stroke:#f9f9f9;stroke-miterlimit:10"/><line x1="509.88" y1="547.91" x2="773.43" y2="284.37" style="fill:none;stroke:#f9f9f9;stroke-miterlimit:10"/><line x1="509.88" y1="561.44" x2="773.43" y2="297.89" style="fill:none;stroke:#f9f9f9;stroke-miterlimit:10"/><line x1="509.88" y1="574.96" x2="773.43" y2="311.41" style="fill:none;stroke:#f9f9f9;stroke-miterlimit:10"/><line x1="509.88" y1="588.48" x2="773.43" y2="324.94" style="fill:none;stroke:#f9f9f9;stroke-miterlimit:10"/></g><path d="M825.86,341.55l-12-12-.22.21,12,12Z" transform="translate(7.9 16.93)" style="fill:#f9f9f9"/><path d="M827.19,340.55l-9.52-14.05-.25.17,9.52,14.05Z" transform="translate(7.9 16.93)" style="fill:#f9f9f9"/><path d="M823.1,348.06v-.15h-17v.31h17Z" transform="translate(7.9 16.93)" style="fill:#f9f9f9"/><path d="M830.79,339.13,828,322.39l-.3.05,2.81,16.74Z" transform="translate(7.9 16.93)" style="fill:#f9f9f9"/><path d="M829.13,339.55l-5.92-15.9-.29.1,5.92,15.91Z" transform="translate(7.9 16.93)" style="fill:#f9f9f9"/><path d="M824.87,342.7,811,332.85l-.18.25L824.68,343Z" transform="translate(7.9 16.93)" style="fill:#f9f9f9"/><path d="M823.29,346.21,806.62,343l-.06.31,16.67,3.24Z" transform="translate(7.9 16.93)" style="fill:#f9f9f9"/><path d="M824,344.17,808.6,337.1l-.13.28,15.44,7.07Z" transform="translate(7.9 16.93)" style="fill:#f9f9f9"/><path d="M832.13,339h.16V322H832v17Z" transform="translate(7.9 16.93)" style="fill:#f9f9f9"/><path d="M840.65,345.06l15.91-5.92-.11-.29-15.9,5.92C840.58,344.87,840.62,345,840.65,345.06Z" transform="translate(7.9 16.93)" style="fill:#f9f9f9"/><path d="M841,346.72l16.74-2.81v-.3L841,346.42Z" transform="translate(7.9 16.93)" style="fill:#f9f9f9"/><path d="M839.7,343.13l14-9.52-.17-.26-14.06,9.52Z" transform="translate(7.9 16.93)" style="fill:#f9f9f9"/><path d="M838.63,341.79l12-12-.22-.21-12,12Z" transform="translate(7.9 16.93)" style="fill:#f9f9f9"/><path d="M836,339.91l7.06-15.43-.28-.13-7.06,15.44Z" transform="translate(7.9 16.93)" style="fill:#f9f9f9"/><path d="M837.5,340.8,847.35,327l-.25-.17-9.85,13.82Z" transform="translate(7.9 16.93)" style="fill:#f9f9f9"/><path d="M834,339.22l3.2-16.67-.3-.05-3.2,16.67Z" transform="translate(7.9 16.93)" style="fill:#f9f9f9"/><path d="M841,349.92l16.66,3.21.06-.31L841,349.62Z" transform="translate(7.9 16.93)" style="fill:#f9f9f9"/><path d="M837,355.63l9.52,14.05.26-.17-9.52-14Z" transform="translate(7.9 16.93)" style="fill:#f9f9f9"/><path d="M823.2,349.41l-16.74,2.81,0,.3,16.74-2.81A1.86,1.86,0,0,1,823.2,349.41Z" transform="translate(7.9 16.93)" style="fill:#f9f9f9"/><path d="M835.14,356.55,841,372.49l.29-.1-5.92-15.91Z" transform="translate(7.9 16.93)" style="fill:#f9f9f9"/><path d="M833.48,357l2.81,16.74.3-.05L833.78,357Z" transform="translate(7.9 16.93)" style="fill:#f9f9f9"/><path d="M841.16,347.91v.31h17v-.31Z" transform="translate(7.9 16.93)" style="fill:#f9f9f9"/><path d="M839.4,353.43l13.82,9.85.18-.25-13.82-9.85Z" transform="translate(7.9 16.93)" style="fill:#f9f9f9"/><path d="M840.28,352,855.72,359l.13-.28-15.44-7.07A1.43,1.43,0,0,1,840.28,352Z" transform="translate(7.9 16.93)" style="fill:#f9f9f9"/><path d="M838.41,354.55l12,12,.22-.21-12-12Z" transform="translate(7.9 16.93)" style="fill:#f9f9f9"/><path d="M824.57,353l-14,9.52.17.26,14-9.52Z" transform="translate(7.9 16.93)" style="fill:#f9f9f9"/><path d="M825.64,354.34l-12,12,.22.21,12-12A2.13,2.13,0,0,1,825.64,354.34Z" transform="translate(7.9 16.93)" style="fill:#f9f9f9"/><path d="M823.61,351.07,807.71,357l.1.29,15.91-5.92Z" transform="translate(7.9 16.93)" style="fill:#f9f9f9"/><path d="M826.77,355.33l-9.85,13.83.25.17L827,355.55Z" transform="translate(7.9 16.93)" style="fill:#f9f9f9"/><path d="M830.28,356.91,827,373.55l.3.05,3.21-16.67Z" transform="translate(7.9 16.93)" style="fill:#f9f9f9"/><path d="M828.23,356.22l-7.06,15.43.28.13,7.06-15.44Z" transform="translate(7.9 16.93)" style="fill:#f9f9f9"/><path d="M832.13,357.1H832v17h.31v-17Z" transform="translate(7.9 16.93)" style="fill:#f9f9f9"/><path d="M339.17,377.39a1.07,1.07,0,1,0,0-2.14,1.07,1.07,0,0,0,0,2.14Z" transform="translate(7.9 16.93)" style="fill:#e9edf4"/><path d="M338.09,366.67a1.08,1.08,0,0,0,1.07,1.09,1.07,1.07,0,0,0,1.09-1.07,1.08,1.08,0,0,0-1.07-1.09h0a1.08,1.08,0,0,0-1.08,1.06Z" transform="translate(7.9 16.93)" style="fill:#e9edf4"/><path d="M339.17,356a1.1,1.1,0,0,0-1.09,1.07,1.08,1.08,0,0,0,1.07,1.09,1.07,1.07,0,0,0,1.09-1.07v0a1.06,1.06,0,0,0-1.07-1.07Z" transform="translate(7.9 16.93)" style="fill:#e9edf4"/><path d="M339.17,348.45a1.08,1.08,0,1,0,0-2.16,1.09,1.09,0,0,0-1.08,1.08h0a1.07,1.07,0,0,0,1.07,1.07Z" transform="translate(7.9 16.93)" style="fill:#e9edf4"/><path d="M339.17,338.8a1.07,1.07,0,1,0,0-2.14,1.07,1.07,0,0,0,0,2.14Z" transform="translate(7.9 16.93)" style="fill:#e9edf4"/><path d="M339.17,327a1.07,1.07,0,1,0,1.07,1.07,1.07,1.07,0,0,0-1.07-1.07Z" transform="translate(7.9 16.93)" style="fill:#e9edf4"/><path d="M339.17,319.55a1.07,1.07,0,1,0,0-2.14,1.07,1.07,0,0,0,0,2.14Z" transform="translate(7.9 16.93)" style="fill:#e9edf4"/><path d="M339.17,309.86a1.08,1.08,0,1,0,0-2.16,1.09,1.09,0,0,0-1.08,1.08,1.07,1.07,0,0,0,1.06,1.08Z" transform="translate(7.9 16.93)" style="fill:#e9edf4"/><path d="M339.17,300.21a1.07,1.07,0,1,0,0-2.14,1.07,1.07,0,0,0,0,2.14Z" transform="translate(7.9 16.93)" style="fill:#e9edf4"/><path d="M339.17,290.55a1.07,1.07,0,1,0,0-2.14,1.07,1.07,0,0,0,0,2.14Z" transform="translate(7.9 16.93)" style="fill:#e9edf4"/><circle cx="355.8" cy="393.25" r="1.07" style="fill:#e9edf4"/><circle cx="355.79" cy="383.6" r="1.07" style="fill:#e9edf4"/><path d="M347.89,358.1a1.08,1.08,0,1,0,0-2.16,1.09,1.09,0,0,0-1.08,1.08h0a1.07,1.07,0,0,0,1.06,1.08Z" transform="translate(7.9 16.93)" style="fill:#e9edf4"/><path d="M347.89,348.45a1.08,1.08,0,1,0,0-2.16,1.09,1.09,0,0,0-1.08,1.08h0a1.07,1.07,0,0,0,1.07,1.07Z" transform="translate(7.9 16.93)" style="fill:#e9edf4"/><path d="M346.81,337.73a1.08,1.08,0,0,0,1.07,1.09,1.07,1.07,0,0,0,1.09-1.07,1.08,1.08,0,0,0-1.07-1.09h0a1.08,1.08,0,0,0-1.08,1.06Z" transform="translate(7.9 16.93)" style="fill:#e9edf4"/><path d="M347.89,327a1.07,1.07,0,1,0,1.07,1.07,1.07,1.07,0,0,0-1.07-1.07Z" transform="translate(7.9 16.93)" style="fill:#e9edf4"/><path d="M347.89,317.36a1.07,1.07,0,1,0,1.07,1.07,1.07,1.07,0,0,0-1.07-1.07Z" transform="translate(7.9 16.93)" style="fill:#e9edf4"/><path d="M347.89,309.86a1.08,1.08,0,1,0,0-2.16,1.09,1.09,0,0,0-1.08,1.08,1.07,1.07,0,0,0,1.06,1.08Z" transform="translate(7.9 16.93)" style="fill:#e9edf4"/><path d="M347.89,300.21a1.07,1.07,0,0,0,0-2.14,1.07,1.07,0,0,0,0,2.14Z" transform="translate(7.9 16.93)" style="fill:#e9edf4"/><path d="M347.89,290.55a1.07,1.07,0,0,0,0-2.14,1.07,1.07,0,0,0,0,2.14Z" transform="translate(7.9 16.93)" style="fill:#e9edf4"/><path d="M356.6,377.39a1.07,1.07,0,1,0-1.07-1.07,1.06,1.06,0,0,0,1.07,1.07Z" transform="translate(7.9 16.93)" style="fill:#e9edf4"/><path d="M356.6,367.74a1.07,1.07,0,1,0-1.07-1.07,1.06,1.06,0,0,0,1.07,1.07Z" transform="translate(7.9 16.93)" style="fill:#e9edf4"/><path d="M356.6,356a1.08,1.08,0,0,0,0,2.16,1.08,1.08,0,0,0,1.08-1.08h0a1.06,1.06,0,0,0-1.07-1.07Z" transform="translate(7.9 16.93)" style="fill:#e9edf4"/><path d="M356.6,346.3a1.08,1.08,0,0,0,0,2.16,1.08,1.08,0,0,0,1.08-1.08h0a1.06,1.06,0,0,0-1.06-1.08Z" transform="translate(7.9 16.93)" style="fill:#e9edf4"/><path d="M356.6,338.8a1.07,1.07,0,1,0-1.07-1.07,1.06,1.06,0,0,0,1.07,1.07Z" transform="translate(7.9 16.93)" style="fill:#e9edf4"/><path d="M356.6,329.15a1.07,1.07,0,1,0-1.07-1.07,1.06,1.06,0,0,0,1.07,1.07Z" transform="translate(7.9 16.93)" style="fill:#e9edf4"/><path d="M356.6,319.55a1.07,1.07,0,1,0-1.07-1.07,1.06,1.06,0,0,0,1.07,1.07Z" transform="translate(7.9 16.93)" style="fill:#e9edf4"/><path d="M356.6,309.86a1.07,1.07,0,0,0,1.09-1.07,1.08,1.08,0,0,0-1.07-1.09,1.1,1.1,0,0,0-1.09,1.07h0A1.08,1.08,0,0,0,356.6,309.86Z" transform="translate(7.9 16.93)" style="fill:#e9edf4"/><path d="M356.6,300.21a1.07,1.07,0,1,0-1.07-1.07,1.06,1.06,0,0,0,1.07,1.07Z" transform="translate(7.9 16.93)" style="fill:#e9edf4"/><path d="M356.6,290.55a1.07,1.07,0,1,0-1.07-1.07,1.06,1.06,0,0,0,1.07,1.07Z" transform="translate(7.9 16.93)" style="fill:#e9edf4"/><path d="M365.32,377.39a1.07,1.07,0,1,0-1.07-1.07,1.06,1.06,0,0,0,1.07,1.07Z" transform="translate(7.9 16.93)" style="fill:#e9edf4"/><path d="M365.32,367.74a1.07,1.07,0,1,0-1.07-1.07,1.06,1.06,0,0,0,1.07,1.07Z" transform="translate(7.9 16.93)" style="fill:#e9edf4"/><path d="M365.32,358.1a1.07,1.07,0,0,0,1.09-1.07,1.08,1.08,0,0,0-1.07-1.09,1.1,1.1,0,0,0-1.09,1.07h0a1.07,1.07,0,0,0,1.06,1.08Z" transform="translate(7.9 16.93)" style="fill:#e9edf4"/><path d="M365.32,348.45a1.07,1.07,0,0,0,1.09-1.07,1.08,1.08,0,0,0-1.07-1.09,1.1,1.1,0,0,0-1.09,1.07v0a1.07,1.07,0,0,0,1.07,1.07Z" transform="translate(7.9 16.93)" style="fill:#e9edf4"/><path d="M365.32,338.8a1.07,1.07,0,1,0-1.07-1.07,1.06,1.06,0,0,0,1.07,1.07Z" transform="translate(7.9 16.93)" style="fill:#e9edf4"/><path d="M365.32,329.15a1.07,1.07,0,1,0-1.07-1.07,1.06,1.06,0,0,0,1.07,1.07Z" transform="translate(7.9 16.93)" style="fill:#e9edf4"/><path d="M365.32,319.55a1.07,1.07,0,1,0-1.07-1.07,1.06,1.06,0,0,0,1.07,1.07Z" transform="translate(7.9 16.93)" style="fill:#e9edf4"/><path d="M365.32,309.86a1.07,1.07,0,0,0,1.09-1.07,1.08,1.08,0,0,0-1.07-1.09,1.1,1.1,0,0,0-1.09,1.07h0a1.07,1.07,0,0,0,1.06,1.08Z" transform="translate(7.9 16.93)" style="fill:#e9edf4"/><path d="M365.32,300.21a1.07,1.07,0,1,0-1.07-1.07,1.06,1.06,0,0,0,1.07,1.07Z" transform="translate(7.9 16.93)" style="fill:#e9edf4"/><path d="M365.32,290.55a1.07,1.07,0,1,0-1.07-1.07,1.06,1.06,0,0,0,1.07,1.07Z" transform="translate(7.9 16.93)" style="fill:#e9edf4"/><path d="M374,375.25a1.07,1.07,0,1,0,1.07,1.07,1.07,1.07,0,0,0-1.07-1.07Z" transform="translate(7.9 16.93)" style="fill:#e9edf4"/><path d="M374,365.6a1.07,1.07,0,1,0,1.07,1.07A1.07,1.07,0,0,0,374,365.6Z" transform="translate(7.9 16.93)" style="fill:#e9edf4"/><path d="M373,357A1.07,1.07,0,1,0,374,356h0A1.08,1.08,0,0,0,373,357Z" transform="translate(7.9 16.93)" style="fill:#e9edf4"/><path d="M374,348.45a1.07,1.07,0,0,0,1.09-1.07,1.08,1.08,0,0,0-1.07-1.09,1.1,1.1,0,0,0-1.09,1.07v0a1.07,1.07,0,0,0,1.07,1.07Z" transform="translate(7.9 16.93)" style="fill:#e9edf4"/><path d="M375.11,337.73A1.07,1.07,0,1,0,374,338.8a1.06,1.06,0,0,0,1.07-1.07Z" transform="translate(7.9 16.93)" style="fill:#e9edf4"/><path d="M374,329.15a1.07,1.07,0,1,0-1.07-1.07,1.06,1.06,0,0,0,1.07,1.07Z" transform="translate(7.9 16.93)" style="fill:#e9edf4"/><path d="M374,319.55a1.07,1.07,0,1,0-1.07-1.07,1.06,1.06,0,0,0,1.07,1.07Z" transform="translate(7.9 16.93)" style="fill:#e9edf4"/><path d="M374,309.86a1.07,1.07,0,0,0,1.09-1.07,1.08,1.08,0,0,0-1.07-1.09,1.1,1.1,0,0,0-1.09,1.07h0a1.07,1.07,0,0,0,1.06,1.08Z" transform="translate(7.9 16.93)" style="fill:#e9edf4"/><path d="M374,298.07a1.07,1.07,0,1,0,1.07,1.07,1.07,1.07,0,0,0-1.07-1.07Z" transform="translate(7.9 16.93)" style="fill:#e9edf4"/><path d="M374,290.55a1.07,1.07,0,1,0-1.07-1.07,1.06,1.06,0,0,0,1.07,1.07Z" transform="translate(7.9 16.93)" style="fill:#e9edf4"/><path d="M339.17,194.93a1.07,1.07,0,1,0,0-2.14,1.07,1.07,0,0,0,0,2.14Z" transform="translate(7.9 16.93)" style="fill:#e9edf4"/><path d="M339.17,185.29a1.08,1.08,0,0,0,0-2.16,1.09,1.09,0,0,0-1.08,1.08,1.07,1.07,0,0,0,1.06,1.08Z" transform="translate(7.9 16.93)" style="fill:#e9edf4"/><path d="M347.89,204.55a1.07,1.07,0,0,0,0-2.14,1.08,1.08,0,0,0-1.06,1.08v.06A1.07,1.07,0,0,0,347.89,204.55Z" transform="translate(7.9 16.93)" style="fill:#e9edf4"/><path d="M347.89,194.93a1.07,1.07,0,0,0,0-2.14,1.07,1.07,0,0,0,0,2.14Z" transform="translate(7.9 16.93)" style="fill:#e9edf4"/><path d="M347.89,185.29a1.08,1.08,0,1,0,0-2.16,1.09,1.09,0,0,0-1.08,1.08,1.07,1.07,0,0,0,1.06,1.08Z" transform="translate(7.9 16.93)" style="fill:#e9edf4"/><path d="M356.6,212.08a1.08,1.08,0,0,0,0,2.16,1.08,1.08,0,0,0,1.08-1.08,1.06,1.06,0,0,0-1.06-1.08Z" transform="translate(7.9 16.93)" style="fill:#e9edf4"/><path d="M356.6,202.44a1.07,1.07,0,1,0,0,2.14,1.07,1.07,0,0,0,0-2.14Z" transform="translate(7.9 16.93)" style="fill:#e9edf4"/><path d="M356.6,194.93a1.07,1.07,0,1,0-1.07-1.07,1.06,1.06,0,0,0,1.07,1.07Z" transform="translate(7.9 16.93)" style="fill:#e9edf4"/><path d="M357.68,184.21a1.08,1.08,0,1,0-1.08,1.08,1.06,1.06,0,0,0,1.08-1.06Z" transform="translate(7.9 16.93)" style="fill:#e9edf4"/><path d="M365.32,221.73a1.1,1.1,0,0,0-1.09,1.07,1.08,1.08,0,0,0,1.07,1.09,1.07,1.07,0,0,0,1.09-1.07v0a1.06,1.06,0,0,0-1.07-1.07Z" transform="translate(7.9 16.93)" style="fill:#e9edf4"/><path d="M365.32,212.08a1.1,1.1,0,0,0-1.09,1.07,1.08,1.08,0,0,0,1.07,1.09,1.07,1.07,0,0,0,1.09-1.07h0a1.06,1.06,0,0,0-1.06-1.08Z" transform="translate(7.9 16.93)" style="fill:#e9edf4"/><path d="M365.32,204.55a1.07,1.07,0,1,0-1.07-1.07,1.06,1.06,0,0,0,1.07,1.07Z" transform="translate(7.9 16.93)" style="fill:#e9edf4"/><path d="M365.32,194.93a1.07,1.07,0,1,0-1.07-1.07,1.06,1.06,0,0,0,1.07,1.07Z" transform="translate(7.9 16.93)" style="fill:#e9edf4"/><path d="M365.32,185.29a1.07,1.07,0,0,0,1.09-1.07,1.08,1.08,0,0,0-1.07-1.09,1.1,1.1,0,0,0-1.09,1.07h0a1.07,1.07,0,0,0,1.06,1.08Z" transform="translate(7.9 16.93)" style="fill:#e9edf4"/><path d="M374,233.55a1.07,1.07,0,1,0-1.07-1.07,1.06,1.06,0,0,0,1.07,1.07Z" transform="translate(7.9 16.93)" style="fill:#e9edf4"/><path d="M374,223.88a1.07,1.07,0,0,0,1.09-1.07,1.08,1.08,0,0,0-1.07-1.09,1.1,1.1,0,0,0-1.09,1.07h0a1.07,1.07,0,0,0,1.06,1.08Z" transform="translate(7.9 16.93)" style="fill:#e9edf4"/><path d="M374,212.08a1.1,1.1,0,0,0-1.09,1.07,1.08,1.08,0,0,0,1.07,1.09,1.07,1.07,0,0,0,1.09-1.07h0a1.06,1.06,0,0,0-1.06-1.08Z" transform="translate(7.9 16.93)" style="fill:#e9edf4"/><path d="M374,202.44a1.07,1.07,0,1,0,1.07,1.07,1.07,1.07,0,0,0-1.07-1.07Z" transform="translate(7.9 16.93)" style="fill:#e9edf4"/><path d="M339.17,279.61a1.1,1.1,0,0,0-1.09,1.07,1.08,1.08,0,0,0,1.07,1.09,1.07,1.07,0,0,0,1.09-1.07h0A1.08,1.08,0,0,0,339.17,279.61Z" transform="translate(7.9 16.93)" style="fill:#e9edf4"/><path d="M339.17,270a1.07,1.07,0,1,0,1.07,1.07,1.07,1.07,0,0,0-1.07-1.07Z" transform="translate(7.9 16.93)" style="fill:#e9edf4"/><path d="M339.17,260.32a1.07,1.07,0,1,0,1.07,1.07,1.07,1.07,0,0,0-1.07-1.07Z" transform="translate(7.9 16.93)" style="fill:#e9edf4"/><path d="M339.17,250.67a1.07,1.07,0,1,0,1.07,1.07,1.07,1.07,0,0,0-1.07-1.07Z" transform="translate(7.9 16.93)" style="fill:#e9edf4"/><path d="M339.17,241a1.08,1.08,0,0,0-1.08,1.06h0a1.08,1.08,0,0,0,2.15,0h0a1.06,1.06,0,0,0-1.07-1.07Z" transform="translate(7.9 16.93)" style="fill:#e9edf4"/><path d="M339.17,233.55a1.06,1.06,0,0,0,1.07-1.07h0a1.08,1.08,0,0,0-1-1.18,1.09,1.09,0,0,0-1.18,1v.21h0a1.07,1.07,0,0,0,1.07,1.07Z" transform="translate(7.9 16.93)" style="fill:#e9edf4"/><path d="M339.17,223.88a1.06,1.06,0,0,0,1.07-1.07h0a1.07,1.07,0,0,0-1.17-1,1.09,1.09,0,0,0-1,1h0a1.08,1.08,0,0,0,1.08,1.08Z" transform="translate(7.9 16.93)" style="fill:#e9edf4"/><path d="M339.17,214.23a1.06,1.06,0,0,0,1.07-1.07h0a1.07,1.07,0,0,0-1.17-1,1.09,1.09,0,0,0-1,1h0a1.07,1.07,0,0,0,1.07,1.07Z" transform="translate(7.9 16.93)" style="fill:#e9edf4"/><path d="M339.17,204.55a1.06,1.06,0,0,0,1.07-1h0a1.07,1.07,0,0,0-1.17-1,1.09,1.09,0,0,0-1,1h0A1.07,1.07,0,0,0,339.17,204.55Z" transform="translate(7.9 16.93)" style="fill:#e9edf4"/><path d="M347.89,281.76a1.08,1.08,0,1,0,0-2.16,1.09,1.09,0,0,0-1.08,1.08h0a1.07,1.07,0,0,0,1.07,1.07Z" transform="translate(7.9 16.93)" style="fill:#e9edf4"/><path d="M347.89,270A1.07,1.07,0,1,0,349,271a1.07,1.07,0,0,0-1.07-1.07Z" transform="translate(7.9 16.93)" style="fill:#e9edf4"/><path d="M347.89,262.46a1.07,1.07,0,0,0,0-2.14,1.07,1.07,0,0,0,0,2.14Z" transform="translate(7.9 16.93)" style="fill:#e9edf4"/><path d="M347.89,252.81a1.07,1.07,0,0,0,0-2.14,1.07,1.07,0,0,0,0,2.14Z" transform="translate(7.9 16.93)" style="fill:#e9edf4"/><path d="M347.89,243.17A1.06,1.06,0,0,0,349,242.1h0a1.07,1.07,0,0,0-1.17-1,1.09,1.09,0,0,0-1,1h0a1.07,1.07,0,0,0,1.07,1.07Z" transform="translate(7.9 16.93)" style="fill:#e9edf4"/><path d="M347.89,233.55a1.06,1.06,0,0,0,1.07-1.07h0a1.08,1.08,0,0,0-1-1.18,1.09,1.09,0,0,0-1.18,1v.21h0a1.07,1.07,0,0,0,1.07,1.07Z" transform="translate(7.9 16.93)" style="fill:#e9edf4"/><path d="M347.89,223.88a1.06,1.06,0,0,0,1.07-1.07h0a1.07,1.07,0,0,0-1.17-1,1.09,1.09,0,0,0-1,1h0a1.08,1.08,0,0,0,1.08,1.08Z" transform="translate(7.9 16.93)" style="fill:#e9edf4"/><path d="M347.89,214.23a1.06,1.06,0,0,0,1.07-1.07h0a1.07,1.07,0,0,0-1.17-1,1.09,1.09,0,0,0-1,1h0a1.07,1.07,0,0,0,1.07,1.07Z" transform="translate(7.9 16.93)" style="fill:#e9edf4"/><path d="M356.6,279.61a1.08,1.08,0,0,0,0,2.16,1.08,1.08,0,0,0,1.08-1.08,1.06,1.06,0,0,0-1.06-1.08Z" transform="translate(7.9 16.93)" style="fill:#e9edf4"/><path d="M356.6,272.11a1.07,1.07,0,1,0-1.07-1.07,1.06,1.06,0,0,0,1.07,1.07Z" transform="translate(7.9 16.93)" style="fill:#e9edf4"/><path d="M356.6,260.32a1.07,1.07,0,1,0,0,2.14,1.07,1.07,0,0,0,0-2.14Z" transform="translate(7.9 16.93)" style="fill:#e9edf4"/><path d="M356.6,252.81a1.07,1.07,0,1,0-1.07-1.07,1.06,1.06,0,0,0,1.07,1.07Z" transform="translate(7.9 16.93)" style="fill:#e9edf4"/><path d="M356.6,243.17a1.06,1.06,0,0,0,1.08-1.06h0a1.07,1.07,0,0,0-1.17-1,1.09,1.09,0,0,0-1,1h0a1.07,1.07,0,0,0,1.07,1.07Z" transform="translate(7.9 16.93)" style="fill:#e9edf4"/><path d="M356.6,233.55a1.06,1.06,0,0,0,1.08-1.06h0a1.08,1.08,0,0,0-1-1.18,1.09,1.09,0,0,0-1.18,1v.21h0a1.07,1.07,0,0,0,1.07,1.07Z" transform="translate(7.9 16.93)" style="fill:#e9edf4"/><path d="M356.6,223.88a1.08,1.08,0,0,0,1.08-1.08h0a1.07,1.07,0,0,0-1.17-1,1.09,1.09,0,0,0-1,1h0a1.07,1.07,0,0,0,1.06,1.08Z" transform="translate(7.9 16.93)" style="fill:#e9edf4"/><path d="M365.32,279.61a1.1,1.1,0,0,0-1.09,1.07,1.08,1.08,0,0,0,1.07,1.09,1.07,1.07,0,0,0,1.09-1.07h0a1.06,1.06,0,0,0-1.06-1.08Z" transform="translate(7.9 16.93)" style="fill:#e9edf4"/><path d="M365.32,270a1.07,1.07,0,1,0,1.07,1.07,1.07,1.07,0,0,0-1.07-1.07Z" transform="translate(7.9 16.93)" style="fill:#e9edf4"/><path d="M365.32,262.46a1.07,1.07,0,1,0-1.07-1.07,1.06,1.06,0,0,0,1.07,1.07Z" transform="translate(7.9 16.93)" style="fill:#e9edf4"/><path d="M365.32,252.81a1.07,1.07,0,1,0-1.07-1.07,1.06,1.06,0,0,0,1.07,1.07Z" transform="translate(7.9 16.93)" style="fill:#e9edf4"/><path d="M366.39,242.09a1.07,1.07,0,0,0-2.14,0h0a1.07,1.07,0,0,0,2.14,0Z" transform="translate(7.9 16.93)" style="fill:#e9edf4"/><path d="M365.32,233.55a1.06,1.06,0,0,0,1.07-1.07h0a1.07,1.07,0,1,0-2.14,0h0a1.07,1.07,0,0,0,1.07,1.07Z" transform="translate(7.9 16.93)" style="fill:#e9edf4"/><path d="M374,279.61a1.1,1.1,0,0,0-1.09,1.07,1.08,1.08,0,0,0,1.07,1.09,1.07,1.07,0,0,0,1.09-1.07h0a1.06,1.06,0,0,0-1.06-1.08Z" transform="translate(7.9 16.93)" style="fill:#e9edf4"/><path d="M374,272.11A1.07,1.07,0,1,0,373,271a1.06,1.06,0,0,0,1.07,1.07Z" transform="translate(7.9 16.93)" style="fill:#e9edf4"/><path d="M374,262.46a1.07,1.07,0,1,0-1.07-1.07,1.06,1.06,0,0,0,1.07,1.07Z" transform="translate(7.9 16.93)" style="fill:#e9edf4"/><path d="M374,252.81a1.07,1.07,0,1,0-1.07-1.07,1.06,1.06,0,0,0,1.07,1.07Z" transform="translate(7.9 16.93)" style="fill:#e9edf4"/><path d="M373,242.1a1.07,1.07,0,0,0,2.14,0h0a1.07,1.07,0,0,0-2.14,0Z" transform="translate(7.9 16.93)" style="fill:#e9edf4"/><path d="M374,192.79a1.07,1.07,0,1,0,1.07,1.07,1.07,1.07,0,0,0-1.07-1.07Z" transform="translate(7.9 16.93)" style="fill:#e9edf4"/><path d="M374,185.29a1.07,1.07,0,0,0,1.09-1.07,1.08,1.08,0,0,0-1.07-1.09A1.1,1.1,0,0,0,373,184.2h0a1.07,1.07,0,0,0,1.06,1.08Z" transform="translate(7.9 16.93)" style="fill:#e9edf4"/></svg>