<svg xmlns="http://www.w3.org/2000/svg" width="498.19" height="113.02" viewBox="0 0 498.19 113.02"><path d="M499.24,3.29H6.82c-6,0-5.76,7.56-5.76,7.56V116.31c0-.85.24-6.52,5.76-6.52h491L478.94,58.31ZM14.91,103.24a3.38,3.38,0,1,1,3.39-3.38A3.38,3.38,0,0,1,14.91,103.24Zm0-87.19a3.39,3.39,0,1,1,3.39-3.38A3.38,3.38,0,0,1,14.91,16.05Zm18.45,87.19a3.38,3.38,0,1,1,3.39-3.38A3.38,3.38,0,0,1,33.36,103.24Zm0-87.19a3.39,3.39,0,1,1,3.39-3.38A3.38,3.38,0,0,1,33.36,16.05Zm18.45,87.19a3.38,3.38,0,1,1,3.39-3.38A3.38,3.38,0,0,1,51.81,103.24Zm0-87.19a3.39,3.39,0,1,1,3.39-3.38A3.38,3.38,0,0,1,51.81,16.05Zm18.45,87.19a3.38,3.38,0,1,1,3.39-3.38A3.38,3.38,0,0,1,70.26,103.24Zm0-87.19a3.39,3.39,0,1,1,3.39-3.38A3.38,3.38,0,0,1,70.26,16.05ZM476.15,9.28a3.39,3.39,0,1,1-3.38,3.39A3.39,3.39,0,0,1,476.15,9.28Zm-387.44,94a3.38,3.38,0,1,1,3.39-3.38A3.38,3.38,0,0,1,88.71,103.24Zm0-87.19a3.39,3.39,0,1,1,3.39-3.38A3.38,3.38,0,0,1,88.71,16.05Zm18.45,87.19a3.38,3.38,0,1,1,3.39-3.38A3.38,3.38,0,0,1,107.16,103.24Zm0-87.19a3.39,3.39,0,1,1,3.39-3.38A3.38,3.38,0,0,1,107.16,16.05Zm18.45,87.19A3.38,3.38,0,1,1,129,99.86,3.38,3.38,0,0,1,125.61,103.24Zm0-87.19A3.39,3.39,0,1,1,129,12.67,3.38,3.38,0,0,1,125.61,16.05Zm18.45,87.19a3.38,3.38,0,1,1,3.38-3.38A3.38,3.38,0,0,1,144.06,103.24Zm0-87.19a3.39,3.39,0,1,1,3.38-3.38A3.38,3.38,0,0,1,144.06,16.05Zm18.45,87.19a3.38,3.38,0,1,1,3.38-3.38A3.38,3.38,0,0,1,162.51,103.24Zm0-87.19a3.39,3.39,0,1,1,3.38-3.38A3.38,3.38,0,0,1,162.51,16.05ZM181,103.24a3.38,3.38,0,1,1,3.38-3.38A3.38,3.38,0,0,1,181,103.24Zm0-87.19a3.39,3.39,0,1,1,3.38-3.38A3.38,3.38,0,0,1,181,16.05Zm18.45,87.19a3.38,3.38,0,1,1,3.38-3.38A3.38,3.38,0,0,1,199.41,103.24Zm0-87.19a3.39,3.39,0,1,1,3.38-3.38A3.38,3.38,0,0,1,199.41,16.05Zm18.45,87.19a3.38,3.38,0,1,1,3.38-3.38A3.38,3.38,0,0,1,217.86,103.24Zm0-87.19a3.39,3.39,0,1,1,3.38-3.38A3.38,3.38,0,0,1,217.86,16.05Zm18.45,87.19a3.38,3.38,0,1,1,3.38-3.38A3.38,3.38,0,0,1,236.31,103.24Zm0-87.19a3.39,3.39,0,1,1,3.38-3.38A3.38,3.38,0,0,1,236.31,16.05Zm18.45,87.19a3.38,3.38,0,1,1,3.38-3.38A3.38,3.38,0,0,1,254.76,103.24Zm0-87.19a3.39,3.39,0,1,1,3.38-3.38A3.38,3.38,0,0,1,254.76,16.05Zm18.45,87.19a3.38,3.38,0,1,1,3.38-3.38A3.38,3.38,0,0,1,273.21,103.24Zm0-87.19a3.39,3.39,0,1,1,3.38-3.38A3.38,3.38,0,0,1,273.21,16.05Zm18.45,87.19A3.38,3.38,0,1,1,295,99.86,3.38,3.38,0,0,1,291.66,103.24Zm0-87.19A3.39,3.39,0,1,1,295,12.67,3.38,3.38,0,0,1,291.66,16.05Zm18.45,87.19a3.38,3.38,0,1,1,3.38-3.38A3.38,3.38,0,0,1,310.11,103.24Zm0-87.19a3.39,3.39,0,1,1,3.38-3.38A3.38,3.38,0,0,1,310.11,16.05Zm18.45,87.19a3.38,3.38,0,1,1,3.38-3.38A3.38,3.38,0,0,1,328.56,103.24Zm0-87.19a3.39,3.39,0,1,1,3.38-3.38A3.38,3.38,0,0,1,328.56,16.05ZM347,103.24a3.38,3.38,0,1,1,3.38-3.38A3.38,3.38,0,0,1,347,103.24Zm0-87.19a3.39,3.39,0,1,1,3.38-3.38A3.38,3.38,0,0,1,347,16.05Zm18.45,87.19a3.38,3.38,0,1,1,3.38-3.38A3.38,3.38,0,0,1,365.46,103.24Zm0-87.19a3.39,3.39,0,1,1,3.38-3.38A3.38,3.38,0,0,1,365.46,16.05Zm18.45,87.19a3.38,3.38,0,1,1,3.38-3.38A3.38,3.38,0,0,1,383.91,103.24Zm0-87.19a3.39,3.39,0,1,1,3.38-3.38A3.38,3.38,0,0,1,383.91,16.05Zm18.45,87.19a3.38,3.38,0,1,1,3.38-3.38A3.38,3.38,0,0,1,402.36,103.24Zm0-87.19a3.39,3.39,0,1,1,3.38-3.38A3.38,3.38,0,0,1,402.36,16.05Zm18.44,87.19a3.38,3.38,0,1,1,3.39-3.38A3.38,3.38,0,0,1,420.8,103.24Zm0-87.19a3.39,3.39,0,1,1,3.39-3.38A3.38,3.38,0,0,1,420.8,16.05Zm18.45,87.19a3.38,3.38,0,1,1,3.39-3.38A3.38,3.38,0,0,1,439.25,103.24Zm0-87.19a3.39,3.39,0,1,1,3.39-3.38A3.38,3.38,0,0,1,439.25,16.05Zm18.45,87.19a3.38,3.38,0,1,1,3.39-3.38A3.38,3.38,0,0,1,457.7,103.24Zm0-87.19a3.39,3.39,0,1,1,3.39-3.38A3.38,3.38,0,0,1,457.7,16.05Zm21.84,83.81a3.39,3.39,0,1,1-3.39-3.38A3.38,3.38,0,0,1,479.54,99.86Z" transform="translate(-1.05 -3.29)" style="fill:#e6e6fa"/></svg>